<svg width="355" height="459" viewBox="0 0 355 459" fill="none" xmlns="http://www.w3.org/2000/svg">
<path d="M223.91 189.442C222.628 174.469 223.246 167.158 221.66 162.201C217.981 159.261 204.335 151.363 192.894 145.302C190.833 144.205 189.292 142.332 188.611 140.097C187.929 137.861 188.163 135.446 189.26 133.383C191.51 129.091 194.413 132.955 198.71 135.231C212.323 142.486 231.898 146.553 235.666 151.341C239.919 156.737 238.738 192.438 238.738 192.438L223.91 189.442Z" fill="#080C20"/>
<path fill-rule="evenodd" clip-rule="evenodd" d="M238.479 193.542C238.553 193.553 238.629 193.553 238.704 193.542C238.972 193.555 239.235 193.471 239.446 193.306C239.706 193.101 239.862 192.792 239.874 192.461C239.877 192.256 239.884 191.964 239.892 191.593C240.034 185.242 240.69 155.878 236.566 150.62C234.305 147.758 227.701 145.404 219.331 142.441C212.75 140.109 205.37 137.473 199.25 134.217C198.258 133.69 197.296 133.107 196.37 132.471L196.361 132.465C194.385 131.127 192.677 129.97 190.903 130.42C189.696 130.798 188.717 131.688 188.225 132.854C185.665 137.702 187.501 143.71 192.331 146.294C202.951 151.938 216.575 159.779 220.659 162.9C221.49 165.666 221.648 169.33 221.884 174.778L221.885 174.807C221.898 175.088 221.911 175.374 221.925 175.665C222.096 179.389 222.306 183.943 222.796 189.554C222.837 190.056 223.204 190.469 223.696 190.568L238.479 193.542ZM237.613 191.053L224.968 188.495C224.527 183.259 224.331 178.965 224.169 175.43C224.158 175.178 224.146 174.929 224.135 174.684C223.888 168.825 223.708 164.961 222.695 161.852C222.631 161.64 222.501 161.455 222.324 161.322C218.454 158.235 204.571 150.237 193.389 144.288C189.653 142.288 188.235 137.64 190.216 133.89C190.621 133.124 191.038 132.685 191.443 132.583C192.253 132.381 193.648 133.316 195.11 134.318C196.089 135.001 197.103 135.633 198.148 136.211C204.346 139.51 211.756 142.147 218.319 144.483L218.533 144.559C225.924 147.184 232.899 149.662 234.755 152.017C237.613 155.622 238.018 176.835 237.613 191.053Z" fill="#093F68"/>
<path d="M223.91 189.442V207.163C223.91 207.163 250.786 212.322 248.66 208.289C246.534 204.256 238.018 201.98 238.018 201.98L238.726 192.382L223.91 189.442Z" fill="#080C20"/>
<path fill-rule="evenodd" clip-rule="evenodd" d="M223.741 208.267C234.192 210.272 240.481 210.914 244.25 210.914C247.85 210.914 249.144 210.373 249.594 209.754C250.013 209.176 250.044 208.403 249.672 207.794C247.737 204.189 241.561 201.935 239.221 201.203L239.862 192.506C239.908 191.937 239.521 191.424 238.962 191.312L224.18 188.338C223.851 188.269 223.508 188.352 223.246 188.563C222.982 188.778 222.829 189.101 222.83 189.442V207.14C222.82 207.688 223.204 208.163 223.741 208.267ZM247.535 208.481C245.116 209.269 234.552 207.985 225.125 206.228V190.816L237.59 193.328L236.96 201.935C236.942 202.459 237.287 202.926 237.792 203.062C239.93 203.648 245.679 205.709 247.535 208.481Z" fill="#093F68"/>
<path d="M209.679 83.1718C209.679 83.1718 223.393 100.713 226.7 100.07C230.008 99.4282 239.559 93.0744 244.565 90.9677C252.586 87.5879 265.231 89.2102 261.789 92.0942C258.346 94.9783 259.314 92.3195 259.314 92.3195C240.673 104.61 227.814 112.598 226.194 112.463C218.139 112.046 203.041 96.9836 203.041 96.9836L209.679 83.1718Z" fill="#080C20"/>
<path fill-rule="evenodd" clip-rule="evenodd" d="M226.137 113.578H226.25C227.127 113.578 230.244 112.789 258.571 94.1897L258.695 94.2911C259.696 95.0008 260.945 94.2798 262.52 92.9842C262.981 92.714 263.316 92.2712 263.451 91.7536C263.586 91.2359 263.51 90.6857 263.24 90.2241C261.507 87.3964 250.629 87.2725 244.115 89.9988C241.267 91.3196 238.488 92.7861 235.79 94.3925C232.224 96.4203 228.162 98.7072 226.509 99.0227C224.641 99.0227 216.777 90.4607 210.567 82.5184C210.328 82.2107 209.948 82.0487 209.561 82.09C209.173 82.1313 208.835 82.37 208.666 82.7211L202.029 96.5104C201.815 96.9435 201.901 97.4647 202.242 97.806C202.274 97.8356 202.342 97.9012 202.444 97.9993C204.357 99.8441 218.169 113.161 226.137 113.578ZM226.261 111.325C219.567 110.931 207.204 99.3832 204.402 96.6794L209.881 85.2559C221.761 100.228 225.744 101.388 226.869 101.174C228.876 100.801 232.593 98.704 236.573 96.4592C236.675 96.4013 236.778 96.3432 236.881 96.2851C239.817 94.6178 242.855 92.8941 244.959 92.0041C251.292 89.3567 259.494 90.1565 261.069 91.1479C260.765 91.3958 260.517 91.5873 260.315 91.7337C260.233 91.595 260.131 91.4696 260.011 91.362C259.616 91.0727 259.079 91.0727 258.684 91.362C231.155 109.534 226.846 111.235 226.261 111.325Z" fill="#093F68"/>
<rect x="157.4" y="190.14" width="49.6575" height="7.81844" fill="#080C20"/>
<path fill-rule="evenodd" clip-rule="evenodd" d="M157.4 199.108H207.058C207.679 199.108 208.183 198.603 208.183 197.981V190.095C208.183 189.473 207.679 188.969 207.058 188.969H157.4C156.779 188.969 156.275 189.473 156.275 190.095V197.981C156.275 198.603 156.779 199.108 157.4 199.108ZM205.933 196.855H158.525V191.222H205.933V196.855Z" fill="#093F68"/>
<path d="M154.981 209.945H152.461C151.743 209.945 151.064 209.619 150.614 209.058C150.163 208.498 149.991 207.764 150.144 207.061L162.519 150.654H169.887L157.344 208.109C157.085 209.201 156.102 209.965 154.981 209.945Z" fill="#080C20"/>
<path fill-rule="evenodd" clip-rule="evenodd" d="M152.461 211.072H154.981C156.639 211.109 158.096 209.975 158.469 208.357L171.012 150.901C171.088 150.565 171.005 150.212 170.787 149.944C170.576 149.682 170.258 149.529 169.921 149.527H162.552C162.013 149.515 161.541 149.889 161.427 150.417L149.052 206.825C148.819 207.858 149.072 208.942 149.739 209.765C150.401 210.592 151.403 211.073 152.461 211.072ZM151.246 207.32L163.374 151.791H168.436L156.196 207.85C156.074 208.423 155.567 208.832 154.981 208.83H152.461C152.084 208.832 151.727 208.662 151.49 208.368C151.254 208.075 151.164 207.689 151.246 207.32Z" fill="#093F68"/>
<path d="M210.073 209.945H212.581C213.299 209.945 213.979 209.619 214.429 209.058C214.879 208.498 215.052 207.764 214.899 207.061L202.625 150.665H195.2L207.744 208.12C208.004 209.195 208.968 209.95 210.073 209.945Z" fill="#080C20"/>
<path fill-rule="evenodd" clip-rule="evenodd" d="M210.073 211.072H212.581L212.694 211.038C213.746 211.029 214.738 210.545 215.393 209.72C216.048 208.896 216.296 207.82 216.069 206.791L203.75 150.383C203.637 149.855 203.165 149.481 202.625 149.493H195.245C194.909 149.496 194.591 149.648 194.379 149.91C194.161 150.178 194.078 150.531 194.154 150.868L206.698 208.323C207.052 209.911 208.448 211.048 210.073 211.072ZM208.846 207.85L196.606 151.792H201.669L213.796 207.32C213.879 207.689 213.789 208.075 213.552 208.368C213.316 208.662 212.958 208.832 212.581 208.83H210.073C209.484 208.833 208.973 208.425 208.846 207.85Z" fill="#093F68"/>
<rect x="149.514" y="146.587" width="55.845" height="8.12261" rx="2.21" fill="#080C20"/>
<path fill-rule="evenodd" clip-rule="evenodd" d="M152 155.847H202.884C203.841 155.847 204.76 155.466 205.437 154.788C206.115 154.11 206.495 153.19 206.495 152.231V149.088C206.495 147.089 204.88 145.466 202.884 145.46H152C150.004 145.466 148.389 147.089 148.389 149.088V152.231C148.389 154.228 150.006 155.847 152 155.847ZM150.639 149.088C150.639 148.333 151.246 147.719 152 147.713H202.884C203.637 147.719 204.245 148.333 204.245 149.088V152.231C204.245 152.984 203.636 153.594 202.884 153.594H152C151.248 153.594 150.639 152.984 150.639 152.231V149.088Z" fill="#093F68"/>
<path d="M219.376 189.442C218.083 174.469 218.713 167.158 217.126 162.201C213.448 159.261 199.801 151.363 188.36 145.302C184.115 142.996 182.52 137.694 184.787 133.424C187.053 129.154 192.334 127.511 196.618 129.744C210.241 136.988 227.364 146.553 231.133 151.341C235.374 156.737 234.204 192.438 234.204 192.438L219.376 189.442Z" fill="#080C20"/>
<path fill-rule="evenodd" clip-rule="evenodd" d="M233.9 193.542C233.975 193.554 234.05 193.554 234.125 193.542L234.114 193.61C234.735 193.61 235.239 193.106 235.239 192.483C235.242 192.317 235.248 192.093 235.254 191.816C235.395 185.912 236.112 155.958 231.942 150.642C228.882 146.767 217.475 139.602 197.067 128.742C192.226 126.178 186.226 128.016 183.646 132.854C181.086 137.702 182.922 143.71 187.752 146.294C198.361 151.938 211.996 159.779 216.08 162.9C216.911 165.666 217.069 169.33 217.305 174.778L217.306 174.807C217.475 178.683 217.689 183.505 218.217 189.554C218.257 190.052 218.618 190.465 219.106 190.568L233.9 193.542ZM233.034 191.053L220.377 188.495H220.422C220.046 183.914 219.842 180.054 219.669 176.792C219.631 176.06 219.593 175.357 219.556 174.684L219.555 174.645C219.297 168.808 219.127 164.954 218.116 161.852C218.052 161.64 217.922 161.455 217.745 161.322C213.875 158.236 199.992 150.237 188.81 144.289C186.388 143.001 184.837 140.517 184.74 137.773C184.643 135.029 186.015 132.441 188.34 130.985C190.665 129.529 193.588 129.425 196.01 130.713C215.866 141.269 227.319 148.412 230.176 152.017C233.034 155.622 233.439 176.835 233.034 191.053Z" fill="#093F68"/>
<path d="M229.625 98.403C224.563 96.4428 207.89 79.8709 206.236 79.071L205.449 78.6992C199.928 76.2442 194.14 74.4408 188.203 73.3255C181.216 72.1989 173.926 72.5256 169.876 77.291C160.438 88.4103 159.999 120.833 159.999 120.833L203.075 128.719C205.948 120.372 208.204 111.825 209.825 103.146C214.876 107.371 221.649 112.249 226.183 112.485L229.625 98.403Z" fill="#080C20"/>
<path fill-rule="evenodd" clip-rule="evenodd" d="M202.839 129.812H203.041C203.529 129.818 203.965 129.509 204.121 129.046C206.814 121.242 208.987 113.267 210.624 105.174C217.284 110.548 222.515 113.364 226.16 113.555C226.69 113.571 227.158 113.214 227.285 112.699L230.66 98.6509C230.794 98.1013 230.501 97.5373 229.974 97.3328C226.949 96.1644 219.059 89.0019 213.456 83.9156C213.224 83.7052 212.996 83.4984 212.773 83.2957C208.779 79.6456 207.316 78.35 206.686 78.0458C206.686 78.0458 206.394 77.8881 205.854 77.6515C200.246 75.1499 194.363 73.3197 188.326 72.1989C179.191 70.7006 172.678 72.1651 168.965 76.5475C159.391 87.8358 158.84 119.459 158.84 120.799C158.831 121.35 159.221 121.827 159.763 121.926L202.839 129.812ZM202.288 127.401L161.113 119.898C161.281 114.502 162.519 87.6555 170.709 78.0233C173.881 74.2831 179.698 73.0776 188 74.4408C193.847 75.5328 199.545 77.31 204.976 79.7357L205.719 80.0737C206.155 80.3262 208.13 82.1193 210.259 84.0527C210.6 84.362 210.945 84.6748 211.288 84.9855C216.879 90.0889 224.383 96.9272 228.298 99.0339L225.35 111.212C221.964 110.581 216.778 107.438 210.568 102.256C210.257 101.988 209.826 101.911 209.443 102.053C209.065 102.193 208.79 102.523 208.723 102.921C207.163 111.224 205.012 119.405 202.288 127.401Z" fill="#093F68"/>
<path d="M210.061 101.862H209.836C209.544 101.802 209.287 101.628 209.122 101.379C208.958 101.13 208.899 100.825 208.959 100.532L211.209 89.796C211.333 89.1739 211.937 88.7703 212.559 88.8948C213.18 89.0192 213.583 89.6245 213.459 90.2467L211.209 100.983C211.089 101.516 210.606 101.886 210.061 101.862Z" fill="#093F68"/>
<path d="M187.471 94.1784C187.37 94.1893 187.268 94.1893 187.167 94.1784C186.879 94.0994 186.635 93.909 186.487 93.6491C186.339 93.3891 186.301 93.0811 186.38 92.7927C188.045 86.743 187.055 73.6409 187.044 73.4607C186.997 72.8385 187.463 72.2963 188.084 72.2496C188.706 72.203 189.247 72.6695 189.294 73.2917C189.294 73.8437 190.329 86.9683 188.551 93.3898C188.403 93.8616 187.965 94.1814 187.471 94.1784Z" fill="#093F68"/>
<path d="M203.041 100.329C202.903 100.326 202.766 100.299 202.636 100.251C202.357 100.145 202.132 99.9319 202.009 99.6593C201.887 99.3868 201.878 99.0767 201.984 98.7973C204.234 92.4072 205.025 85.5937 204.301 78.857C204.214 78.241 204.642 77.6711 205.258 77.5839C205.555 77.5423 205.856 77.6212 206.095 77.8032C206.333 77.9851 206.49 78.2549 206.529 78.5528C207.333 85.6622 206.497 92.8616 204.088 99.5972C203.924 100.035 203.508 100.326 203.041 100.329Z" fill="#093F68"/>
<path d="M179.866 1.95693C174.084 0.75149 167.952 2.76806 163.273 6.24918C159.639 8.95296 156.522 13.0086 156.916 17.391C157.218 19.4638 157.836 21.4776 158.75 23.3619C159.681 25.2515 160.097 27.3543 159.954 29.4566C159.714 31.6365 158.087 33.4073 155.938 33.8278C158.737 35.7304 162.193 36.4021 165.5 35.6866C168.767 34.941 171.569 32.851 173.218 29.9298C173.581 28.9266 174.255 28.0661 175.141 27.4739C175.604 27.2851 176.094 27.1747 176.593 27.1472C180.119 26.8666 183.495 25.5978 186.335 23.4858C194.75 16.6024 189.879 4.07489 179.866 1.95693Z" fill="#080C20"/>
<path fill-rule="evenodd" clip-rule="evenodd" d="M155.375 34.7853C157.592 36.2936 160.21 37.1019 162.89 37.1061C163.88 37.1269 164.868 37.0362 165.838 36.8357C169.42 36.0288 172.492 33.7352 174.286 30.5269L174.5 30.1213C174.703 29.4763 175.095 28.9073 175.625 28.4878C175.987 28.3566 176.366 28.2806 176.75 28.2624C180.514 27.9806 184.116 26.6152 187.123 24.3307C190.928 21.3114 192.603 16.3325 191.398 11.6229C190.007 6.17977 185.641 2.00515 180.148 0.864118C174.545 -0.262458 167.998 1.38234 162.654 5.37042C157.985 8.84027 155.51 13.2564 155.836 17.4924C156.078 19.4462 156.633 21.3482 157.479 23.1253L157.783 23.8575C158.62 25.5678 159.008 27.4642 158.908 29.3665C158.717 31.026 157.498 32.3827 155.87 32.7462C155.407 32.8023 155.027 33.1383 154.914 33.5911C154.805 34.0465 154.988 34.5219 155.375 34.7853ZM165.298 34.5825C163.04 35.0792 160.686 34.8748 158.548 33.9967C159.921 32.9322 160.831 31.3788 161.09 29.6594C161.265 27.3591 160.826 25.0536 159.819 22.9788L159.515 22.2353C158.767 20.6818 158.266 19.0207 158.03 17.3121C157.648 12.4228 162.046 8.59243 163.948 7.17294C168.796 3.5679 174.658 2.04702 179.641 3.08347C184.318 4.03059 188.034 7.58537 189.193 12.22C190.207 16.0896 188.823 20.1927 185.671 22.6521C182.977 24.637 179.772 25.8097 176.435 26.0318C175.842 26.0762 175.261 26.217 174.714 26.4487C173.701 27.0323 172.91 27.9356 172.464 29.0172L172.273 29.389C170.783 32.0277 168.25 33.9138 165.298 34.5825Z" fill="#093F68"/>
<path d="M194.368 3.80448C189.906 2.88658 185.263 3.73015 181.408 6.15902C177.589 8.61298 174.637 12.2073 172.97 16.4334C171.893 18.9147 171.437 21.6217 171.643 24.3194C171.873 27.0194 173.174 29.5144 175.254 31.2479C175.874 31.8103 176.668 32.1407 177.504 32.1829C178.066 32.1379 178.616 31.989 179.124 31.7436C186.875 28.4361 193.39 22.7679 197.743 15.5434C200.296 11.2737 200.049 5.07751 194.368 3.80448Z" fill="#080C20"/>
<path fill-rule="evenodd" clip-rule="evenodd" d="M174.556 32.2055C175.367 32.9016 176.391 33.2992 177.459 33.332L177.492 33.3771C178.199 33.3348 178.891 33.155 179.529 32.8476C187.494 29.4439 194.185 23.6139 198.654 16.1855C200.465 13.4192 200.881 9.96444 199.779 6.84624C198.852 4.70167 196.913 3.16575 194.615 2.75677C189.869 1.76578 184.924 2.65839 180.822 5.2465C176.796 7.82152 173.682 11.6019 171.924 16.0504C170.78 18.6997 170.302 21.5888 170.529 24.4659C170.778 27.4828 172.23 30.2723 174.556 32.2055ZM182.004 7.11661C184.662 5.46016 187.726 4.57128 190.857 4.54802C191.957 4.53798 193.055 4.64752 194.131 4.87473C195.716 5.13797 197.062 6.18449 197.709 7.65737C198.526 10.1036 198.178 12.7901 196.764 14.9463C192.548 21.9844 186.215 27.5055 178.674 30.7184C178.301 30.9097 177.897 31.0318 177.481 31.0789C176.906 31.0262 176.364 30.7846 175.94 30.3917C174.094 28.8326 172.95 26.5958 172.767 24.1842C172.573 21.6738 173.002 19.1542 174.016 16.8502C175.591 12.8455 178.386 9.43958 182.004 7.11661Z" fill="#093F68"/>
<path d="M202.94 4.91982C208.126 5.0888 212.862 6.94765 215.765 11.3864C219.14 9.78662 222.931 12.3102 225.327 15.1153C229.873 20.5051 232.434 27.2931 232.584 34.346C232.741 43.5501 228.657 52.4951 222.594 59.4123C219.364 63.2272 215.37 66.3206 210.871 68.4925C206.32 70.6648 201.19 71.305 196.246 70.3175C182.476 67.2645 174.084 50.3096 172.509 37.4553C170.349 19.3738 184.794 4.334 202.94 4.91982Z" fill="#080C20"/>
<path fill-rule="evenodd" clip-rule="evenodd" d="M196.066 71.4103C197.588 71.7507 199.142 71.9207 200.701 71.9173C204.373 71.8953 207.997 71.0887 211.333 69.5515C215.993 67.3129 220.126 64.1107 223.46 60.1559C230.233 52.4275 233.889 43.2572 233.731 34.3347C233.599 27.0167 230.94 19.9705 226.205 14.3943C223.708 11.454 219.871 8.88539 216.204 10.012C213.301 6.12528 208.756 3.98479 202.996 3.79327C193.927 3.4449 185.159 7.08775 179 13.7635C173.074 20.1978 170.309 28.9354 171.451 37.6131C173.184 51.7291 182.398 68.3799 196.066 71.4103ZM180.643 15.2843C186.125 9.33798 193.857 5.98026 201.939 6.03516L202.906 6.04642C206.641 6.17035 211.738 7.29692 214.831 12.006C215.141 12.4715 215.744 12.6393 216.249 12.4003C219.028 11.071 222.414 13.4255 224.473 15.8476C228.836 21.0463 231.301 27.579 231.459 34.3685C231.605 42.7277 228.151 51.3573 221.75 58.6688C218.624 62.3656 214.756 65.3632 210.399 67.4673C206.092 69.5303 201.233 70.1428 196.55 69.2135C183.894 66.4083 175.321 50.6926 173.69 37.3202C172.622 29.3052 175.17 21.2301 180.643 15.2843Z" fill="#093F68"/>
<path d="M194.735 72.5673L201.037 73.8146C201.348 73.8761 201.55 74.1783 201.489 74.4896L200.863 77.6615C200.456 79.7246 198.455 81.0665 196.395 80.6588C194.335 80.251 192.995 78.248 193.402 76.1849L194.028 73.013C194.09 72.7017 194.391 72.4992 194.702 72.5607L194.735 72.5673Z" fill="#080C20"/>
<path fill-rule="evenodd" clip-rule="evenodd" d="M196.224 81.7523C196.542 81.8163 196.866 81.8465 197.191 81.8424L197.236 81.7973C199.582 81.7884 201.596 80.1248 202.051 77.8205L202.681 74.6549C202.763 74.213 202.67 73.7566 202.422 73.3818C202.167 72.9917 201.758 72.7294 201.297 72.6608L194.964 71.3991C194.522 71.3185 194.067 71.4113 193.692 71.6582C193.305 71.9156 193.044 72.3245 192.972 72.7847L192.342 75.9617C191.819 78.6336 193.556 81.225 196.224 81.7523ZM194.547 76.3898L195.065 73.7649L200.307 74.79L199.79 77.4262C199.659 78.122 199.254 78.7354 198.665 79.1274C198.073 79.523 197.35 79.6687 196.651 79.5329C195.958 79.3974 195.347 78.9923 194.952 78.4064C194.557 77.8139 194.412 77.0892 194.547 76.3898Z" fill="#093F68"/>
<ellipse cx="219.688" cy="59.7026" rx="6.37608" ry="5.6928" transform="rotate(-78.82 219.688 59.7026)" fill="#080C20"/>
<path fill-rule="evenodd" clip-rule="evenodd" d="M218.274 67.0505C218.678 67.1302 219.088 67.1717 219.5 67.1744C220.917 67.1533 222.29 66.6753 223.415 65.8112C224.945 64.6332 225.99 62.9333 226.351 61.0346C227.15 56.9789 224.799 53.0809 221.109 52.3487C219.272 51.9954 217.372 52.4556 215.9 53.6104C212.768 56.0696 211.907 60.4547 213.875 63.9186C214.814 65.5555 216.421 66.6996 218.274 67.0505ZM219.932 54.4783C219.942 54.4781 219.952 54.478 219.961 54.4779H219.916C219.922 54.478 219.927 54.4782 219.932 54.4783ZM217.329 55.3904C218.077 54.8146 218.989 54.495 219.932 54.4783C220.208 54.4861 220.481 54.5237 220.749 54.5906C223.213 55.075 224.776 57.7788 224.214 60.6177C223.953 61.9599 223.213 63.1612 222.133 63.9975C221.175 64.7733 219.923 65.0834 218.715 64.844C217.507 64.6047 216.468 63.8406 215.878 62.7582C214.49 60.2785 215.105 57.1568 217.329 55.3904Z" fill="#093F68"/>
<path d="M196.123 76.2095C183.871 73.7761 175.873 56.4607 178.269 44.3725L180.969 46.0624L182.555 37.4891C182.555 37.4891 213.481 35.4162 212.93 27.8682L225.305 36.5203L220.996 58.3758C218.521 70.4527 208.385 78.6317 196.123 76.2095Z" fill="#080C20"/>
<path fill-rule="evenodd" clip-rule="evenodd" d="M195.942 77.3136C197.424 77.6091 198.931 77.7601 200.442 77.7642C210.984 77.7642 219.702 70.2725 222.076 58.511L226.385 36.6667C226.465 36.2332 226.284 35.793 225.924 35.5402L213.549 26.8881C213.192 26.6375 212.723 26.6156 212.345 26.8317C211.946 27.0574 211.723 27.5031 211.782 27.9583C211.803 28.5019 211.595 29.0293 211.209 29.4116C207.44 33.794 189.26 35.9119 182.51 36.3626C181.994 36.3957 181.567 36.7768 181.475 37.2864L180.192 44.2261L178.899 43.4149C178.584 43.2174 178.193 43.1879 177.852 43.3361C177.513 43.4857 177.269 43.7934 177.2 44.1585C174.736 56.6409 183.061 74.7563 195.942 77.3136ZM219.804 58.1956C217.43 70.1936 207.597 77.3474 196.347 75.0942L196.381 75.1168C187.021 73.2917 177.459 59.5813 179.146 46.2539L180.406 47.0425C180.723 47.2363 181.114 47.2616 181.452 47.1101C181.792 46.9605 182.036 46.6528 182.105 46.2877L183.534 38.5707C188.45 38.1989 208.216 36.3626 212.919 30.8987C213.209 30.5553 213.454 30.1768 213.65 29.7721L224 37.0272L219.804 58.1956Z" fill="#093F68"/>
<ellipse cx="195.47" cy="50.4957" rx="2.06153" ry="2.05886" transform="rotate(-78.82 195.47 50.4957)" fill="#093F68"/>
<ellipse cx="214.932" cy="54.3427" rx="2.05875" ry="2.06163" fill="#093F68"/>
<path d="M206.562 58.8378C205.349 58.7831 204.152 58.532 203.019 58.0942C202.643 57.9493 202.373 57.6147 202.31 57.2163C202.248 56.818 202.402 56.4164 202.715 56.163C203.028 55.9095 203.453 55.8426 203.829 55.9875C204.603 56.2829 205.412 56.4761 206.236 56.5621C206.161 55.0313 205.889 53.5166 205.426 52.0558C205.312 51.6694 205.412 51.2512 205.689 50.9586C205.965 50.6661 206.377 50.5437 206.769 50.6375C207.16 50.7314 207.472 51.0272 207.586 51.4136C208.284 53.7907 208.925 56.8888 208.047 58.1731C207.773 58.5789 207.322 58.8298 206.832 58.849L206.562 58.8378Z" fill="#093F68"/>
<path d="M200.24 46.8059C200.079 46.8225 199.917 46.8225 199.756 46.8059L190.149 44.733C188.956 44.4515 188.208 43.2663 188.465 42.0667C188.722 40.8671 189.891 40.0942 191.094 40.3281L200.713 42.401C201.955 42.5316 202.857 43.6463 202.726 44.8907C202.596 46.1351 201.483 47.0379 200.24 46.9073V46.8059Z" fill="#093F68"/>
<path d="M218.544 49.1605H218.308L208.531 48.1466C207.289 48.0221 206.382 46.9125 206.506 45.6681C206.631 44.4237 207.739 43.5158 208.981 43.6403L218.769 44.6316C219.363 44.6941 219.907 44.9904 220.283 45.4553C220.659 45.9201 220.834 46.5155 220.771 47.1101C220.667 48.2661 219.703 49.1536 218.544 49.1605Z" fill="#093F68"/>
<path d="M182.375 46.7834C182.375 46.7834 177.774 42.0292 173.96 46.2313C170.146 50.4335 171.316 59.0856 180.609 58.4659" fill="#080C20"/>
<path d="M179.698 59.6263C175.873 59.6263 172.948 58.0378 171.564 55.1876C170.109 51.9273 170.713 48.114 173.105 45.4653C174.175 44.1806 175.744 43.4176 177.414 43.3698C180.485 43.3022 183.039 45.8934 183.163 46.006C183.479 46.2861 183.612 46.72 183.507 47.1297C183.403 47.5394 183.078 47.8558 182.666 47.9491C182.254 48.0423 181.824 47.8967 181.554 47.572C180.451 46.4666 179 45.7779 177.448 45.623C176.395 45.6777 175.418 46.1875 174.77 47.0199C172.997 48.987 172.535 51.8104 173.589 54.2413C174.714 56.4944 177.121 57.621 180.508 57.3732C181.129 57.3327 181.665 57.8043 181.706 58.4265C181.746 59.0487 181.275 59.5859 180.654 59.6263H179.698Z" fill="#093F68"/>
<path d="M200.668 69.0107C200.34 69.0102 200.013 68.9877 199.689 68.9431C196.179 68.4249 193.378 65.2141 191.364 59.401C191.231 59.0207 191.311 58.5983 191.574 58.2931C191.836 57.9879 192.242 57.8462 192.637 57.9214C193.032 57.9965 193.357 58.2771 193.49 58.6575C195.211 63.6144 197.394 66.3294 200.015 66.7125C204.718 67.3997 209.69 60.5726 209.735 60.505C209.909 60.2607 210.173 60.096 210.469 60.0474C210.764 59.9987 211.067 60.0702 211.31 60.2459C211.811 60.6081 211.927 61.3073 211.569 61.8119C211.344 62.1273 206.338 69.0107 200.668 69.0107Z" fill="#093F68"/>
<path d="M203.041 128.685L207.845 112.451L205.032 91.7788L186.301 85.2447L161.427 102.752L159.965 120.844C159.965 120.844 153.091 132.741 156.59 141.247C160.089 149.752 217.97 166.031 217.97 166.031L230.615 144.412L203.041 128.685Z" fill="#080C20"/>
<path fill-rule="evenodd" clip-rule="evenodd" d="M217.711 167.147C217.812 167.163 217.914 167.163 218.015 167.147C218.438 167.194 218.852 166.998 219.084 166.64L231.717 145.021C231.867 144.762 231.908 144.454 231.83 144.165C231.752 143.874 231.562 143.627 231.301 143.477L204.459 128.19L208.959 112.823C208.992 112.667 208.992 112.506 208.959 112.35L206.146 91.6774C206.09 91.2576 205.803 90.9051 205.404 90.7649L186.672 84.2194C186.331 84.1029 185.955 84.1574 185.66 84.3659L160.786 101.873C160.513 102.066 160.339 102.372 160.314 102.707L158.862 120.552C157.839 122.32 152.112 133.361 155.589 141.731C159.211 150.485 211.737 165.468 217.711 167.147ZM161.09 120.912L162.507 103.349L186.481 86.4501L204.009 92.6237L206.697 112.361L201.961 128.347C201.814 128.847 202.028 129.383 202.479 129.643L229.107 144.795L217.486 164.679C176.041 152.963 158.997 143.984 157.67 140.796C154.385 132.91 160.876 121.498 160.944 121.385C161.027 121.24 161.077 121.079 161.09 120.912Z" fill="#093F68"/>
<path d="M250.426 107.945L278.461 125.655V133.721L246.5 111.336L250.426 107.945Z" fill="#093F68"/>
<path fill-rule="evenodd" clip-rule="evenodd" d="M277.82 134.69C278.008 134.822 278.232 134.892 278.461 134.893C278.641 134.894 278.819 134.851 278.979 134.769C279.353 134.575 279.587 134.188 279.586 133.766V125.711C279.587 125.322 279.387 124.96 279.058 124.754L251.034 107.055C250.617 106.786 250.073 106.823 249.695 107.145L245.769 110.525C245.504 110.752 245.36 111.089 245.378 111.437C245.395 111.785 245.573 112.106 245.859 112.305L277.82 134.69ZM277.336 131.513L248.334 111.235L250.528 109.331L277.336 126.23V131.513Z" fill="#093F68"/>
<path d="M289.171 201.169H274.783V92.3308L289.171 87.6443V201.169Z" fill="#093F68"/>
<path fill-rule="evenodd" clip-rule="evenodd" d="M274.782 202.296H289.171C289.793 202.296 290.296 201.791 290.296 201.169V87.6443C290.315 87.2738 290.15 86.9179 289.855 86.6928C289.561 86.4677 289.175 86.4022 288.822 86.5177L274.434 91.2042C273.951 91.3613 273.633 91.8229 273.657 92.3308V201.169C273.657 201.791 274.161 202.296 274.782 202.296ZM288.046 200.043H275.907V93.142L288.046 89.1877V200.043Z" fill="#093F68"/>
<rect x="259.46" y="200.02" width="45.0337" height="9.24919" rx="3.23" fill="#093F68"/>
<path fill-rule="evenodd" clip-rule="evenodd" d="M263.094 210.373H300.849C302.118 210.373 303.334 209.867 304.23 208.966C305.125 208.066 305.625 206.845 305.619 205.574V203.614C305.613 200.98 303.479 198.849 300.849 198.849H263.094C260.468 198.855 258.341 200.985 258.335 203.614V205.597C258.335 208.23 260.464 210.367 263.094 210.373ZM260.585 203.637C260.585 202.249 261.708 201.124 263.094 201.124L300.849 201.102C301.516 201.099 302.157 201.362 302.63 201.834C303.103 202.305 303.369 202.946 303.369 203.614V205.597C303.369 206.266 303.103 206.908 302.631 207.381C302.158 207.854 301.517 208.12 300.849 208.12H263.094C261.706 208.114 260.585 206.986 260.585 205.597V203.637Z" fill="#093F68"/>
<ellipse cx="281.971" cy="100.239" rx="3.79125" ry="3.79656" fill="#080C20"/>
<path fill-rule="evenodd" clip-rule="evenodd" d="M277.044 100.239C277.044 102.965 279.25 105.174 281.971 105.174C284.693 105.174 286.899 102.965 286.899 100.239C286.899 97.5142 284.693 95.305 281.971 95.305C279.25 95.305 277.044 97.5142 277.044 100.239ZM279.497 99.2272C279.91 98.2239 280.887 97.5694 281.971 97.5694C283.446 97.5694 284.643 98.763 284.649 100.239C284.653 101.325 284.004 102.306 283.004 102.725C282.004 103.143 280.85 102.917 280.082 102.151C279.314 101.385 279.083 100.231 279.497 99.2272Z" fill="#093F68"/>
<ellipse cx="281.971" cy="198.849" rx="3.79125" ry="3.79656" fill="#080C20"/>
<path fill-rule="evenodd" clip-rule="evenodd" d="M277.066 198.841C277.062 201.559 279.258 203.765 281.971 203.772C283.277 203.775 284.53 203.257 285.455 202.334C286.379 201.41 286.899 200.156 286.899 198.849C286.899 196.131 284.7 193.927 281.986 193.925C279.273 193.923 277.07 196.124 277.066 198.841ZM279.316 198.856C279.312 197.383 280.5 196.185 281.971 196.179C283.446 196.179 284.643 197.372 284.649 198.849C284.649 200.322 283.457 201.516 281.986 201.518C280.515 201.521 279.32 200.329 279.316 198.856Z" fill="#093F68"/>
<path d="M213.641 118.97L326.856 60.403L330.749 67.9499L217.534 126.516L213.641 118.97Z" fill="#080C20"/>
<path fill-rule="evenodd" clip-rule="evenodd" d="M216.541 127.018C216.735 127.393 217.121 127.627 217.542 127.626C217.73 127.642 217.918 127.615 218.094 127.548L331.302 68.9657C331.565 68.8289 331.763 68.5942 331.854 68.3123C331.948 68.0257 331.924 67.7132 331.786 67.4448L327.882 59.8967C327.598 59.3486 326.925 59.1325 326.375 59.4123L213.132 117.949C212.866 118.084 212.663 118.319 212.57 118.603C212.479 118.891 212.507 119.203 212.649 119.47L216.541 127.018ZM218.026 124.979L215.157 119.436L326.375 61.8908L329.232 67.4335L218.026 124.979Z" fill="#093F68"/>
<path d="M219.376 189.442V207.163C219.376 207.163 246.253 212.322 244.126 208.289C242 204.256 233.484 201.98 233.484 201.98L234.193 192.382L219.376 189.442Z" fill="#080C20"/>
<path fill-rule="evenodd" clip-rule="evenodd" d="M219.163 208.267C229.614 210.272 235.903 210.914 239.671 210.914C243.316 210.914 244.61 210.373 245.015 209.754C245.428 209.174 245.459 208.405 245.094 207.794C243.159 204.189 236.983 201.935 234.643 201.203L235.284 192.506C235.329 191.937 234.942 191.424 234.384 191.312L219.601 188.338C219.272 188.269 218.929 188.352 218.668 188.563C218.403 188.778 218.25 189.101 218.251 189.442V207.14C218.241 207.688 218.626 208.163 219.163 208.267ZM242.956 208.481C240.538 209.269 229.974 207.985 220.546 206.228V190.816L233.011 193.328L232.381 201.935C232.362 202.456 232.702 202.922 233.203 203.062C235.351 203.648 241.1 205.709 242.956 208.481Z" fill="#093F68"/>
<path d="M228.916 111.043L226.7 105.692L313.1 61.5303L315.823 66.0816L228.916 111.043Z" fill="#080C20"/>
<path fill-rule="evenodd" clip-rule="evenodd" d="M228.523 112.102C228.649 112.148 228.782 112.171 228.916 112.17C229.099 112.16 229.277 112.106 229.434 112.012L316.34 67.0505C316.616 66.9057 316.82 66.6528 316.903 66.352C316.986 66.056 316.946 65.7385 316.79 65.4733L314.068 60.967C313.765 60.4589 313.121 60.2719 312.594 60.5389L226.138 104.689C225.621 104.96 225.396 105.581 225.62 106.12L227.87 111.483C227.992 111.771 228.228 111.996 228.523 112.102ZM229.49 109.489L228.14 106.222L312.673 63.0173L314.236 65.631L229.49 109.489Z" fill="#093F68"/>
<path d="M235.79 63.4567L232.584 65.676L248.694 88.9849L251.945 86.7317L235.79 63.4567Z" fill="#080C20"/>
<path fill-rule="evenodd" clip-rule="evenodd" d="M247.828 89.627C248.037 89.9299 248.382 90.1109 248.75 90.1115C248.982 90.1044 249.206 90.0257 249.391 89.8862L252.643 87.633C252.881 87.4538 253.045 87.1932 253.104 86.9007C253.158 86.6063 253.094 86.3023 252.924 86.0558L236.769 62.7807C236.414 62.2713 235.715 62.1453 235.205 62.4991L231.999 64.7523C231.49 65.1074 231.364 65.8078 231.718 66.3182L247.828 89.627ZM248.964 87.419L234.125 65.9577L235.486 65.0452L250.348 86.4501L248.964 87.419Z" fill="#093F68"/>
<path d="M203.041 97.3553L230.289 82.7098C230.289 82.7098 232.753 77.9219 234.361 76.6376C236.218 75.1393 237.556 73.5282 238.141 74.2493C238.638 74.825 239.019 75.4903 239.266 76.2095C239.39 76.6038 239.323 77.2685 239.739 77.4825C240.673 77.9782 243.474 75.7814 244.239 75.3082C244.543 75.1167 244.88 74.8463 244.858 74.4858C244.835 74.1253 244.048 73.731 243.969 73.2015C244.735 72.7533 245.656 72.6549 246.5 72.9312C247.105 73.1782 247.582 73.6627 247.82 74.2716C248.058 74.8806 248.036 75.5606 247.76 76.1532C247.265 77.2797 245.983 78.1134 245.645 79.1949C245.54 79.6186 245.491 80.0541 245.499 80.4905C245.508 82.0537 245.226 83.6049 244.666 85.0644C243.08 88.7821 238.051 89.6946 234.541 90.9C234.541 90.9 205.066 114.051 201.275 114.051" fill="#080C20"/>
<path d="M201.309 115.144C200.687 115.144 200.184 114.64 200.184 114.017C200.184 113.395 200.687 112.891 201.309 112.891C203.559 112.767 219.658 101.152 233.934 89.9763C234.03 89.8965 234.141 89.8354 234.26 89.7961C234.845 89.5933 235.475 89.4018 236.128 89.199C239.143 88.2639 242.551 87.2162 243.676 84.5913C244.19 83.2667 244.442 81.8549 244.419 80.4342C244.413 79.8905 244.481 79.3486 244.621 78.8232C244.913 78.0682 245.357 77.3817 245.926 76.8066C246.256 76.4703 246.54 76.0915 246.77 75.6801C246.928 75.3212 246.928 74.9124 246.77 74.5535C246.661 74.2772 246.44 74.0602 246.163 73.9564C246.064 73.9232 245.962 73.9005 245.859 73.8888C245.929 74.0658 245.974 74.2515 245.994 74.4408C246.003 75.2216 245.566 75.939 244.869 76.2884L244.396 76.6151C242.349 78.0571 240.538 79.195 239.255 78.5078C238.667 78.1383 238.301 77.5011 238.276 76.8066C238.282 76.7279 238.282 76.6488 238.276 76.5701C238.136 76.1642 237.931 75.7838 237.669 75.4435C237.354 75.6801 236.893 76.0856 236.544 76.4123C236.195 76.739 235.655 77.1897 235.16 77.5389C234.125 78.3613 232.303 81.4819 231.391 83.2506C231.285 83.4526 231.12 83.6176 230.919 83.7238L203.671 98.3693C203.125 98.6804 202.429 98.4887 202.119 97.9412C201.808 97.3937 202 96.6976 202.546 96.3865L229.546 81.9326C230.176 80.806 232.213 77.0545 233.754 75.8152C234.226 75.4435 234.654 75.0604 235.048 74.6887C236.173 73.6522 237.061 72.9087 238.018 72.9875C238.457 73.0122 238.865 73.2207 239.143 73.5621C239.734 74.2487 240.185 75.0448 240.47 75.9054C240.518 76.0559 240.552 76.2105 240.571 76.3673C241.495 75.9203 242.373 75.3846 243.193 74.7675L243.575 74.5084C243.254 74.2105 243.04 73.8143 242.968 73.3818C242.904 72.9316 243.117 72.4872 243.508 72.2553C244.556 71.5988 245.842 71.442 247.018 71.8272C247.891 72.1369 248.591 72.8049 248.941 73.6635C249.34 74.5911 249.34 75.6424 248.941 76.5701C248.626 77.1934 248.22 77.7667 247.738 78.2712C247.386 78.6254 247.097 79.0368 246.883 79.4879C246.81 79.7826 246.776 80.0856 246.781 80.3891C246.792 82.1218 246.479 83.8412 245.859 85.4587C244.329 89.0412 240.234 90.3143 236.859 91.3395L235.239 91.8577C227.96 97.4906 205.156 115.144 201.309 115.144Z" fill="#093F68"/>
<path d="M167.75 93.0518C191.51 127.322 207.879 112.451 207.879 112.451C207.586 110.638 206.866 106.819 206.506 105.016C205.932 102.019 205.291 99.0227 204.841 96.0034L203.075 96.961C203.075 96.961 191.431 88.2864 182.645 80.3666" fill="#080C20"/>
<path d="M198.125 116.789C197.373 116.791 196.622 116.75 195.875 116.665C186.358 115.538 176.548 107.844 166.738 93.694C166.508 93.362 166.474 92.9327 166.646 92.568C166.819 92.2033 167.173 91.9585 167.574 91.9259C167.976 91.8932 168.365 92.0777 168.594 92.4097C177.853 105.771 187.359 113.387 196.066 114.412C199.748 114.944 203.495 114.081 206.574 111.99C206.248 110.097 205.663 106.965 205.314 105.23L204.943 103.337C204.583 101.512 204.2 99.6423 203.896 97.7046L203.514 97.9074C203.129 98.1137 202.66 98.0786 202.31 97.8173C202.198 97.7271 190.52 89.03 181.801 81.1552C181.339 80.7411 181.299 80.0306 181.711 79.5668C181.912 79.3427 182.194 79.2083 182.494 79.1935C182.794 79.1787 183.087 79.2847 183.309 79.4879C190.858 86.2473 200.634 93.7391 203.086 95.5867L204.211 94.967C204.535 94.7944 204.922 94.7905 205.249 94.9564C205.576 95.1224 205.802 95.4374 205.854 95.8007C206.203 98.144 206.675 100.532 207.136 102.842L207.519 104.734C207.901 106.717 208.644 110.457 208.891 112.215C208.953 112.59 208.822 112.971 208.543 113.229C205.59 115.593 201.905 116.852 198.125 116.789Z" fill="#093F68"/>
<path fill-rule="evenodd" clip-rule="evenodd" d="M252.699 93.018C252.885 93.1433 253.104 93.21 253.329 93.2095C253.563 93.208 253.791 93.1332 253.981 92.9955C254.364 92.7245 254.539 92.2442 254.42 91.79L253.025 86.4501C252.931 86.0966 252.672 85.8107 252.33 85.683C251.988 85.5554 251.605 85.6019 251.304 85.8079L248.052 88.0611C247.747 88.2735 247.566 88.6235 247.569 88.9961C247.574 89.369 247.764 89.7149 248.075 89.9199L252.699 93.018ZM251.495 89.5031L250.696 88.9623L251.259 88.5793L251.495 89.5031Z" fill="#093F68"/>
<path d="M320.019 195.604C320.019 195.604 312.695 180.643 313.719 170.538C317.856 172.82 320.976 176.588 322.449 181.082C326.78 193.126 325.824 195.615 325.824 195.615L320.019 195.604Z" fill="#080C20"/>
<path fill-rule="evenodd" clip-rule="evenodd" d="M320.019 196.742H325.779C326.237 196.744 326.651 196.468 326.825 196.043C327.016 195.559 327.77 192.562 323.506 180.711C320.536 172.487 314.439 169.636 314.18 169.524C313.85 169.377 313.469 169.398 313.156 169.58C312.842 169.759 312.633 170.077 312.594 170.436C311.559 180.745 318.702 195.491 319.017 196.111C319.205 196.494 319.593 196.738 320.019 196.742ZM324.766 194.489H320.739L320.75 194.477C319.49 191.762 314.709 180.846 314.742 172.453C317.824 174.708 320.144 177.853 321.391 181.466C324.294 189.521 324.766 193.126 324.766 194.489Z" fill="#093F68"/>
<path d="M323.506 194.883C323.506 194.883 318.005 173.557 325.914 159.272C325.914 159.272 330.47 164.499 331.539 177.117C332.125 183.138 330.99 189.202 328.265 194.601L323.506 194.883Z" fill="#080C20"/>
<path fill-rule="evenodd" clip-rule="evenodd" d="M322.381 195.165C322.513 195.675 322.98 196.026 323.506 196.01H323.551L328.31 195.683C328.679 195.656 329.011 195.45 329.199 195.131C332.057 189.552 333.252 183.267 332.641 177.027C331.539 164.173 326.926 158.765 326.724 158.54C326.483 158.262 326.122 158.119 325.757 158.157C325.392 158.195 325.068 158.41 324.89 158.731C316.857 173.23 322.156 194.275 322.381 195.165ZM324.384 193.689C323.517 189.656 320.502 173.467 326.049 161.491C327.399 163.778 329.75 168.803 330.436 177.218C330.929 182.799 329.939 188.412 327.567 193.486L324.384 193.689Z" fill="#093F68"/>
<path d="M325.88 194.207C325.88 194.207 327.59 179.978 339.076 170.684C339.076 170.684 342.451 181.285 332.968 195.469L325.88 194.207Z" fill="#080C20"/>
<path fill-rule="evenodd" clip-rule="evenodd" d="M332.776 196.595C332.84 196.606 332.904 196.606 332.967 196.595C333.338 196.601 333.687 196.424 333.901 196.122C343.587 181.634 340.291 170.819 340.145 170.369C340.034 170.014 339.754 169.737 339.399 169.629C339.043 169.52 338.657 169.595 338.367 169.828C326.656 179.302 324.834 193.497 324.766 194.106C324.698 194.698 325.102 195.242 325.689 195.345L332.776 196.595ZM332.439 194.23L327.174 193.295C327.792 190.095 330.267 180.17 338.356 172.825C338.806 176.204 338.907 184.248 332.439 194.23Z" fill="#093F68"/>
<path d="M333.755 210.204H319.287L317.15 192.574H335.892L333.755 210.204Z" fill="#080C20"/>
<path fill-rule="evenodd" clip-rule="evenodd" d="M319.288 211.331H333.755C334.312 211.332 334.785 210.925 334.869 210.373L336.995 192.709C337.034 192.391 336.936 192.071 336.725 191.83C336.512 191.587 336.204 191.447 335.881 191.447H317.139C316.816 191.447 316.508 191.587 316.295 191.83C316.084 192.071 315.986 192.391 316.025 192.709L318.163 210.34C318.231 210.909 318.715 211.335 319.288 211.331ZM332.72 209.078H320.255L318.388 193.7H334.588L332.72 209.078Z" fill="#093F68"/>
<path d="M343.621 211.331H140.379C139.757 211.331 139.254 210.827 139.254 210.204C139.254 209.582 139.757 209.078 140.379 209.078H343.621C344.243 209.078 344.746 209.582 344.746 210.204C344.746 210.827 344.243 211.331 343.621 211.331Z" fill="#093F68"/>
<path d="M19.524 110.609H50.319V114.027C50.319 119.832 45.5718 124.538 39.7158 124.538H30.1273C24.2712 124.538 19.524 119.832 19.524 114.027V110.609Z" fill="#093F68"/>
<path fill-rule="evenodd" clip-rule="evenodd" d="M30.1273 125.564H39.7158C46.143 125.559 51.3535 120.398 51.3649 114.027V110.609C51.3649 110.042 50.9013 109.582 50.3294 109.582H19.524C18.9521 109.582 18.4885 110.042 18.4885 110.609V114.027C18.4999 120.394 23.7041 125.553 30.1273 125.564ZM20.5595 114.027V111.635H49.2939V114.027C49.2882 119.267 45.0016 123.511 39.7158 123.511H30.1273C24.8455 123.506 20.5652 119.263 20.5595 114.027Z" fill="#093F68"/>
<path d="M67.6943 51.7503C67.7046 37.78 58.5871 25.4118 45.1572 21.1777C31.7273 16.9437 17.0778 21.819 8.94564 33.2287C0.813502 44.6384 1.07151 59.9549 9.58341 71.0891C15.8429 79.2474 19.2393 89.2111 19.2548 99.461H51.4684C51.3711 89.3229 54.6829 79.4414 60.8809 71.3766C65.2953 65.7702 67.6935 58.8623 67.6943 51.7503Z" fill="#080C20"/>
<path fill-rule="evenodd" clip-rule="evenodd" d="M19.2548 100.488H51.4684C51.743 100.488 52.0064 100.379 52.2006 100.187C52.3948 99.9944 52.5039 99.7333 52.5039 99.461C52.4314 89.5788 55.665 79.9515 61.6989 72.0848C66.2774 66.2924 68.7542 59.1399 68.7298 51.7811C68.7281 37.3736 59.3181 24.6249 45.4663 20.2636C31.6145 15.9022 16.5083 20.9318 8.12058 32.6978C-0.267136 44.4637 -0.00631046 60.2586 8.76539 71.7461C14.8627 79.7249 18.1805 89.4513 18.2193 99.461C18.2193 100.028 18.6829 100.488 19.2548 100.488ZM50.4433 98.4346H20.2799C20.0158 88.3067 16.5454 78.5177 10.36 70.4527C3.42484 61.3731 2.06635 49.2563 6.82118 38.8887C11.576 28.5211 21.6795 21.57 33.1405 20.7814C41.8094 20.1288 50.3574 23.1073 56.7079 28.9932C63.0462 34.8659 66.6485 43.078 66.6589 51.6784C66.6832 58.5803 64.3594 65.2887 60.0629 70.7196C53.9375 78.6943 50.5646 88.412 50.4433 98.4346Z" fill="#093F68"/>
<rect x="15.351" y="108.402" width="39.1513" height="8.86879" rx="3.62" fill="#080C20"/>
<path fill-rule="evenodd" clip-rule="evenodd" d="M19.0995 118.297H50.7229C53.365 118.297 55.5068 116.174 55.5068 113.555V112.118C55.5068 109.498 53.365 107.375 50.7229 107.375H19.0995C16.4574 107.375 14.3156 109.498 14.3156 112.118V113.555C14.3156 116.174 16.4574 118.297 19.0995 118.297ZM16.3554 112.118C16.3554 110.632 17.5701 109.428 19.0684 109.428H50.7229C52.2212 109.428 53.4358 110.632 53.4358 112.118V113.555C53.4302 115.038 52.2188 116.238 50.7229 116.244H19.0684C17.5701 116.244 16.3554 115.04 16.3554 113.555V112.118Z" fill="#093F68"/>
<rect x="15.351" y="99.5329" width="39.1513" height="8.86879" rx="3.62" fill="#080C20"/>
<path fill-rule="evenodd" clip-rule="evenodd" d="M19.0995 109.428H50.7229C53.365 109.428 55.5068 107.305 55.5068 104.686V103.249C55.5068 100.63 53.365 98.5064 50.7229 98.5064H19.0995C16.4574 98.5064 14.3156 100.63 14.3156 103.249V104.686C14.3156 107.305 16.4574 109.428 19.0995 109.428ZM16.3554 103.249C16.3554 101.763 17.5701 100.559 19.0684 100.559H50.7229C52.2188 100.565 53.4302 101.766 53.4358 103.249V104.686C53.4358 105.399 53.15 106.083 52.6412 106.587C52.1325 107.092 51.4424 107.375 50.7229 107.375H19.0684C18.3489 107.375 17.6588 107.092 17.15 106.587C16.6413 106.083 16.3554 105.399 16.3554 104.686V103.249Z" fill="#093F68"/>
<rect x="15.351" y="90.6641" width="39.1513" height="8.86879" rx="3.62" fill="#080C20"/>
<path fill-rule="evenodd" clip-rule="evenodd" d="M19.0995 100.559H50.7229C53.365 100.559 55.5068 98.4362 55.5068 95.817V94.38C55.5068 91.7609 53.365 89.6376 50.7229 89.6376H19.0995C16.4574 89.6376 14.3156 91.7609 14.3156 94.38V95.817C14.3156 98.4362 16.4574 100.559 19.0995 100.559ZM16.3554 94.38C16.3554 92.8947 17.5701 91.6906 19.0684 91.6906H50.7229C52.2188 91.6962 53.4302 92.897 53.4358 94.38V95.817C53.4358 97.3023 52.2212 98.5064 50.7229 98.5064H19.0684C17.5701 98.5064 16.3554 97.3023 16.3554 95.817V94.38Z" fill="#093F68"/>
<path d="M37.6862 33.3968L42.9982 44.0312L54.8648 45.7762C55.8433 45.9135 56.6576 46.5911 56.9635 47.5227C57.2694 48.4543 57.0136 49.4772 56.3041 50.1592L47.72 58.4635L49.791 70.1859C49.9605 71.1502 49.5618 72.126 48.7633 72.7018C47.9647 73.2775 46.9054 73.3527 46.0322 72.8958L35.4186 67.363L24.7946 72.8958C23.9214 73.3527 22.862 73.2775 22.0635 72.7018C21.2649 72.126 20.8663 71.1502 21.0358 70.1859L23.1067 58.4635L14.5123 50.1592C13.8028 49.4772 13.547 48.4543 13.8529 47.5227C14.1588 46.5911 14.9731 45.9135 15.9516 45.7762L27.725 44.0312L33.037 33.366C33.4776 32.4893 34.3832 31.9377 35.3713 31.9443C36.3593 31.9508 37.2575 32.5144 37.6862 33.3968Z" fill="#093F68"/>
<path fill-rule="evenodd" clip-rule="evenodd" d="M21.3982 73.5322C22.0199 73.9755 22.7654 74.2159 23.5313 74.2199C24.1341 74.2248 24.7285 74.0801 25.2605 73.7991L35.4082 68.5127L45.5455 73.7991C46.7624 74.427 48.2326 74.3199 49.3439 73.5225C50.4551 72.7251 51.0169 71.374 50.7953 70.0319L48.859 58.8433L57.06 50.9188C58.067 49.9665 58.435 48.5267 58.0068 47.214C57.5786 45.9013 56.43 44.9475 55.0511 44.76L43.6609 43.1279L38.5974 32.9452C38.003 31.6971 36.7383 30.8985 35.346 30.8922C33.9508 30.8971 32.6822 31.6955 32.0843 32.9452L27.0415 43.1073L15.7031 44.7394C14.3242 44.927 13.1756 45.8807 12.7474 47.1935C12.3193 48.5062 12.6872 49.946 13.6942 50.8983L21.8952 58.8227L19.9589 70.0114C19.7223 71.361 20.2805 72.7266 21.3982 73.5322ZM33.9689 33.8587C34.2243 33.3248 34.7707 32.9877 35.3667 32.9965V32.976C35.9567 32.9694 36.4974 33.3014 36.7543 33.8279L42.0663 44.5033C42.2183 44.8027 42.5082 45.0096 42.8429 45.0576L54.637 46.8129C55.2212 46.8879 55.7114 47.2862 55.9002 47.8394C56.0892 48.3993 55.9314 49.0169 55.4964 49.4202L46.9123 57.7244C46.6657 57.9608 46.5533 58.3029 46.612 58.638L48.683 70.3604C48.786 70.9399 48.5444 71.5267 48.0617 71.8693C47.5861 72.2224 46.946 72.2665 46.4256 71.9822L35.8016 66.4495C35.5002 66.2925 35.1401 66.2925 34.8387 66.4495L24.2147 71.9822C23.6913 72.2568 23.056 72.2125 22.5766 71.8681C22.0971 71.5236 21.857 70.9389 21.9573 70.3604L24.0283 58.638C24.087 58.3029 23.9746 57.9608 23.728 57.7244L15.1439 49.4202C14.7197 49.0114 14.5666 48.3992 14.749 47.8413C14.9315 47.2834 15.4179 46.8767 16.0033 46.7924L27.8803 45.0782C28.2149 45.0302 28.5048 44.8232 28.6569 44.5239L33.9689 33.8587Z" fill="#093F68"/>
<path d="M30.4793 48.1371C30.3215 48.1377 30.1657 48.1026 30.0237 48.0344C29.7762 47.915 29.5868 47.7028 29.4974 47.4447C29.4081 47.1866 29.426 46.9039 29.5474 46.6589L33.9999 37.6978C34.2743 37.2339 34.8632 37.0585 35.35 37.2958C35.8368 37.533 36.0564 38.1024 35.8534 38.6011L31.4112 47.5622C31.237 47.9147 30.8753 48.1378 30.4793 48.1371Z" fill="#080C20"/>
<path d="M82.8226 87.5128C82.6601 87.5148 82.4999 87.4759 82.3566 87.3999L71.3081 81.7851C71.0615 81.662 70.8747 81.4465 70.7891 81.1863C70.7036 80.9261 70.7264 80.6428 70.8525 80.3993C70.9784 80.1567 71.1967 79.9737 71.459 79.8909C71.7213 79.8081 72.0061 79.8322 72.2504 79.9579L83.2989 85.5728C83.5455 85.6958 83.7323 85.9114 83.8179 86.1716C83.9034 86.4318 83.8806 86.7151 83.7545 86.9585C83.5745 87.303 83.2139 87.5175 82.8226 87.5128Z" fill="#093F68"/>
<path d="M74.0625 41.6702C73.6925 41.7271 73.3201 41.5839 73.0855 41.2948C72.8509 41.0056 72.7897 40.6143 72.925 40.2683C73.0603 39.9223 73.3715 39.6741 73.7415 39.6173L86.25 35.5113C86.6015 35.3958 86.9884 35.4749 87.265 35.7189C87.5417 35.9628 87.666 36.3346 87.5912 36.694C87.5164 37.0535 87.2538 37.3461 86.9024 37.4616L74.3938 41.5676C74.2888 41.6171 74.1773 41.6517 74.0625 41.6702Z" fill="#093F68"/>
<path d="M35.3668 15.0741C34.7949 15.0741 34.3313 14.6145 34.3313 14.0476V1.83251C34.3313 1.2656 34.7949 0.80603 35.3668 0.80603C35.9387 0.80603 36.4023 1.2656 36.4023 1.83251V14.0476C36.4023 14.6145 35.9387 15.0741 35.3668 15.0741Z" fill="#093F68"/>
<path d="M-10.7637 127.987H13.4458C20.9322 127.987 23.0653 137.225 32.7574 138.108C42.4494 138.991 56.5008 136.332 59.4209 140.017C62.3409 143.702 61.8853 147.983 58.9653 150.508C58.9653 150.508 73.0063 138.611 76.0506 135.911C81.228 131.374 89.3358 135.398 83.4957 146.967C77.6556 158.535 55.952 174.096 46.1047 176.262C36.2573 178.428 -13.8908 175.236 -13.8908 175.236L-10.7637 127.987Z" fill="#080C20"/>
<path fill-rule="evenodd" clip-rule="evenodd" d="M-13.9633 176.283C-12.4411 176.385 14.212 178.048 32.0843 178.048C38.4214 178.048 43.6817 177.843 46.3325 177.237C56.8011 174.928 78.6704 158.812 84.4276 147.398C88.8077 138.703 85.2871 135.09 84.1066 134.197C81.6629 132.349 78.0698 132.729 75.3672 135.121C73.3998 136.856 66.7728 142.501 62.3823 146.227C62.6136 143.747 61.8427 141.278 60.2389 139.36C58.0541 136.599 51.6859 136.825 44.3133 137.092C40.4994 137.324 36.6748 137.324 32.8609 137.092C28.1702 136.65 25.3537 134.115 22.6718 131.682C19.99 129.25 17.453 126.96 13.4458 126.96H-10.7223C-11.267 126.959 -11.7196 127.376 -11.7577 127.915L-14.9366 175.195C-14.9549 175.469 -14.8617 175.739 -14.6778 175.944C-14.4943 176.146 -14.2373 176.268 -13.9633 176.283ZM45.8665 175.267C37.0443 177.207 -5.54487 174.743 -12.7932 174.302L-9.75926 129.065H13.4354C16.624 129.065 18.7637 130.991 21.2379 133.219L21.2636 133.243L21.2651 133.244C24.0916 135.799 27.2807 138.683 32.6538 139.186C36.5607 139.428 40.4789 139.428 44.3858 139.186C50.6193 138.96 57.0704 138.734 58.5925 140.664C61.0673 143.795 60.9327 147.439 58.2715 149.748C57.9788 149.985 57.8392 150.36 57.907 150.729C57.9749 151.097 58.2395 151.399 58.5976 151.518C58.9557 151.636 59.3506 151.552 59.628 151.298C59.7626 151.185 73.7208 139.36 76.734 136.691C78.6911 134.967 81.0313 134.515 82.833 135.87C84.6347 137.225 85.4838 140.726 82.5638 146.525C76.6305 158.278 55.0408 173.214 45.8665 175.267Z" fill="#093F68"/>
<path d="M39.6847 155.917C32.8091 155.917 25.975 155.456 25.5504 155.425C24.9822 155.386 24.5519 154.9 24.5874 154.337C24.606 154.064 24.7333 153.81 24.9413 153.631C25.1492 153.452 25.4206 153.362 25.6954 153.382C25.8507 153.382 41.5485 154.409 49.2835 153.382C56.4283 152.356 58.0022 150.025 58.023 150.005C58.3143 149.524 58.9417 149.364 59.4312 149.646C59.9159 149.923 60.0901 150.533 59.8247 151.021C59.6383 151.35 57.7537 154.285 49.5631 155.414C46.2843 155.788 42.9849 155.956 39.6847 155.917Z" fill="#093F68"/>
<path d="M66.4735 452.237V417.119C66.4735 401.441 53.7578 388.73 38.0681 388.724H10.9319C-4.75784 388.73 -17.4736 401.441 -17.4736 417.119V452.237H66.4735Z" fill="#080C20"/>
<path fill-rule="evenodd" clip-rule="evenodd" d="M-17.4736 453.36H66.4735C67.0939 453.36 67.5967 452.857 67.5967 452.237V417.119C67.5844 400.827 54.373 387.62 38.0681 387.602H10.9319C-5.37301 387.62 -18.5844 400.827 -18.5967 417.119V452.237C-18.5967 452.857 -18.0939 453.36 -17.4736 453.36ZM65.3504 451.115H-16.3504V417.119C-16.338 402.066 -4.13237 389.865 10.9319 389.846H38.0681C53.1324 389.865 65.338 402.066 65.3504 417.119V451.115Z" fill="#093F68"/>
<path d="M26.3758 453.36C25.7554 453.36 25.2526 452.857 25.2526 452.237V390.509C25.2526 389.889 25.7554 389.386 26.3758 389.386C26.9961 389.386 27.4989 389.889 27.4989 390.509V452.237C27.4989 452.857 26.9961 453.36 26.3758 453.36Z" fill="#093F68"/>
<path d="M56.1964 447.512C55.671 447.529 55.2043 447.179 55.0732 446.671L43.3583 401.328C43.2203 400.929 43.3181 400.486 43.6114 400.182C43.9048 399.878 44.344 399.765 44.7481 399.888C45.1522 400.011 45.4529 400.351 45.5261 400.767L57.2859 446.154C57.435 446.752 57.074 447.358 56.4772 447.512C56.3843 447.528 56.2893 447.528 56.1964 447.512Z" fill="#093F68"/>
<path d="M57.4768 453.651C58.9161 455.166 60.8225 456.154 62.8906 456.457C67.3834 456.996 71.6515 453.236 72.9993 448.87C74.3471 444.504 73.6058 439.768 72.4602 435.335C71.0674 429.948 70.1015 424.572 65.4065 421.306C60.9924 418.242 55.2979 415.29 51.3442 420.823C47.3906 426.356 51.2094 437.916 52.7931 444.011C53.3906 446.791 54.462 449.449 55.9605 451.867C56.4111 452.506 56.9186 453.104 57.4768 453.651Z" fill="#080C20"/>
<path fill-rule="evenodd" clip-rule="evenodd" d="M62.767 457.568C63.1134 457.613 63.4623 457.636 63.8116 457.636C68.7536 457.636 72.7971 453.449 74.0888 449.218C75.6276 444.437 74.6953 439.375 73.5721 435.054L73.2015 433.607L73.2013 433.606C71.9658 428.69 70.6853 423.595 66.0692 420.385C63.1826 418.376 55.5 413.034 50.4457 420.172C46.6942 425.526 49.3786 435.593 51.187 442.26C51.3779 442.989 51.5576 443.674 51.7261 444.291C52.3599 447.206 53.5003 449.986 55.0957 452.507C55.5622 453.205 56.0964 453.855 56.6906 454.448C58.3046 456.145 60.4467 457.245 62.767 457.568ZM52.3102 421.474C53.2774 419.863 55.0119 418.869 56.8919 418.848C58.9904 418.851 61.5707 419.974 64.8899 422.226C68.821 424.964 69.9442 429.42 71.1236 434.156L71.4942 435.615C72.5388 439.622 73.4149 444.302 72.0558 448.534C70.8428 452.26 67.1587 455.829 63.0703 455.346C61.2566 455.067 59.5884 454.19 58.3305 452.855C57.8286 452.365 57.3805 451.823 56.9939 451.238C55.5654 448.926 54.5436 446.387 53.9725 443.73C53.8851 443.381 53.7873 443.014 53.6849 442.63C53.603 442.323 53.5182 442.005 53.4334 441.676C51.7935 435.795 49.1315 425.963 52.3102 421.474ZM56.8919 418.848C56.8922 418.848 56.8925 418.848 56.8928 418.848H56.8815C56.885 418.848 56.8885 418.848 56.8919 418.848Z" fill="#093F68"/>
<path d="M84.9837 342.226C84.9837 377.22 57.9036 392.372 24.5 392.372C-8.90363 392.372 -35.9725 377.22 -35.9725 342.226C-35.9725 307.231 -8.90363 271.282 24.5 271.282C57.9036 271.282 84.9837 307.242 84.9837 342.226Z" fill="#093F68"/>
<path fill-rule="evenodd" clip-rule="evenodd" d="M-37.0956 342.226C-37.0956 374.336 -14.0703 393.494 24.5 393.494C63.0703 393.494 86.1069 374.324 86.1069 342.226C86.1069 308.207 59.7569 270.16 24.5 270.16C-10.7569 270.16 -37.0956 308.207 -37.0956 342.226ZM-34.8493 342.226C-34.8493 302.27 -3.51231 272.405 24.5 272.405C52.5797 272.405 83.8605 302.27 83.8605 342.226C83.8605 372.922 61.6663 391.249 24.5 391.249C-12.6663 391.249 -34.8493 372.922 -34.8493 342.226Z" fill="#093F68"/>
<path d="M73.0442 320.699C72.9965 323.183 72.7863 325.661 72.4152 328.118C70.7836 338.815 67.9697 349.298 64.025 359.375C62.2055 363.999 60.0602 368.679 56.3873 372.035C53.4062 374.486 50.0449 376.434 46.4359 377.804C35.5634 382.551 23.5116 386.906 12.0888 383.73C0.66597 380.553 -7.567 370.43 -13.0819 359.902C-19.3657 347.882 -23.1843 334.73 -24.3137 321.215C-24.9877 313.157 -23.8645 303.258 -19.821 296.109C-18.0232 292.796 -15.5148 289.922 -12.4753 287.691C-10.7456 286.468 -2.55758 284.515 -1.95106 283.449C4.42865 272.225 20.8609 269.543 31.5312 272.225C55.9493 278.488 73.4373 295.918 73.0442 320.699Z" fill="#080C20"/>
<path fill-rule="evenodd" clip-rule="evenodd" d="M11.7855 384.807C14.5455 385.558 17.3938 385.936 20.2543 385.929C29.1388 385.929 38.2254 382.607 46.8851 378.791C50.7826 377.085 54.242 375.458 57.1398 372.821C60.9699 369.319 63.2163 364.459 65.0696 359.734C69.0371 349.581 71.8624 339.018 73.4935 328.241C73.8794 325.733 74.097 323.202 74.1449 320.665C74.5268 296.872 58.2743 277.871 31.7333 271.136C25.4941 269.661 18.9822 269.792 12.8076 271.518C7.78695 272.91 0.980431 276.007 -2.91703 282.741C-4.44474 283.47 -6.03009 284.07 -7.65689 284.537C-9.57644 285.068 -11.4273 285.821 -13.1717 286.782C-16.3326 289.106 -18.9407 292.099 -20.8094 295.547C-24.4935 302.113 -26.212 311.743 -25.4145 321.294C-24.2467 334.957 -20.3836 348.254 -14.0478 360.419C-7.17392 373.584 1.76666 382.024 11.7855 384.807ZM-1.01885 284.01C3.47391 276.142 13.7174 272.393 23.2196 272.393C25.9204 272.37 28.6139 272.679 31.2391 273.314C56.6793 279.835 72.2804 298.005 71.921 320.632C71.8788 323.067 71.6725 325.497 71.3033 327.904C69.685 338.518 66.8898 348.919 62.9692 358.915C61.2395 363.393 59.1167 367.972 55.6235 371.159C52.9841 373.617 49.6931 375.155 45.9866 376.771C34.9344 381.597 23.2083 385.649 12.392 382.652C0.50869 379.353 -7.47718 368.174 -12.0823 359.386C-18.2871 347.493 -22.0703 334.489 -23.213 321.126C-23.9656 311.99 -22.3482 302.843 -18.8888 296.647C-17.1721 293.483 -14.7746 290.738 -11.8688 288.611C-10.2879 287.839 -8.64162 287.208 -6.94928 286.726C-2.95073 285.401 -1.51305 284.863 -1.01885 284.01Z" fill="#093F68"/>
<ellipse cx="64.5529" cy="354.167" rx="13.8714" ry="11.9417" fill="#080C20"/>
<path fill-rule="evenodd" clip-rule="evenodd" d="M49.5583 354.167C49.5583 361.373 56.2862 367.231 64.5529 367.231C72.7971 367.231 79.5362 361.283 79.5362 354.122C79.5362 346.962 72.8083 341.103 64.5529 341.103C56.2975 341.103 49.5583 346.962 49.5583 354.167ZM51.8047 354.167C51.8047 348.208 57.5218 343.348 64.5529 343.348C71.5728 343.348 77.2899 348.107 77.2899 354.122C77.2899 360.138 71.5841 364.987 64.5529 364.987C57.5218 364.987 51.8047 360.127 51.8047 354.167Z" fill="#093F68"/>
<path d="M62.4525 328.567C67.5069 334.885 66.159 342.293 66.159 350.172C66.159 373.249 47.4372 391.956 24.3427 391.956C1.24822 391.956 -17.4736 373.249 -17.4736 350.172C-17.4736 329.016 -3.13046 315.211 16.2895 308.645C15.1123 313.757 12.1443 318.279 7.92172 321.395C21.3333 323.326 34.9861 320.236 46.2561 312.719C44.7174 313.763 60.3072 326.187 61.3743 327.31C61.7674 327.747 62.1268 328.151 62.4525 328.567Z" fill="#080C20"/>
<path fill-rule="evenodd" clip-rule="evenodd" d="M-18.5967 350.172C-18.572 373.856 0.629528 393.053 24.3315 393.09C48.0204 393.065 67.2266 373.899 67.2822 350.228C67.2822 349.533 67.3021 348.845 67.3219 348.16C67.3415 347.484 67.3609 346.812 67.3609 346.143C67.563 339.622 67.754 333.449 63.3399 327.927C63.0029 327.478 62.4975 326.894 62.2167 326.614C61.9513 326.349 61.2045 325.713 59.7109 324.441L59.4424 324.212C56.3536 321.586 48.4913 314.885 47.3681 312.989C47.4509 312.684 47.3932 312.359 47.2109 312.102C47.0461 311.853 46.7887 311.679 46.4956 311.62C46.2026 311.562 45.8981 311.622 45.6496 311.788C35.3446 318.649 22.99 321.756 10.6623 320.587C14.0181 317.437 16.3633 313.363 17.4014 308.881C17.5063 308.471 17.3717 308.037 17.0533 307.758C16.7503 307.48 16.3194 307.39 15.9301 307.523C-6.01703 314.998 -18.5967 330.531 -18.5967 350.172ZM-16.3504 350.172C-16.3504 339.487 -12.3293 320.362 14.6272 310.418C13.2395 314.459 10.6539 317.982 7.21413 320.519C6.85152 320.789 6.68588 321.249 6.79375 321.688C6.90163 322.126 7.26201 322.458 7.70833 322.528C20.8958 324.423 34.3278 321.571 45.6047 314.481C46.8514 316.187 50.0975 319.251 57.9598 325.907C58.1364 326.056 58.3117 326.204 58.4829 326.348C59.5096 327.214 60.3923 327.959 60.5656 328.151C60.9232 328.506 61.2607 328.881 61.5764 329.274C65.4851 334.156 65.3167 339.655 65.1145 346.019C65.0359 347.388 65.0359 348.769 65.0359 350.172C65.0359 372.629 46.8169 390.834 24.3428 390.834C1.86856 390.834 -16.3504 372.629 -16.3504 350.172Z" fill="#093F68"/>
<ellipse cx="7.5623" cy="360.419" rx="3.76268" ry="3.75984" fill="#093F68"/>
<ellipse cx="41.4377" cy="360.419" rx="3.76268" ry="3.75984" fill="#093F68"/>
<path d="M24.3091 367.86C23.0529 367.851 21.799 367.749 20.5576 367.557C20.2641 367.505 20.0034 367.338 19.8327 367.094C19.6621 366.85 19.5956 366.548 19.6478 366.255C19.6999 365.962 19.8664 365.701 20.1108 365.531C20.3551 365.36 20.6573 365.294 20.9507 365.346C22.8742 365.652 24.8341 365.652 26.7576 365.346C27.0609 364.313 25.6344 360.104 23.5116 356.12C23.2309 355.574 23.441 354.904 23.9833 354.616C24.5323 354.328 25.2111 354.539 25.4997 355.088C26.5554 357.097 29.8913 363.853 28.7681 366.311C28.5216 366.877 28.0218 367.293 27.4203 367.433C26.4043 367.701 25.3596 367.844 24.3091 367.86Z" fill="#093F68"/>
<path d="M15.7953 341.283H15.5145L-2.73731 339.038C-3.97795 338.886 -4.86048 337.758 -4.7085 336.518C-4.55652 335.279 -3.42758 334.397 -2.18694 334.549L16.0761 336.793C17.3167 336.871 18.2596 337.939 18.1821 339.178C18.1045 340.418 17.0359 341.36 15.7953 341.283Z" fill="#093F68"/>
<path d="M33.2047 341.283C31.9641 341.36 30.8955 340.418 30.8179 339.178C30.7404 337.939 31.6833 336.871 32.9239 336.793L51.187 334.549C52.4276 334.397 53.5565 335.279 53.7085 336.518C53.8605 337.758 52.978 338.886 51.7373 339.038L33.4855 341.283H33.2047Z" fill="#093F68"/>
<path d="M84.9837 342.226C85.0412 347.845 84.2343 353.439 82.5913 358.814C75.2906 328.163 52.0518 296.737 24.5 296.737C-3.05182 296.737 -26.2906 328.163 -33.5913 358.814C-35.2343 353.439 -36.0412 347.845 -35.9837 342.226C-35.9837 307.242 -8.8924 271.294 24.5 271.294C57.8924 271.294 84.9837 307.242 84.9837 342.226Z" fill="#080C20"/>
<path fill-rule="evenodd" clip-rule="evenodd" d="M81.5355 359.083C81.6562 359.572 82.0878 359.921 82.5913 359.936C83.0926 359.949 83.5418 359.628 83.6921 359.15C85.3712 353.667 86.197 347.959 86.1406 342.226C86.1406 308.219 59.7906 270.171 24.5337 270.171C-10.7232 270.171 -37.0732 308.219 -37.0732 342.226C-37.1296 347.959 -36.3037 353.667 -34.6246 359.15C-34.4705 359.626 -34.0207 359.942 -33.521 359.926C-33.0214 359.911 -32.5922 359.567 -32.4681 359.083C-28.7808 343.598 -21.5144 329.191 -11.2511 317.018C-3.64708 308.286 8.71923 297.859 24.5337 297.859C40.3482 297.859 52.7257 308.286 60.3297 317.018C70.5851 329.195 77.8473 343.6 81.5355 359.083ZM-34.8605 342.226C-34.8605 302.27 -3.51229 272.416 24.5 272.416C52.5797 272.416 83.8605 302.27 83.8605 342.226C83.8789 346.322 83.4571 350.408 82.6026 354.414C78.5842 340.138 71.5569 326.886 61.9921 315.547C50.6479 302.517 37.675 295.615 24.5 295.615C11.325 295.615 -1.63657 302.495 -12.9808 315.547C-22.5534 326.883 -29.5851 340.136 -33.6025 354.414C-34.4571 350.408 -34.8788 346.322 -34.8605 342.226Z" fill="#093F68"/>
<path d="M9.39309 282.293C9.39309 282.293 -9.08336 240.766 -23.9207 250.508C-38.758 260.25 -61.1881 293.808 -47.0247 297.175C-32.8613 300.542 -20.2142 272.483 -20.2142 272.483L1.53077 288.297" fill="#080C20"/>
<path d="M-44.621 298.578C-45.5176 298.577 -46.411 298.472 -47.283 298.263C-50.0176 297.758 -52.1216 295.561 -52.5058 292.809C-54.4826 281.585 -36.2532 257.287 -24.5384 249.576C-22.0763 247.897 -18.9785 247.442 -16.1369 248.342C-2.87208 252.225 9.87611 280.575 10.4152 281.776C10.6696 282.343 10.4156 283.009 9.84803 283.263C9.28043 283.518 8.61413 283.264 8.3598 282.697C8.23625 282.405 -4.50071 254.088 -16.7659 250.497C-18.9744 249.777 -21.3927 250.13 -23.3029 251.451C-35.4109 259.419 -51.9891 282.775 -50.2594 292.416C-50.0193 294.281 -48.5879 295.771 -46.7326 296.086C-33.6362 299.195 -21.3261 272.326 -21.2025 272.057C-21.066 271.748 -20.7979 271.518 -20.4724 271.428C-20.1434 271.34 -19.7923 271.406 -19.5177 271.608L2.2272 287.422C2.70073 287.794 2.79613 288.473 2.44341 288.961C2.09069 289.449 1.41547 289.572 0.913063 289.24L-19.7761 274.223C-22.3145 279.408 -32.4906 298.578 -44.621 298.578Z" fill="#093F68"/>
<path d="M39.6069 282.293C39.6069 282.293 58.0833 240.766 72.9206 250.564C87.758 260.362 110.188 293.864 96.0246 297.231C81.8612 300.598 69.2141 272.539 69.2141 272.539L47.4692 288.331" fill="#080C20"/>
<path d="M93.621 298.578C81.4906 298.578 71.3145 279.408 68.7761 274.223L48.087 289.24C47.762 289.476 47.3353 289.522 46.9678 289.359C46.6002 289.196 46.3476 288.849 46.3051 288.45C46.2626 288.05 46.4366 287.658 46.7616 287.422L68.5066 271.608C68.7811 271.406 69.1322 271.34 69.4613 271.428C69.7868 271.518 70.0549 271.748 70.1913 272.057C70.3149 272.326 82.625 299.195 95.7214 296.086C97.6014 295.786 99.0571 294.281 99.2931 292.394C100.989 282.753 84.4109 259.397 72.3366 251.428C70.4264 250.107 68.0082 249.754 65.7997 250.474C53.5345 254.066 40.7975 282.382 40.6739 282.674C40.4196 283.241 39.7533 283.495 39.1857 283.241C38.6181 282.987 38.3642 282.321 38.6185 281.754C39.1576 280.553 51.9058 252.203 65.1707 248.319C68.0122 247.418 71.1107 247.873 73.5721 249.554C85.287 257.264 103.516 281.529 101.54 292.786C101.155 295.539 99.0513 297.736 96.3167 298.241C95.4347 298.459 94.5298 298.573 93.621 298.578Z" fill="#093F68"/>
<path d="M1.27248 453.36C0.652161 453.36 0.149292 452.857 0.149292 452.237V406.985C0.149292 406.365 0.652161 405.862 1.27248 405.862C1.8928 405.862 2.39567 406.365 2.39567 406.985V452.237C2.39567 452.857 1.8928 453.36 1.27248 453.36Z" fill="#093F68"/>
<path d="M4.40615 454.942C-1.63515 456.155 -7.91118 454.919 -13.0406 451.507C-18.1699 448.095 -21.7323 442.786 -22.9435 436.749C-23.6973 432.244 -23.7693 427.651 -23.1569 423.124C-22.8865 420.791 -22.4853 418.476 -21.9551 416.188C-19.6301 406.087 -14.7891 396.839 -7.54457 395.391C1.50833 393.573 11.8417 404.527 17.8844 415.514C18.8024 417.171 19.631 418.876 20.3667 420.621C21.3494 422.87 22.102 425.213 22.613 427.613C25.134 440.183 16.9841 452.416 4.40615 454.942Z" fill="#080C20"/>
<path fill-rule="evenodd" clip-rule="evenodd" d="M-24.0779 436.973C-21.7825 448.33 -11.8048 456.503 -0.210173 456.525C1.40806 456.524 3.02222 456.363 4.6083 456.042C17.7988 453.398 26.3472 440.57 23.7025 427.389C23.1754 424.916 22.3925 422.505 21.3663 420.195C20.6189 418.411 19.7752 416.668 18.8391 414.976C12.4145 403.27 1.69925 392.394 -7.80293 394.291C-17.4623 396.233 -21.7305 410.071 -23.0783 415.93C-23.624 418.257 -24.0328 420.614 -24.3026 422.989C-24.9346 427.635 -24.8588 432.35 -24.0779 436.973ZM-7.35365 396.491C-6.76913 396.375 -6.17492 396.315 -5.57901 396.311H-5.54532C2.40686 396.311 11.4822 406.21 16.8174 416.098C17.7165 417.723 18.53 419.394 19.2547 421.104C20.2268 423.268 20.9794 425.524 21.5011 427.838C22.6515 433.586 21.4695 439.555 18.215 444.432C14.9605 449.309 9.90032 452.694 4.1478 453.842C-1.60188 454.999 -7.57575 453.823 -12.4573 450.575C-17.3389 447.326 -20.7275 442.272 -21.8765 436.525C-22.6103 432.138 -22.6784 427.666 -22.0787 423.258C-21.8119 420.964 -21.4182 418.686 -20.8993 416.435C-18.271 405.121 -13.2167 397.613 -7.35365 396.491Z" fill="#093F68"/>
<path d="M16.6377 419.218C15.3186 422.838 14.4547 426.608 14.0656 430.441C13.6762 433.958 13.4441 437.49 13.3692 441.036C13.4497 442.601 13.2168 444.165 12.6841 445.638C12.0972 447.132 10.6278 448.092 9.02248 448.029C6.88843 447.726 5.94495 445.2 5.5406 443.079C5.05068 440.483 4.72431 437.859 4.56343 435.223C4.55642 434.304 4.3931 433.393 4.08045 432.529C3.75331 431.651 2.95723 431.034 2.02502 430.935C0.54241 430.935 -0.35614 432.551 -1.64781 433.27C-3.66955 434.392 -6.32027 432.911 -7.37607 430.868C-8.43186 428.825 -8.42063 426.379 -8.58911 424.134C-8.58876 423.322 -8.79351 422.523 -9.1844 421.811C-9.60802 421.095 -10.4637 420.758 -11.2623 420.991C-11.8347 421.33 -12.2654 421.864 -12.4753 422.495C-13.1605 423.988 -13.958 425.604 -15.4518 426.266C-16.4453 426.64 -17.5338 426.68 -18.5518 426.379C-20.4148 425.885 -22.0376 424.738 -23.1232 423.146C-22.8528 420.814 -22.4516 418.498 -21.9214 416.21C-19.5964 406.109 -14.7554 396.861 -7.51085 395.413C0.284077 393.842 7.47248 401.025 11.8866 406.502C13.375 408.359 14.7551 410.3 16.0199 412.316C17.4801 414.639 18.2663 415.38 17.1431 417.927C16.941 418.32 16.7725 418.747 16.6377 419.218Z" fill="#080C20"/>
<path fill-rule="evenodd" clip-rule="evenodd" d="M8.83154 449.151C9.01107 449.162 9.19113 449.162 9.37067 449.151C11.2688 449.035 12.9385 447.858 13.6837 446.109C14.2735 444.556 14.541 442.899 14.4699 441.238V441.07C14.5373 437.602 14.762 434.078 15.1551 430.576C15.5405 426.832 16.3855 423.149 17.671 419.611C17.8283 419.196 17.9968 418.769 18.1652 418.354C19.3758 415.52 18.5616 414.251 17.3415 412.35L17.3341 412.338L16.9522 411.732C15.6615 409.676 14.2514 407.697 12.729 405.806C5.54059 396.906 -1.35578 393.034 -7.75796 394.325C-17.4174 396.266 -21.6855 410.105 -23.0333 415.963C-23.579 418.291 -23.9878 420.648 -24.2576 423.023C-24.2882 423.292 -24.2204 423.563 -24.0667 423.786C-22.8296 425.602 -20.9797 426.913 -18.8551 427.479C-17.5893 427.839 -16.2403 427.776 -15.0138 427.299C-13.0706 426.435 -12.1047 424.358 -11.4869 422.989C-11.3297 422.664 -11.0377 422.114 -10.8692 422.046C-10.7007 421.979 -10.3413 422.136 -10.1503 422.428C-9.87366 422.986 -9.73135 423.601 -9.73477 424.224L-9.66738 425.256C-9.68703 427.381 -9.25439 429.485 -8.39817 431.429C-7.59545 432.938 -6.23861 434.076 -4.61303 434.605C-3.45583 434.993 -2.18927 434.879 -1.11991 434.291C-0.565786 433.956 -0.0530796 433.557 0.407623 433.101C1.08154 432.473 1.53081 432.103 1.96885 432.103C2.45977 432.199 2.86199 432.55 3.02465 433.023C3.27025 433.707 3.39933 434.428 3.40654 435.155V435.335C3.57561 438.009 3.90946 440.67 4.40617 443.304C5.24857 447.737 7.28154 448.926 8.83154 449.151ZM2.03625 429.824H1.94639C0.734789 429.941 -0.380564 430.535 -1.15361 431.474C-1.49544 431.809 -1.87196 432.106 -2.2768 432.361C-2.81988 432.638 -3.45235 432.682 -4.02897 432.484C-5.07072 432.129 -5.93807 431.39 -6.45506 430.419C-7.15942 428.751 -7.50755 426.954 -7.47716 425.144L-7.54455 424.089C-7.55396 423.088 -7.82084 422.106 -8.31955 421.238C-9.0363 420.062 -10.4761 419.544 -11.779 419.992C-12.6136 420.434 -13.2541 421.17 -13.5761 422.058C-14.2275 423.483 -14.8565 424.796 -15.9797 425.267C-16.7487 425.525 -17.5807 425.525 -18.3496 425.267C-19.8139 424.88 -21.109 424.02 -22.0337 422.821C-21.773 420.674 -21.398 418.542 -20.9105 416.435C-18.2822 405.121 -13.2279 397.613 -7.36484 396.491C-1.84999 395.38 4.30509 398.982 10.9319 407.187C12.3946 409.012 13.7521 410.92 14.9978 412.899L15.391 413.517C16.5478 415.324 16.7837 415.694 16.0424 417.456C15.8627 417.894 15.683 418.343 15.5145 418.792C14.1782 422.493 13.3066 426.346 12.9199 430.262C12.5156 433.831 12.2797 437.434 12.2123 440.958V441.126C12.2772 442.48 12.0788 443.833 11.6283 445.11C11.2376 446.147 10.2541 446.841 9.14603 446.861C7.57357 446.637 6.87719 444.224 6.60762 442.821C6.13057 440.277 5.81172 437.705 5.65291 435.122V434.931C5.64018 433.952 5.45384 432.983 5.10255 432.069C4.60363 430.789 3.40795 429.914 2.03625 429.824Z" fill="#093F68"/>
<path d="M39.5283 415.088C39.1462 415.715 39.1123 416.495 39.4384 417.153C40.0129 417.881 40.8621 418.339 41.7859 418.421C43.8797 418.971 46.068 419.059 48.1993 418.679C49.691 418.461 50.9647 417.489 51.5688 416.109C52.4786 413.315 49.1428 411.036 46.6942 410.868C44.2457 410.7 40.6402 413.023 39.5283 415.088Z" fill="#080C20"/>
<path fill-rule="evenodd" clip-rule="evenodd" d="M41.5612 419.521C42.9917 419.849 44.4519 420.029 45.9192 420.06C46.7714 420.076 47.6228 419.997 48.4576 419.824C50.337 419.506 51.9131 418.229 52.6134 416.457C53.0283 415.195 52.8155 413.811 52.0406 412.731C50.7879 411.023 48.8609 409.935 46.7503 409.746C43.8188 409.544 39.7978 412.226 38.5398 414.549C37.9778 415.518 37.9481 416.707 38.4612 417.703C39.1836 418.728 40.3137 419.39 41.5612 419.521ZM40.4156 416.558C40.2938 416.231 40.3311 415.866 40.5166 415.57C41.4826 413.786 44.7623 411.822 46.5931 411.945C48.0143 412.082 49.3134 412.806 50.1761 413.943C50.5616 414.449 50.6749 415.111 50.4793 415.716C50.075 416.962 48.4351 417.434 47.9522 417.546C45.9751 417.882 43.949 417.79 42.0105 417.276C41.3478 417.142 40.629 416.951 40.4156 416.558Z" fill="#093F68"/>
<path d="M32.2717 424.671L38.7188 420.6L42.4389 426.482L35.9918 430.553L32.2717 424.671Z" fill="#080C20"/>
<path fill-rule="evenodd" clip-rule="evenodd" d="M35.7319 431.687H35.979C36.1887 431.704 36.3989 431.661 36.5855 431.564L43.0326 427.467C43.2843 427.308 43.4624 427.055 43.5277 426.765C43.593 426.474 43.5402 426.17 43.3808 425.918L39.663 420.037C39.5024 419.785 39.2477 419.607 38.9554 419.544C38.6663 419.479 38.3636 419.532 38.113 419.689L31.6659 423.764C31.4142 423.923 31.236 424.175 31.1707 424.466C31.1054 424.756 31.1583 425.061 31.3177 425.312L35.0355 431.182C35.1913 431.436 35.4418 431.618 35.7319 431.687ZM36.3271 429.016L33.8112 425.032L38.3601 422.159L40.8761 426.143L36.3271 429.016Z" fill="#093F68"/>
<path d="M42.471 426.491L71.5279 409.117C72.5464 408.523 73.2796 407.541 73.5592 406.396C73.8387 405.251 73.6407 404.041 73.0105 403.045C72.3803 402.047 71.3717 401.347 70.2156 401.106C69.0596 400.865 67.8551 401.103 66.8779 401.766L38.7083 420.576L42.471 426.491Z" fill="#080C20"/>
<path fill-rule="evenodd" clip-rule="evenodd" d="M41.5275 427.097C41.7337 427.418 42.0891 427.613 42.471 427.613C42.6731 427.617 42.8719 427.562 43.0438 427.456L72.1344 410.116C73.8285 409.094 74.838 407.237 74.7743 405.261C74.7106 403.285 73.5837 401.497 71.8274 400.586C70.071 399.675 67.9592 399.783 66.3051 400.868L38.1355 419.678C37.626 420.017 37.4811 420.7 37.8098 421.216L41.5275 427.097ZM42.7743 424.964L40.2246 420.935L67.4956 402.697C68.2189 402.203 69.1126 402.024 69.9708 402.201C70.829 402.379 71.5778 402.899 72.0445 403.64C72.5055 404.381 72.6462 405.276 72.4345 406.122C72.2228 406.969 71.6769 407.693 70.9214 408.129L42.7743 424.964Z" fill="#093F68"/>
<path d="M28.4049 427.768C27.9885 427.11 28.185 426.238 28.8438 425.822L30.7511 424.618C31.4092 424.202 32.2796 424.399 32.6956 425.056L35.8084 429.979C36.2248 430.637 36.0283 431.509 35.3695 431.925L33.4622 433.129C32.8041 433.544 31.9338 433.348 31.5177 432.69L28.4049 427.768Z" fill="#080C20"/>
<path fill-rule="evenodd" clip-rule="evenodd" d="M30.5203 433.169C31.0104 433.938 31.8542 434.41 32.7667 434.426C33.2942 434.434 33.8129 434.29 34.2605 434.011L35.8667 433C37.1286 432.198 37.5051 430.528 36.709 429.263L33.7775 424.628C33.3943 424.02 32.7834 423.592 32.0815 423.438C31.3808 423.281 30.6464 423.406 30.0373 423.786L28.4311 424.807C27.1706 425.605 26.7938 427.272 27.5888 428.534L30.5203 433.169ZM31.1942 425.683C31.2685 425.637 31.3542 425.614 31.4413 425.615L31.5424 425.627C31.6634 425.651 31.769 425.724 31.8344 425.829L34.7659 430.464C34.897 430.678 34.832 430.958 34.6199 431.092L33.0138 432.114C32.7959 432.246 32.5125 432.181 32.3735 431.968L29.442 427.333C29.3839 427.226 29.3641 427.104 29.3859 426.985C29.4181 426.87 29.4897 426.771 29.588 426.704L31.1942 425.683Z" fill="#093F68"/>
<path d="M28.4424 426.098L33.0587 433.404C33.0587 433.404 32.3623 436.042 27.2967 438.186C26.0612 438.694 24.7882 439.107 23.4891 439.42C14.9417 441.609 10.9094 435.234 10.9094 435.234C15.4022 437.793 17.5475 433.606 19.7489 429.095L20.0185 428.534C22.321 423.865 28.4424 426.098 28.4424 426.098Z" fill="#080C20"/>
<path fill-rule="evenodd" clip-rule="evenodd" d="M9.89857 435.874C12.2418 439.117 16.0043 441.034 20.0073 441.025C21.2542 441.016 22.4952 440.854 23.7026 440.543C25.0551 440.2 26.3803 439.757 27.6674 439.218C33.0812 436.929 33.991 434.022 34.0808 433.696C34.1611 433.395 34.1123 433.074 33.946 432.81L29.3185 425.503C29.1875 425.292 28.9899 425.13 28.7569 425.043C26.3084 424.156 21.1192 423.64 18.9515 428.073L18.6707 428.635L18.666 428.644C17.3755 431.279 15.9166 434.258 14.0656 434.83C13.1419 435.031 12.176 434.836 11.4036 434.291C10.9547 434.036 10.3893 434.119 10.0334 434.493C9.67519 434.867 9.61951 435.437 9.89857 435.874ZM23.2533 438.365C20.2557 439.275 17.0085 438.806 14.3913 437.086L14.7283 437.007C17.5174 436.157 19.2007 432.716 20.6803 429.692L20.6924 429.667L20.9732 429.095C22.5906 425.885 26.5105 426.738 27.7123 427.074L31.7895 433.517C31.3515 434.235 30.116 435.795 26.8587 437.176C25.6885 437.662 24.4832 438.06 23.2533 438.365Z" fill="#093F68"/>
<path d="M12.1449 429.959C12.36 430.778 12.6612 431.572 13.0435 432.327C13.7273 433.021 14.7705 433.218 15.6605 432.821C16.4781 432.502 17.2037 431.985 17.7721 431.317C18.3562 430.666 18.8953 429.948 19.4344 429.297C19.5176 429.19 19.6255 429.105 19.7489 429.05C20.187 428.904 20.4678 429.622 20.5352 429.925C20.6283 430.455 20.666 430.993 20.6475 431.53C20.6475 432.103 20.6475 432.652 20.6475 433.247C20.5854 433.547 20.5854 433.857 20.6475 434.156C20.6921 434.284 20.7849 434.388 20.9058 434.448C21.0094 434.471 21.1167 434.471 21.2203 434.448C21.7482 434.325 22.2312 434.067 22.7703 433.988C23.3091 433.876 23.8551 434.144 24.0957 434.639C24.2304 435.077 23.9721 435.526 23.9721 435.986C23.9766 436.47 24.2613 436.908 24.7022 437.108C25.0184 437.215 25.3466 437.283 25.6794 437.31C26.3136 437.42 26.9004 437.717 27.3641 438.163C26.1074 438.683 24.8117 439.103 23.4891 439.42C18.6027 440.678 13.4307 438.977 10.2467 435.066C9.48789 434.154 9.12047 432.98 9.22464 431.8" fill="#080C20"/>
<path d="M20.2768 440.98C16.0331 441.011 12.0096 439.096 9.35944 435.784C8.41053 434.641 7.96127 433.165 8.1127 431.687C8.19334 431.067 8.76158 430.63 9.3819 430.711C10.0022 430.791 10.4397 431.359 10.3591 431.979C10.2963 432.86 10.5827 433.731 11.1565 434.403C14.0524 437.98 18.7766 439.53 23.2308 438.365L24.1294 438.118C23.3009 437.718 22.7828 436.871 22.804 435.952C22.8144 435.695 22.8521 435.439 22.9163 435.189V435.099H22.8489C22.6323 435.151 22.4185 435.215 22.2087 435.29C21.9457 435.393 21.6754 435.475 21.4 435.537C21.0918 435.625 20.7648 435.625 20.4565 435.537C20.0456 435.377 19.7173 435.057 19.5468 434.65C19.3942 434.246 19.3516 433.808 19.4232 433.382V432.922C19.4232 432.473 19.4232 432.024 19.4232 431.564V430.991C19.1199 431.373 18.8167 431.743 18.491 432.114C17.8033 432.925 16.9227 433.55 15.9301 433.932C14.5587 434.52 12.9638 434.136 12.0102 432.989C11.6537 432.404 11.3885 431.768 11.2239 431.104C11.1453 430.868 11.0779 430.621 10.9993 430.397C10.8311 430.016 10.8878 429.573 11.1465 429.247C11.4052 428.92 11.8234 428.764 12.233 428.84C12.6426 428.917 12.9762 429.213 13.0997 429.611C13.2007 429.892 13.2906 430.183 13.3692 430.464C13.4794 430.916 13.6534 431.351 13.8859 431.755C13.987 431.923 14.616 432.002 15.1888 431.811C15.8304 431.548 16.3974 431.132 16.8399 430.599C17.1319 430.273 17.4127 429.925 17.6823 429.589C17.9518 429.252 18.2102 428.915 18.491 428.601C18.7031 428.34 18.9828 428.142 19.2997 428.028C19.6993 427.894 20.1375 427.939 20.5015 428.152C21.037 428.527 21.4072 429.094 21.5348 429.734C21.6437 430.345 21.6888 430.966 21.6696 431.586C21.6696 432.069 21.6696 432.552 21.6696 433.023V433.135C21.9481 433.042 22.2335 432.971 22.5232 432.922C23.6122 432.698 24.701 433.304 25.0841 434.347C25.2104 434.803 25.2104 435.284 25.0841 435.739C25.0584 435.839 25.0397 435.94 25.0279 436.042C25.0295 436.089 25.0549 436.131 25.0953 436.154C25.2152 436.194 25.3399 436.216 25.466 436.222H25.8029C26.6449 436.37 27.4254 436.76 28.0493 437.344C28.3207 437.605 28.4432 437.984 28.3754 438.355C28.3076 438.725 28.0586 439.036 27.7123 439.185C26.4253 439.723 25.1 440.166 23.7475 440.509C22.6144 440.808 21.4487 440.966 20.2768 440.98Z" fill="#093F68"/>
<path d="M62.6884 411.362C60.5158 409.666 57.7471 408.925 55.017 409.308C52.3073 409.698 49.7619 410.841 47.6714 412.607C46.1373 413.695 45.0295 415.283 44.5377 417.097C44.3594 418.252 44.4361 419.432 44.7623 420.554C45.8714 425.032 48.9292 428.78 53.0964 430.767C58.7123 433.281 67.0464 431.44 69.2254 425.043C70.7529 420.643 65.9456 413.999 62.6884 411.362Z" fill="#080C20"/>
<path fill-rule="evenodd" clip-rule="evenodd" d="M52.692 431.755C54.5091 432.547 56.4714 432.952 58.454 432.944C60.4389 432.952 62.4042 432.551 64.2271 431.766C67.0786 430.598 69.2968 428.271 70.3261 425.369C72.0558 420.273 66.6982 413.169 63.4409 410.497C61.0303 408.604 57.9537 407.77 54.9159 408.185C51.9958 408.602 49.2518 409.831 46.9974 411.732C45.2497 412.964 43.9992 414.779 43.4706 416.85C43.2501 418.164 43.3308 419.511 43.7065 420.789C44.8831 425.617 48.1881 429.65 52.692 431.755ZM55.1967 410.419C55.5958 410.374 55.997 410.352 56.3985 410.352C58.4465 410.308 60.4477 410.966 62.0706 412.215C65.384 414.942 69.45 421.126 68.2482 424.639C67.4238 426.942 65.6542 428.784 63.3848 429.701C60.274 431.025 56.7575 431.025 53.6467 429.701C49.7924 427.856 46.9659 424.385 45.9416 420.239C45.6523 419.283 45.5794 418.275 45.7282 417.288C46.167 415.738 47.1319 414.388 48.4576 413.472C50.3772 411.849 52.7105 410.792 55.1967 410.419Z" fill="#093F68"/>
<ellipse cx="7.56232" cy="421.597" rx="2.42609" ry="2.42426" fill="#093F68"/>
<ellipse cx="5.08008" cy="408.556" rx="2.42609" ry="2.42426" fill="#093F68"/>
<path fill-rule="evenodd" clip-rule="evenodd" d="M-6.63785 360.703C-4.59159 365.631 0.224127 368.841 5.56302 368.836C12.8448 368.824 18.7431 362.925 18.7493 355.649C18.7493 350.314 15.5326 345.504 10.5996 343.464C5.66671 341.423 -0.0106335 342.554 -3.7842 346.328C-7.55776 350.102 -8.6841 355.776 -6.63785 360.703ZM-4.56247 351.453C-2.86391 347.365 1.1327 344.701 5.56302 344.706C11.6042 344.718 16.4967 349.612 16.5029 355.649C16.5029 360.076 13.8335 364.067 9.73999 365.76C5.64647 367.453 0.935335 366.514 -2.19577 363.382C-5.32687 360.251 -6.26103 355.542 -4.56247 351.453Z" fill="#093F68"/>
<path fill-rule="evenodd" clip-rule="evenodd" d="M29.1388 355.649C29.1388 362.932 35.0475 368.836 42.3363 368.836C49.6224 368.83 55.5275 362.929 55.5337 355.649C55.5337 348.365 49.625 342.461 42.3363 342.461C35.0475 342.461 29.1388 348.365 29.1388 355.649ZM31.3852 355.649C31.3852 349.605 36.2881 344.706 42.3363 344.706C48.3818 344.712 53.2812 349.608 53.2873 355.649C53.2873 361.692 48.3844 366.592 42.3363 366.592C36.2881 366.592 31.3852 361.692 31.3852 355.649Z" fill="#093F68"/>
<path d="M30.3631 355.245C30.1251 355.246 29.8931 355.171 29.7004 355.031C26.3987 352.451 21.8456 352.174 18.2551 354.336C17.7456 354.627 17.0972 354.478 16.7674 353.992C16.4376 353.507 16.5377 352.849 16.9971 352.484C21.3825 349.837 26.9391 350.126 31.0258 353.213C31.4208 353.499 31.5861 354.007 31.435 354.47C31.2838 354.933 30.8508 355.246 30.3631 355.245Z" fill="#093F68"/>
<path d="M54.1073 354.122C53.7959 354.121 53.499 353.991 53.2873 353.763C52.867 353.31 52.8921 352.603 53.3435 352.181L65.5525 340.823C66.0112 340.451 66.6794 340.498 67.0818 340.929C67.4843 341.361 67.4835 342.03 67.0801 342.461L54.8261 353.808C54.6321 353.996 54.3769 354.107 54.1073 354.122Z" fill="#093F68"/>
<path d="M14.3913 373.707L34.6087 371.462C34.6087 371.462 34.1819 384.515 25.5446 384.773C16.9072 385.032 14.3913 373.707 14.3913 373.707Z" fill="#080C20"/>
<path fill-rule="evenodd" clip-rule="evenodd" d="M13.2906 373.943C13.4029 374.448 16.0649 385.941 25.2413 385.941L25.6232 385.896C35.1591 385.604 35.7319 372.069 35.7319 371.496C35.7437 371.17 35.6125 370.854 35.3725 370.632C35.1331 370.411 34.8093 370.304 34.4851 370.34L14.2678 372.585C13.9483 372.617 13.6581 372.785 13.4703 373.045C13.2854 373.305 13.22 373.632 13.2906 373.943ZM25.5221 383.696C19.4681 383.943 16.7388 377.467 15.829 374.717L33.3844 372.753C33.0138 375.84 31.5761 383.449 25.5221 383.696Z" fill="#093F68"/>
<path d="M258.995 302.124C258.403 302.124 257.923 301.645 257.923 301.053V294.198C257.544 269.757 237.597 250.142 213.12 250.142C188.644 250.142 168.697 269.757 168.318 294.198V301.053C168.318 301.645 167.838 302.124 167.246 302.124C166.653 302.124 166.173 301.645 166.173 301.053V294.198C166.561 268.58 187.466 248.016 213.12 248.016C238.775 248.016 259.68 268.58 260.068 294.198V301.053C260.068 301.337 259.955 301.61 259.753 301.811C259.552 302.012 259.28 302.124 258.995 302.124Z" fill="#093F68"/>
<path d="M255.799 444.041C255.799 448.121 263.06 448.1 272.015 448.1C280.97 448.1 288.22 448.1 288.22 444.041C288.22 439.981 280.959 434.401 272.015 434.401C263.07 434.401 255.799 439.96 255.799 444.041Z" fill="#080C20"/>
<path fill-rule="evenodd" clip-rule="evenodd" d="M271.843 449.171H272.347C276.141 449.292 279.938 449.117 283.705 448.646C285.088 448.411 289.292 447.672 289.292 444.041C289.292 439.232 281.324 433.33 272.015 433.33C262.706 433.33 254.727 439.221 254.727 444.041C254.727 447.672 258.931 448.411 260.314 448.646C264.138 449.116 267.992 449.291 271.843 449.171ZM272.337 447.029H271.843C268.115 447.14 264.383 446.975 260.679 446.536C256.872 445.872 256.872 444.587 256.872 444.041C256.872 440.667 263.66 435.472 272.015 435.472C280.369 435.472 287.147 440.656 287.147 444.041C287.147 444.587 287.147 445.872 283.34 446.536C279.69 446.981 276.012 447.146 272.337 447.029Z" fill="#093F68"/>
<path d="M254.909 430.342C254.909 430.342 260.346 432.152 261.548 434.358C262.749 436.565 263.768 445.819 266.781 445.015C269.795 444.212 267.189 434.969 269.602 435.161C272.015 435.354 288.627 443.409 288.22 439.189C287.812 434.969 280.273 428.328 273.827 425.115C267.382 421.902 256.4 420.488 256.4 420.488L254.909 430.342Z" fill="#080C20"/>
<path fill-rule="evenodd" clip-rule="evenodd" d="M265.172 445.797C265.546 446.018 265.972 446.136 266.406 446.14C266.637 446.141 266.868 446.113 267.092 446.054C269.527 445.422 269.527 442.188 269.527 439.328C269.49 438.302 269.562 437.275 269.741 436.265C270.446 436.419 272.14 437.059 273.777 437.677C273.959 437.746 274.141 437.814 274.321 437.882C281.442 440.602 286.632 442.413 288.552 440.945C289.123 440.506 289.414 439.794 289.314 439.082C288.788 433.983 280.262 427.139 274.299 424.151C267.768 420.895 256.99 419.427 256.528 419.427C255.953 419.357 255.426 419.755 255.338 420.327L253.837 430.181C253.757 430.696 254.06 431.193 254.555 431.359C256.507 432.013 259.864 433.533 260.593 434.872C261.029 435.932 261.37 437.029 261.612 438.15C262.631 442.006 263.478 444.812 265.172 445.797ZM262.523 433.855C261.387 431.841 257.794 430.277 256.089 429.635L257.301 421.655C260.196 422.094 268.315 423.498 273.388 426.025C280.112 429.388 286.772 435.751 287.179 439.242C285.734 439.89 278.432 437.118 275.169 435.88L275.082 435.847C273.36 435.07 271.563 434.471 269.72 434.058C269.222 434.001 268.723 434.165 268.358 434.508C267.382 435.365 267.382 437.132 267.382 439.274C267.371 440.827 267.339 443.73 266.535 443.944C266.461 443.984 266.372 443.984 266.299 443.944C265.237 443.334 264.293 439.746 263.735 437.603C263.458 436.317 263.052 435.061 262.523 433.855Z" fill="#093F68"/>
<path d="M220.086 299.597C204.739 297.712 185.081 301.664 173.852 312.749C172.054 314.296 170.705 316.297 169.948 318.544C168.029 325.934 169.777 333.153 163.245 338.712C161.583 340.136 159.674 341.283 158.151 342.868C153.218 348.009 154.237 357.563 160.157 361.547C156.821 364.76 156.307 370.03 157.325 374.55C159.159 382.733 165.262 389.545 172.533 393.69C179.804 397.835 188.18 399.773 196.503 400.887C208.611 402.505 221.073 402.58 232.881 399.474C244.688 396.367 255.853 389.888 263.178 380.119C265.669 377.071 267.325 373.428 267.982 369.548C268.733 363.539 265.837 357.766 263.06 352.411C267.135 347.623 268.132 340.726 266.685 334.62C265.237 328.515 261.58 323.107 257.29 318.555C247.472 308.109 234.317 301.405 220.086 299.597Z" fill="#080C20"/>
<path fill-rule="evenodd" clip-rule="evenodd" d="M196.352 401.991C201.603 402.695 206.895 403.053 212.193 403.062C219.244 403.171 226.281 402.372 233.127 400.684C246.029 397.289 257 390.273 264.004 380.933C266.942 377.024 268.583 373.393 269.023 369.859C269.795 363.571 266.846 357.573 264.304 352.668C268.015 347.88 269.291 341.154 267.693 334.46C266.363 328.88 263.113 323.299 258.041 317.88C248.029 307.28 234.653 300.468 220.183 298.601C205.35 296.79 185.027 300.282 173.059 312.064C171.12 313.743 169.675 315.916 168.876 318.351C168.356 320.568 167.997 322.819 167.804 325.088C167.794 325.169 167.785 325.25 167.776 325.331C167.231 330.177 166.757 334.391 162.538 337.941C161.916 338.466 161.272 338.948 160.597 339.451C159.451 340.268 158.375 341.178 157.379 342.172C154.745 345.045 153.513 348.932 154.012 352.796C154.32 356.253 155.953 359.457 158.57 361.74C155.985 364.921 155.127 369.709 156.275 374.828C158.055 382.69 163.771 389.92 171.997 394.664C178.357 398.328 185.864 400.587 196.352 401.991ZM174.603 313.51C181.746 306.462 195.591 300.175 212.053 300.175C214.689 300.189 217.322 300.364 219.936 300.7C233.897 302.488 246.81 309.042 256.486 319.251C261.333 324.403 264.379 329.651 265.623 334.867C267.092 341.068 265.795 347.527 262.223 351.715C261.939 352.046 261.884 352.516 262.084 352.904C265.119 358.752 267.575 364.011 266.899 369.462C266.513 372.622 265.001 375.91 262.298 379.52C255.574 388.474 245.032 395.264 232.591 398.477C222.081 401.241 210.316 401.701 196.621 399.87C186.4 398.499 179.129 396.325 173.026 392.812C165.326 388.367 159.964 381.64 158.323 374.357C157.229 369.452 158.173 364.975 160.854 362.361C161.087 362.135 161.205 361.816 161.176 361.494C161.149 361.174 160.979 360.883 160.715 360.701C158.124 358.74 156.459 355.798 156.112 352.571C155.765 349.343 156.767 346.115 158.881 343.65C159.803 342.747 160.797 341.92 161.851 341.175C162.066 341.008 162.281 340.844 162.496 340.68C162.97 340.319 163.442 339.959 163.9 339.569C168.778 335.468 169.344 330.408 169.894 325.489C169.902 325.423 169.909 325.357 169.916 325.292C170.12 323.127 170.479 320.979 170.989 318.865C171.693 316.79 172.941 314.941 174.603 313.51Z" fill="#093F68"/>
<path d="M212.632 257.407H214.316C235.941 257.407 253.472 274.915 253.472 296.512V308.069H173.488V296.512C173.488 274.915 191.018 257.407 212.643 257.407H212.632Z" fill="#080C20"/>
<path fill-rule="evenodd" clip-rule="evenodd" d="M173.488 309.151H253.536C254.129 309.151 254.609 308.671 254.609 308.08V296.512C254.579 274.315 236.553 256.336 214.327 256.336H212.632C190.429 256.366 172.439 274.338 172.415 296.512V308.08C172.415 308.671 172.895 309.151 173.488 309.151ZM252.464 307.008H174.614V296.512C174.631 275.518 191.665 258.502 212.686 258.478H214.381C235.404 258.502 252.44 275.516 252.464 296.512V307.008Z" fill="#093F68"/>
<path d="M220.579 368.07C219.987 368.07 219.507 367.59 219.507 366.999V359.501H206.809V366.999C206.809 367.59 206.329 368.07 205.737 368.07C205.144 368.07 204.664 367.59 204.664 366.999V358.43C204.664 357.839 205.144 357.359 205.737 357.359H220.579C221.172 357.359 221.652 357.839 221.652 358.43V366.999C221.652 367.59 221.172 368.07 220.579 368.07Z" fill="#093F68"/>
<path d="M213.126 360.412C191.226 360.412 173.445 347.398 173.445 323.406V306.612C196.814 310.993 200.374 286.765 200.374 286.765C221.577 323.589 252.71 299.232 252.71 299.232V323.406C252.753 347.398 235.015 360.412 213.126 360.412Z" fill="#080C20"/>
<path fill-rule="evenodd" clip-rule="evenodd" d="M172.372 323.406C172.372 346.188 188.77 361.483 213.126 361.483C237.449 361.483 253.837 346.188 253.794 323.385V299.211C253.796 298.799 253.562 298.423 253.191 298.243C252.821 298.062 252.38 298.11 252.056 298.365L252.049 298.37C251.688 298.644 238.956 308.3 224.708 305.53C215.528 303.795 207.656 297.294 201.307 286.251C201.077 285.855 200.62 285.648 200.17 285.737C199.725 285.822 199.381 286.178 199.312 286.626L199.312 286.629C199.276 286.852 197.612 297.229 189.939 302.692C185.596 305.798 180.072 306.751 173.638 305.541C173.322 305.483 172.996 305.57 172.751 305.778C172.506 305.985 172.367 306.291 172.372 306.612V323.406ZM174.517 323.449V307.93L174.56 307.887C181.07 308.851 186.679 307.705 191.269 304.513C197.286 300.229 199.849 293.417 200.921 289.668C207.356 299.864 215.239 305.937 224.387 307.715C236.72 310.05 247.605 304.009 251.734 301.289V323.449C251.734 348.277 232.366 359.384 213.126 359.384C193.886 359.384 174.517 348.277 174.517 323.449Z" fill="#093F68"/>
<ellipse cx="193.489" cy="322.11" rx="3.80725" ry="3.80228" fill="#093F68"/>
<ellipse cx="232.752" cy="322.11" rx="3.80725" ry="3.80228" fill="#093F68"/>
<path d="M213.533 334.588C212.298 334.579 211.065 334.479 209.844 334.289C209.564 334.239 209.315 334.08 209.152 333.847C208.989 333.614 208.925 333.326 208.975 333.046C209.025 332.766 209.184 332.518 209.417 332.355C209.651 332.192 209.939 332.129 210.219 332.179C212.127 332.486 214.071 332.486 215.979 332.179C216.311 331.193 214.906 327.016 212.761 323.053C212.572 322.713 212.582 322.298 212.787 321.968C212.993 321.638 213.361 321.444 213.75 321.463C214.138 321.481 214.487 321.709 214.659 322.057C215.732 324.038 218.949 330.69 217.877 333.132C217.639 333.674 217.158 334.072 216.579 334.203C215.583 334.454 214.56 334.583 213.533 334.588Z" fill="#093F68"/>
<path d="M167.492 294.263H173.488V333.4H167.492C163.104 333.4 159.546 329.846 159.546 325.463V302.199C159.546 297.816 163.104 294.263 167.492 294.263Z" fill="#093F68"/>
<path fill-rule="evenodd" clip-rule="evenodd" d="M167.492 334.46H173.488C174.08 334.46 174.56 333.98 174.56 333.389V294.263C174.56 293.671 174.08 293.192 173.488 293.192H167.492C162.514 293.198 158.479 297.227 158.473 302.199V325.463C158.479 330.433 162.515 334.46 167.492 334.46ZM160.618 302.199C160.618 298.408 163.696 295.334 167.492 295.334H172.415V332.318H167.492C163.7 332.318 160.624 329.25 160.618 325.463V302.199Z" fill="#093F68"/>
<path d="M258.759 333.389H252.764V294.252H258.759C263.148 294.252 266.706 297.805 266.706 302.189V325.452C266.706 329.835 263.148 333.389 258.759 333.389Z" fill="#093F68"/>
<path fill-rule="evenodd" clip-rule="evenodd" d="M252.764 334.46H258.748C263.726 334.46 267.762 330.433 267.768 325.463V302.199C267.762 297.227 263.727 293.198 258.748 293.192H252.764C252.172 293.192 251.692 293.671 251.692 294.263V333.389C251.692 333.98 252.172 334.46 252.764 334.46ZM258.748 332.318H253.837V295.334H258.748C262.545 295.334 265.623 298.408 265.623 302.199V325.463C265.617 329.25 262.541 332.318 258.748 332.318Z" fill="#093F68"/>
<path d="M213.49 349.251C210.653 349.31 207.849 348.635 205.35 347.291C203.072 346.088 201.247 344.179 200.149 341.85C199.93 341.3 200.199 340.677 200.75 340.458C201.3 340.239 201.925 340.507 202.144 341.058C202.315 341.497 206.691 351.618 224.665 344.678C225.219 344.465 225.841 344.741 226.054 345.294C226.268 345.847 225.991 346.468 225.438 346.681C221.645 348.255 217.596 349.126 213.49 349.251Z" fill="#093F68"/>
<path d="M187.108 353.707C181.917 353.707 174.903 353.107 171.353 350.247C165.369 345.406 165.594 333.978 165.605 333.496C165.605 332.904 166.085 332.425 166.677 332.425C167.27 332.425 167.75 332.904 167.75 333.496C167.75 333.603 167.546 344.356 172.694 348.491C177.842 352.625 193.071 351.211 193.242 351.201C193.828 351.144 194.349 351.57 194.411 352.154C194.441 352.437 194.358 352.72 194.179 352.94C194 353.161 193.74 353.302 193.457 353.332C193.199 353.439 190.55 353.707 187.108 353.707Z" fill="#093F68"/>
<path fill-rule="evenodd" clip-rule="evenodd" d="M185.639 356.642H195.913C198.543 356.642 200.675 354.512 200.675 351.886C200.675 349.26 198.543 347.131 195.913 347.131H185.639C183.009 347.131 180.877 349.26 180.877 351.886C180.877 354.512 183.009 356.642 185.639 356.642ZM183.022 351.865C183.022 350.421 184.193 349.251 185.639 349.251H195.913C197.358 349.251 198.53 350.421 198.53 351.865C198.53 353.308 197.358 354.478 195.913 354.478H185.639C184.193 354.478 183.022 353.308 183.022 351.865Z" fill="#093F68"/>
<path d="M195.13 366.999H231.175C244.034 366.999 254.459 377.409 254.459 390.252V440.956H171.879V390.262C171.873 377.429 182.279 367.017 195.13 366.999Z" fill="#080C20"/>
<path fill-rule="evenodd" clip-rule="evenodd" d="M171.89 442.038H254.469C254.761 442.049 255.045 441.942 255.255 441.74C255.466 441.537 255.585 441.258 255.585 440.967V390.262C255.573 376.828 244.671 365.94 231.218 365.928H195.173C181.725 365.945 170.829 376.832 170.817 390.262V440.967C170.817 441.558 171.297 442.038 171.89 442.038ZM253.397 439.896H172.962L172.919 390.262C172.931 378.015 182.866 368.088 195.13 368.07H231.175C243.441 368.088 253.379 378.013 253.397 390.262V439.896Z" fill="#093F68"/>
<path d="M184.341 314.399C183.461 314.373 182.745 313.682 182.689 312.804C182.634 311.926 183.257 311.151 184.126 311.014L201.843 308.797C202.743 308.741 203.531 309.394 203.641 310.288C203.752 311.181 203.148 312.006 202.262 312.171L184.545 314.388L184.341 314.399Z" fill="#093F68"/>
<path d="M241.911 314.399H241.739L224.022 312.182C223.136 312.017 222.532 311.192 222.642 310.298C222.753 309.405 223.541 308.752 224.44 308.808L242.157 311.025C243.026 311.16 243.649 311.933 243.596 312.81C243.544 313.686 242.832 314.379 241.954 314.41L241.911 314.399Z" fill="#093F68"/>
<path d="M213.158 386.278C204.16 386.278 191.194 366.999 191.194 366.999H235.111C235.111 366.999 222.145 386.278 213.158 386.278Z" fill="#080C20"/>
<path fill-rule="evenodd" clip-rule="evenodd" d="M190.313 367.612C190.978 368.59 203.746 387.349 213.158 387.349C222.15 387.349 234.231 370.188 235.885 367.838C235.969 367.719 236.027 367.637 236.055 367.599C236.267 367.279 236.292 366.87 236.119 366.528C235.932 366.176 235.564 365.957 235.165 365.96H191.248C190.852 365.961 190.49 366.179 190.304 366.528C190.112 366.859 190.112 367.267 190.304 367.599C190.306 367.603 190.31 367.607 190.313 367.612ZM213.158 385.207C206.895 385.207 197.543 374.057 193.253 368.07H233.063C228.741 374.057 219.421 385.207 213.158 385.207Z" fill="#093F68"/>
<path fill-rule="evenodd" clip-rule="evenodd" d="M196.438 367.759C197.479 368.82 202.541 373.747 205.951 373.747C206.219 373.749 206.487 373.713 206.745 373.639C209.919 372.772 213.501 368.177 213.898 367.652C214.145 367.328 214.186 366.892 214.005 366.528C213.825 366.16 213.45 365.927 213.04 365.928H197.2C196.764 365.925 196.37 366.186 196.203 366.588C196.036 366.99 196.129 367.453 196.438 367.759ZM206.176 371.583C205.05 371.883 202.39 370.212 199.913 368.07H210.734C209.394 369.505 207.592 371.187 206.176 371.583Z" fill="#093F68"/>
<path fill-rule="evenodd" clip-rule="evenodd" d="M219.571 373.639C219.826 373.713 220.089 373.749 220.354 373.747C223.765 373.747 228.87 368.809 229.878 367.759C230.182 367.451 230.271 366.991 230.103 366.592C229.938 366.192 229.549 365.93 229.116 365.928H213.265C212.857 365.929 212.485 366.161 212.305 366.527C212.125 366.893 212.169 367.329 212.418 367.652C212.815 368.177 216.354 372.772 219.571 373.639ZM220.14 371.583C218.713 371.187 216.901 369.505 215.582 368.07H226.392C223.926 370.201 221.212 371.883 220.14 371.583Z" fill="#093F68"/>
<path d="M213.265 387.349C212.673 387.349 212.193 386.87 212.193 386.278V366.999C212.193 366.407 212.673 365.928 213.265 365.928C213.858 365.928 214.338 366.407 214.338 366.999V386.278C214.338 386.87 213.858 387.349 213.265 387.349Z" fill="#093F68"/>
<path d="M163.095 362.715C163.095 362.715 136.016 413.922 145.936 424.729C155.856 435.536 168.275 428.296 171.9 420.445C175.525 412.594 177.188 368.53 177.188 368.53L163.095 362.715Z" fill="#080C20"/>
<path fill-rule="evenodd" clip-rule="evenodd" d="M145.185 425.458C149.421 430.052 153.797 431.274 157.25 431.274C158.014 431.284 158.778 431.237 159.535 431.134C165.361 430.061 170.325 426.278 172.898 420.948C176.482 413.228 178.092 372.837 178.25 368.879C178.254 368.763 178.258 368.678 178.26 368.627C178.294 368.164 178.026 367.731 177.595 367.556L163.503 361.729C162.992 361.514 162.402 361.723 162.141 362.211C161.025 364.332 134.825 414.211 145.185 425.458ZM146.762 424.001C139.169 415.764 155.921 378.781 163.589 364.075L176.072 369.248C175.836 375.021 174.174 413.001 170.956 420.006C168.68 424.675 164.332 427.998 159.224 428.971C154.719 429.678 150.408 427.964 146.762 424.001Z" fill="#093F68"/>
<path d="M171.546 343.007C171.546 343.007 189.467 341.208 191.076 345.224C192.685 349.241 187.043 350.247 180.405 349.444C180.405 349.444 185.842 352.464 185.842 357.691C185.842 362.918 177.188 368.53 177.188 368.53L163.095 362.704C163.095 362.704 163.288 347.634 171.546 343.007Z" fill="#080C20"/>
<path fill-rule="evenodd" clip-rule="evenodd" d="M176.769 369.527C176.903 369.577 177.045 369.603 177.188 369.602C177.39 369.611 177.591 369.562 177.767 369.462C177.787 369.447 177.83 369.417 177.895 369.372C179.051 368.571 186.915 363.116 186.915 357.681C186.838 355.053 185.719 352.565 183.805 350.761C186.883 350.815 190.293 350.408 191.741 348.512C192.537 347.44 192.666 346.013 192.073 344.817C190.304 340.394 175.836 341.497 171.439 341.936C171.292 341.946 171.148 341.99 171.021 342.064C162.334 346.938 162.023 362.05 162.023 362.693C162.019 363.127 162.277 363.52 162.677 363.689L176.769 369.527ZM164.201 361.997L164.2 361.997V362.008C164.2 362.004 164.2 362.001 164.201 361.997ZM177.07 367.352L164.201 361.997C164.363 359.036 165.43 347.876 171.825 344.078C180.04 343.275 189.253 343.639 190.057 345.642C190.454 346.563 190.239 346.991 190.057 347.238C189.306 348.223 186.357 349.112 180.544 348.405C180.032 348.336 179.543 348.643 179.382 349.135C179.222 349.626 179.435 350.161 179.89 350.408C179.944 350.429 184.781 353.161 184.781 357.713C184.781 361.279 179.59 365.606 177.07 367.352Z" fill="#093F68"/>
<path d="M253.536 456.583H169.584C165.532 456.589 162.16 453.474 161.851 449.439L158.108 401.241C157.941 399.089 158.68 396.965 160.148 395.381C161.616 393.797 163.68 392.897 165.841 392.897H257.268C259.43 392.897 261.493 393.797 262.961 395.381C264.429 396.965 265.168 399.089 265.001 401.241L261.258 449.439C260.95 453.47 257.584 456.583 253.536 456.583Z" fill="#080C20"/>
<path fill-rule="evenodd" clip-rule="evenodd" d="M169.584 457.654H253.536C258.135 457.631 261.952 454.101 262.33 449.524L266.073 401.326C266.261 398.877 265.419 396.46 263.748 394.657C262.076 392.854 259.728 391.828 257.268 391.826H165.841C163.381 391.828 161.033 392.854 159.362 394.657C157.691 396.46 156.848 398.877 157.036 401.326L160.779 449.524C161.157 454.105 164.981 457.636 169.584 457.654ZM160.945 396.08C162.21 394.714 163.988 393.936 165.852 393.936H257.279C259.142 393.936 260.921 394.714 262.185 396.08C263.45 397.447 264.086 399.279 263.939 401.134L260.207 449.332C259.923 452.803 257.024 455.48 253.536 455.49H169.595C166.107 455.48 163.208 452.803 162.924 449.332L159.192 401.134C159.045 399.279 159.681 397.447 160.945 396.08Z" fill="#093F68"/>
<path fill-rule="evenodd" clip-rule="evenodd" d="M202.777 424.729C202.777 429.568 206.704 433.491 211.549 433.491C216.392 433.485 220.316 429.566 220.322 424.729C220.322 419.891 216.394 415.968 211.549 415.968C206.704 415.968 202.777 419.891 202.777 424.729ZM204.921 424.729C204.921 421.074 207.889 418.11 211.549 418.11C215.207 418.116 218.171 421.076 218.177 424.729C218.177 428.385 215.21 431.348 211.549 431.348C207.889 431.348 204.921 428.385 204.921 424.729Z" fill="#093F68"/>
<path fill-rule="evenodd" clip-rule="evenodd" d="M326.642 276.404H352.842C353.499 276.404 354.033 275.869 354.033 275.208V248.897C354.033 248.237 353.499 247.701 352.842 247.701H326.642C325.984 247.701 325.451 248.237 325.451 248.897V275.208C325.451 275.869 325.984 276.404 326.642 276.404ZM351.651 274.012H327.833V250.093H351.651V274.012Z" fill="#093F68"/>
<path fill-rule="evenodd" clip-rule="evenodd" d="M308.41 277.471C308.421 286.14 315.426 293.16 324.058 293.154C328.21 293.151 332.189 291.49 335.12 288.538C338.051 285.585 339.693 281.584 339.683 277.415C339.663 268.746 332.651 261.733 324.019 261.748C315.386 261.764 308.399 268.802 308.41 277.471ZM311.799 272.372C313.852 267.393 318.692 264.147 324.058 264.152C331.353 264.165 337.269 270.09 337.301 277.415C337.321 282.804 334.102 287.673 329.149 289.748C324.196 291.823 318.486 290.694 314.687 286.888C310.887 283.082 309.747 277.351 311.799 272.372Z" fill="#093F68"/>
</svg>
