<svg width="336" height="444" viewBox="0 0 336 444" fill="none" xmlns="http://www.w3.org/2000/svg">
<path d="M75.3536 394.801L62.8252 430.225H98.2071L75.3536 394.801Z" fill="#080C20"/>
<path fill-rule="evenodd" clip-rule="evenodd" d="M62.8252 431.421H98.2071L98.2547 431.481C98.6898 431.48 99.0899 431.241 99.2982 430.857C99.5066 430.474 99.49 430.007 99.2551 429.639L76.4016 394.215C76.1466 393.814 75.6789 393.602 75.2106 393.677C74.7624 393.733 74.3842 394.038 74.2341 394.466L61.7057 429.83C61.5787 430.195 61.6352 430.6 61.8574 430.915C62.0796 431.231 62.4402 431.419 62.8252 431.421ZM96.0158 429.029H64.5163L75.6632 397.492L96.0158 429.029Z" fill="#093F68"/>
<path d="M205.83 270.734C202.904 270.059 199.858 270.112 196.957 270.889C186.832 273.926 178.17 280.591 172.615 289.618C171.652 285.113 173.23 280.441 176.724 277.455C169.949 277.569 163.728 281.235 160.325 287.118C157.574 291.986 156.443 300.489 160.122 305.261C163.362 309.446 169.281 308.681 172.615 312.018C174.687 314.099 175.426 321.585 176.521 324.468C179.308 331.99 182.607 339.309 185.644 346.736L251.811 334.37C251.811 334.37 250.703 317.854 248.238 304.352C245.773 290.849 236.424 273.927 220.633 280.696C219.741 278.881 218.445 277.297 216.845 276.068C213.661 273.416 209.879 271.585 205.83 270.734Z" fill="#093F68"/>
<path fill-rule="evenodd" clip-rule="evenodd" d="M184.548 347.19C184.731 347.637 185.163 347.93 185.644 347.932L185.882 347.92L252.037 335.482C252.61 335.377 253.023 334.871 253.013 334.286C253.004 334.261 252.971 333.85 252.912 333.124C252.589 329.116 251.489 315.499 249.381 304.136C247.738 295.262 243.069 284.224 234.912 279.835C230.663 277.562 225.625 277.321 221.18 279.177C220.221 277.646 219.014 276.288 217.608 275.159C214.289 272.386 210.349 270.465 206.127 269.562C202.985 268.838 199.713 268.9 196.6 269.741C187.348 272.525 179.25 278.26 173.532 286.078C173.769 283.087 175.183 280.315 177.462 278.376C177.848 278.053 177.991 277.522 177.819 277.048C177.649 276.575 177.201 276.259 176.7 276.259C169.499 276.361 162.881 280.259 159.277 286.52C156.204 291.974 155.287 300.967 159.17 305.99C161.13 308.54 163.958 309.455 166.456 310.264L166.518 310.284C168.439 310.721 170.233 311.601 171.758 312.855C172.86 313.974 173.667 317.688 174.262 320.423L174.27 320.461C174.547 321.959 174.921 323.437 175.39 324.886C177.086 329.436 178.994 333.966 180.854 338.383C181.018 338.773 181.181 339.161 181.344 339.548C182.432 342.1 183.5 344.647 184.548 347.19ZM161.361 287.704C164.006 283.101 168.529 279.896 173.735 278.938C171.458 282.107 170.627 286.097 171.448 289.917C171.557 290.388 171.938 290.746 172.413 290.826C172.883 290.898 173.352 290.681 173.604 290.275C178.995 281.496 187.413 275.013 197.255 272.061C199.981 271.33 202.844 271.285 205.591 271.93C209.424 272.744 213.001 274.484 216.012 277C217.481 278.107 218.675 279.539 219.501 281.186C219.625 281.481 219.861 281.713 220.156 281.832C220.45 281.955 220.78 281.955 221.073 281.832C225.658 279.859 229.934 279.907 233.78 281.976C241.2 285.97 245.558 296.662 247.023 304.603C249.179 315.94 250.298 329.574 250.596 333.425L186.43 345.385C185.705 343.643 184.973 341.908 184.239 340.169C184.02 339.652 183.802 339.134 183.583 338.616C181.535 333.868 179.451 328.952 177.629 324.049C177.206 322.707 176.864 321.341 176.605 319.959C176.589 319.888 176.574 319.817 176.558 319.746C175.799 316.285 175.024 312.751 173.449 311.169C171.671 309.623 169.546 308.535 167.256 307.999C164.862 307.234 162.588 306.504 161.063 304.531C157.884 300.417 158.646 292.488 161.361 287.704Z" fill="#093F68"/>
<ellipse cx="178.352" cy="344.472" rx="9.34997" ry="10.487" transform="rotate(-10.55 178.352 344.472)" fill="#080C20"/>
<path fill-rule="evenodd" clip-rule="evenodd" d="M168.018 346.485C169.054 352.166 173.663 356.196 178.736 356.196C179.332 356.201 179.927 356.144 180.511 356.029C183.34 355.487 185.798 353.742 187.251 351.245C190.39 345.861 189.117 338.98 184.262 335.088C182.009 333.278 179.086 332.537 176.247 333.054C170.543 334.119 166.827 340.146 168.018 346.485ZM180.058 353.684C175.628 354.498 171.269 351.077 170.34 346.042H170.364C169.423 341.007 172.27 336.224 176.688 335.398C178.859 335.018 181.089 335.593 182.809 336.977C186.687 340.138 187.697 345.663 185.191 350.001C184.089 351.915 182.218 353.257 180.058 353.684Z" fill="#093F68"/>
<path d="M216.726 372.09C236.9 368.323 250.334 339.943 246.63 320.007L242.176 322.709C242.176 322.709 226.861 309.745 224.229 294.162C224.229 294.162 219.93 304.352 202.114 308.609C182.726 313.226 171.079 311.24 171.079 311.24L176.355 342.287C180.058 362.176 196.6 375.869 216.726 372.09Z" fill="#080C20"/>
<path fill-rule="evenodd" clip-rule="evenodd" d="M189.645 367.031C195.539 371.532 202.749 373.949 210.153 373.908C212.42 373.881 214.68 373.649 216.905 373.214C226.551 371.408 235.567 363.898 241.64 352.62C247.333 342.048 249.619 329.754 247.761 319.72C247.689 319.335 247.433 319.01 247.077 318.85C246.721 318.69 246.309 318.716 245.975 318.918L242.271 321.191C239.389 318.559 227.599 307.078 225.372 293.923C225.285 293.397 224.862 292.992 224.334 292.931C223.806 292.87 223.302 293.167 223.098 293.66C223.062 293.756 218.739 303.371 201.792 307.401C183.774 311.705 172.429 310.19 171.332 310.043C171.28 310.036 171.251 310.032 171.246 310.032C170.867 309.969 170.48 310.094 170.209 310.367C169.937 310.639 169.813 311.027 169.876 311.408L175.164 342.502C176.787 352.202 181.949 360.947 189.645 367.031ZM177.545 342.084L172.532 312.652C176.355 313.034 186.93 313.477 202.388 309.793C215.083 306.767 221.133 300.812 223.693 297.331C227.564 311.79 240.807 323.14 241.402 323.642C241.794 323.977 242.357 324.02 242.795 323.75L245.737 321.956C246.952 331.117 244.701 341.976 239.58 351.544C233.852 362.188 225.444 369.244 216.512 370.918C207.602 372.724 198.349 370.617 191.086 365.13C183.882 359.401 179.056 351.187 177.545 342.084Z" fill="#093F68"/>
<ellipse cx="207.599" cy="327.646" rx="3.38266" ry="3.39601" transform="rotate(-10.55 207.599 327.646)" fill="#093F68"/>
<ellipse cx="183.381" cy="330.806" rx="3.38218" ry="3.39649" fill="#093F68"/>
<path d="M196.862 342.359H196.374C195.77 342.324 195.218 342.004 194.885 341.498C193.492 339.489 195.099 333.509 195.862 331.021C195.977 330.601 196.311 330.277 196.733 330.176C197.156 330.074 197.599 330.212 197.891 330.535C198.183 330.858 198.277 331.314 198.136 331.727C197.064 335.255 196.469 338.903 196.767 339.979C198.396 339.918 200.005 339.591 201.53 339.01C202.133 338.822 202.777 339.139 202.999 339.733C203.22 340.327 202.942 340.991 202.364 341.247C200.597 341.895 198.742 342.27 196.862 342.359Z" fill="#093F68"/>
<path d="M202.102 316.921C201.251 316.994 200.426 316.605 199.938 315.901C199.45 315.197 199.373 314.286 199.736 313.509C200.098 312.733 200.846 312.21 201.697 312.137L217.608 309.375C218.448 309.223 219.304 309.535 219.853 310.191C220.402 310.847 220.559 311.748 220.265 312.553C219.971 313.357 219.271 313.942 218.429 314.087L202.555 316.885C202.405 316.911 202.254 316.923 202.102 316.921Z" fill="#093F68"/>
<path d="M174.163 321.131C172.848 321.207 171.72 320.197 171.645 318.876C171.569 317.555 172.574 316.423 173.889 316.347L189.919 314.445C190.77 314.345 191.61 314.708 192.122 315.398C192.634 316.088 192.74 317 192.402 317.79C192.063 318.58 191.33 319.129 190.479 319.229L174.449 321.131H174.163Z" fill="#093F68"/>
<path d="M239.878 323.905C239.878 323.905 247.523 316.156 253.704 323.128C259.885 330.1 257.813 344.356 242.569 343.172" fill="#080C20"/>
<path d="M244.367 344.44C243.76 344.44 243.176 344.44 242.486 344.356C241.828 344.307 241.335 343.731 241.384 343.07C241.433 342.41 242.007 341.915 242.664 341.964C248.488 342.419 252.775 340.505 254.716 336.57C256.606 332.34 255.867 327.392 252.823 323.905C251.637 322.413 249.874 321.499 247.976 321.394C244.201 321.274 240.747 324.683 240.723 324.719C240.5 324.945 240.195 325.072 239.878 325.072C239.56 325.072 239.256 324.945 239.032 324.719C238.57 324.252 238.57 323.499 239.032 323.032C239.199 322.865 243.248 318.894 248.035 319.002C250.593 319.115 252.981 320.32 254.597 322.315C258.31 326.51 259.194 332.516 256.848 337.611C255.562 340.254 252.251 344.44 244.367 344.44Z" fill="#093F68"/>
<path fill-rule="evenodd" clip-rule="evenodd" d="M198.029 332.181C198.317 334.528 200.295 336.295 202.65 336.307C202.869 336.311 203.088 336.299 203.305 336.271L218.846 334.394C220.077 334.247 221.199 333.615 221.965 332.637C222.731 331.659 223.079 330.415 222.931 329.18L221.74 319.516C221.705 319.201 221.546 318.913 221.299 318.715C221.051 318.517 220.734 318.426 220.418 318.464L197.874 321.179C197.559 321.217 197.271 321.381 197.076 321.633C196.886 321.882 196.801 322.195 196.838 322.506L198.029 332.181ZM200.399 331.918L199.375 323.439L219.465 321.011L220.478 329.49C220.625 330.751 219.731 331.894 218.477 332.05L202.936 333.927C201.683 334.075 200.548 333.176 200.399 331.918Z" fill="#093F68"/>
<path fill-rule="evenodd" clip-rule="evenodd" d="M170.15 335.554C170.433 337.908 172.422 339.679 174.783 339.68L175.402 339.644L190.884 337.766C193.442 337.455 195.264 335.121 194.957 332.552L193.766 322.877C193.685 322.224 193.094 321.759 192.444 321.836L169.995 324.551C169.679 324.59 169.392 324.753 169.197 325.006C169.007 325.254 168.921 325.568 168.959 325.879L170.15 335.554ZM172.52 335.291L171.496 326.812L191.622 324.36L192.646 332.839C192.793 334.097 191.898 335.237 190.645 335.386L175.056 337.288C174.455 337.369 173.846 337.203 173.369 336.827C172.891 336.45 172.585 335.897 172.52 335.291Z" fill="#093F68"/>
<path d="M220.942 324.551C220.284 324.591 219.719 324.088 219.68 323.427C219.64 322.767 220.142 322.199 220.799 322.159L236.019 320.318C236.677 320.242 237.271 320.715 237.347 321.376C237.423 322.036 236.951 322.633 236.293 322.709L221.085 324.551H220.942Z" fill="#093F68"/>
<path d="M201.626 354.318C199.197 354.289 196.787 353.886 194.48 353.122C194.074 352.994 193.767 352.658 193.674 352.241C193.581 351.823 193.717 351.388 194.031 351.098C194.345 350.809 194.788 350.71 195.195 350.838C201.863 353.216 209.296 351.594 214.38 346.652C216.987 344.237 219.127 341.358 220.692 338.161C220.958 337.557 221.662 337.284 222.264 337.551C222.866 337.819 223.138 338.525 222.871 339.13C222.8 339.357 216.024 354.318 201.626 354.318Z" fill="#093F68"/>
<path d="M198.684 327.577L193.218 328.055L198.684 327.577Z" fill="#FFC9B0"/>
<path d="M193.218 329.251C192.6 329.254 192.083 328.781 192.027 328.163C191.997 327.846 192.095 327.529 192.298 327.284C192.502 327.04 192.794 326.887 193.111 326.859L198.565 326.393C199.215 326.338 199.788 326.817 199.851 327.469C199.881 327.787 199.783 328.103 199.58 328.348C199.376 328.593 199.084 328.746 198.767 328.773L193.313 329.251H193.218Z" fill="#093F68"/>
<path d="M156.574 345.911H62.0273C60.7576 345.909 59.5694 346.539 58.8541 347.592C58.1389 348.646 57.9892 349.987 58.4545 351.173L84.0233 417.297H186.835L160.146 348.339C159.562 346.872 158.147 345.91 156.574 345.911Z" fill="#080C20"/>
<path fill-rule="evenodd" clip-rule="evenodd" d="M84.0472 418.493H186.823C187.21 418.486 187.57 418.289 187.787 417.967C188.008 417.643 188.057 417.232 187.918 416.866L161.23 347.908C160.477 345.975 158.617 344.706 156.55 344.715H62.0273C60.369 344.727 58.8226 345.557 57.8923 346.936C56.9621 348.314 56.767 350.064 57.3708 351.615L82.9396 417.727C83.1164 418.187 83.5562 418.491 84.0472 418.493ZM185.084 416.101H84.8689L59.5621 350.695C59.258 349.881 59.3697 348.969 59.8613 348.254C60.3528 347.539 61.1618 347.11 62.0273 347.107H156.574C157.66 347.103 158.638 347.767 159.039 348.781L185.084 416.101Z" fill="#093F68"/>
<path d="M152.846 352.297L67.5293 352.201L91.6452 413.506L176.664 413.589L152.846 352.297Z" fill="#080C20"/>
<path fill-rule="evenodd" clip-rule="evenodd" d="M91.6452 414.714L176.664 414.797C177.063 414.786 177.429 414.575 177.641 414.235C177.865 413.909 177.914 413.493 177.772 413.123L153.954 351.819C153.777 351.359 153.337 351.055 152.846 351.053L67.5293 350.97C67.1332 350.969 66.7627 351.166 66.5408 351.496C66.3203 351.824 66.2757 352.24 66.4217 352.608L90.5376 413.96C90.7182 414.415 91.1572 414.714 91.6452 414.714ZM174.925 412.405L92.455 412.322L69.2799 353.409L152.036 353.493L174.925 412.405Z" fill="#093F68"/>
<path fill-rule="evenodd" clip-rule="evenodd" d="M137.317 365.846C138.345 368.357 140.782 369.997 143.485 369.997C147.133 369.978 150.096 367.034 150.155 363.372C150.184 360.656 148.577 358.192 146.087 357.133C143.598 356.074 140.718 356.629 138.796 358.539C136.873 360.448 136.29 363.335 137.317 365.846ZM139.199 363.292C139.209 360.922 141.125 359.007 143.485 359.006C145.868 359.026 147.786 360.979 147.773 363.372C147.74 365.741 145.806 367.639 143.446 367.617C141.086 367.595 139.188 365.662 139.199 363.292Z" fill="#093F68"/>
<path d="M148.964 378.536C148.768 378.535 148.576 378.486 148.404 378.393L117.655 361.649L95.6943 378.249C95.3539 378.508 94.9021 378.564 94.5089 378.397C94.1158 378.231 93.8412 377.866 93.7884 377.441C93.7357 377.015 93.9129 376.594 94.2533 376.336L116.881 359.27C117.253 358.987 117.756 358.95 118.167 359.174L149.583 376.24C150.064 376.501 150.306 377.057 150.171 377.588C150.036 378.12 149.558 378.491 149.011 378.488L148.964 378.536Z" fill="#093F68"/>
<rect x="54.1792" y="430.225" width="233.799" height="11.1343" rx="3.53" fill="#093F68"/>
<path fill-rule="evenodd" clip-rule="evenodd" d="M58.4545 442.555H283.775C286.756 442.555 289.175 440.132 289.181 437.138V434.459C289.175 431.463 286.758 429.036 283.775 429.029H58.4545C55.4712 429.036 53.0544 431.463 53.0478 434.459V437.138C53.0544 440.132 55.4731 442.555 58.4545 442.555ZM55.4296 434.459C55.4296 432.781 56.7839 431.421 58.4545 431.421H283.775C284.577 431.421 285.346 431.741 285.913 432.311C286.481 432.88 286.799 433.653 286.799 434.459V437.138C286.793 438.811 285.441 440.163 283.775 440.163H58.4545C56.7886 440.163 55.4362 438.811 55.4296 437.138V434.459Z" fill="#093F68"/>
<path d="M236.138 442.842C235.48 442.842 234.947 442.307 234.947 441.646V391.213C234.947 390.553 235.48 390.017 236.138 390.017C236.796 390.017 237.329 390.553 237.329 391.213V441.646C237.329 442.307 236.796 442.842 236.138 442.842Z" fill="#093F68"/>
<path d="M131.707 378.333L126.765 385.975L125.241 392.529L125.872 393.007L131.291 388.845L136.602 381.598L131.707 378.333Z" fill="#093F68"/>
<path fill-rule="evenodd" clip-rule="evenodd" d="M125.157 393.964C125.363 394.119 125.614 394.203 125.872 394.203C126.142 394.211 126.406 394.127 126.622 393.964L132.053 389.802L132.291 389.563L137.555 382.339C137.75 382.076 137.828 381.743 137.772 381.42C137.716 381.096 137.529 380.811 137.257 380.629L132.362 377.364C132.1 377.188 131.779 377.123 131.469 377.185C131.155 377.25 130.88 377.44 130.707 377.711L125.765 385.353C125.69 385.471 125.634 385.6 125.598 385.736L124.086 392.29C123.991 392.74 124.162 393.205 124.526 393.486L125.157 393.964ZM126.884 390.723L127.873 386.453L132.077 379.995L134.923 381.909L130.457 388.008L126.884 390.723Z" fill="#093F68"/>
<path d="M153.584 378.118C153.584 378.118 154.037 367.462 150.012 366.338C145.986 365.213 137.721 362.965 135.483 366.338C133.244 369.71 127.658 376.24 129.218 379.935C130.778 383.631 145.986 391.68 145.986 391.68L163.755 413.207L183.381 391.273L153.584 378.118Z" fill="#080C20"/>
<path fill-rule="evenodd" clip-rule="evenodd" d="M162.873 413.912C163.092 414.176 163.413 414.333 163.755 414.343C164.105 414.349 164.441 414.201 164.672 413.936L184.298 392.015C184.552 391.728 184.654 391.337 184.572 390.962C184.492 390.584 184.235 390.267 183.881 390.113L154.823 377.352C154.871 374.326 154.609 366.385 150.357 365.189C146.105 363.994 137.269 361.53 134.518 365.668C134.137 366.242 133.66 366.912 133.136 367.641C133.046 367.767 132.954 367.894 132.862 368.023C130.127 371.815 126.58 376.735 128.147 380.402C129.766 384.193 142.223 391.01 145.248 392.624L162.873 413.912ZM136.471 366.959C137.09 366.086 138.496 365.764 140.187 365.764C143.396 365.933 146.574 366.483 149.654 367.402C151.798 368 152.524 373.956 152.358 377.986C152.316 378.497 152.603 378.979 153.072 379.182L181.356 391.608L163.755 411.281L146.868 390.878C146.765 390.76 146.645 390.659 146.51 390.579C140.782 387.542 131.267 381.861 130.278 379.433C129.29 377.005 132.886 371.994 135.042 369.005C135.122 368.891 135.202 368.78 135.281 368.669C135.726 368.045 136.137 367.468 136.471 366.959Z" fill="#093F68"/>
<path d="M144.414 359.461L133.089 376.527C133.089 376.527 134.899 379.553 137.769 379.385L148.964 362.176C148.964 362.176 146.344 358.289 144.414 359.461Z" fill="#093F68"/>
<path fill-rule="evenodd" clip-rule="evenodd" d="M132.066 377.079C132.171 377.251 134.182 380.533 137.531 380.533L137.793 380.521C138.166 380.497 138.505 380.297 138.71 379.983L149.964 362.881C150.236 362.477 150.236 361.946 149.964 361.542C149.631 361.051 146.57 356.722 143.759 358.444C143.606 358.528 143.479 358.652 143.39 358.803L132.065 375.798C131.818 376.188 131.818 376.686 132.065 377.077L132.066 377.079ZM137.138 378.106C136.103 377.873 135.183 377.28 134.542 376.431L145.177 360.442C145.748 360.442 146.76 361.279 147.558 362.271L137.138 378.106Z" fill="#093F68"/>
<path d="M126.444 391.213L124.038 394.801L126.444 391.213Z" fill="#093F68"/>
<path d="M124.038 395.997C123.8 395.998 123.568 395.927 123.371 395.794C122.832 395.425 122.688 394.689 123.049 394.143L125.431 390.555C125.8 390.007 126.541 389.863 127.087 390.233C127.633 390.602 127.777 391.347 127.408 391.895L125.026 395.483C124.802 395.808 124.432 396 124.038 395.997Z" fill="#093F68"/>
<path d="M198.684 374.637C198.684 374.637 200.566 365.883 204.793 363.312C209.021 360.741 234.733 357.045 239.878 361.47C243.046 364.41 245.032 368.414 245.463 372.724L198.684 374.637Z" fill="#080C20"/>
<path fill-rule="evenodd" clip-rule="evenodd" d="M197.767 375.415C197.996 375.684 198.332 375.837 198.684 375.833L245.463 373.92C245.788 373.906 246.094 373.759 246.309 373.513C246.52 373.274 246.627 372.959 246.606 372.64C246.166 368.016 244.047 363.716 240.652 360.561C235.031 355.741 208.783 359.461 204.174 362.283C199.602 365.083 197.632 373.873 197.519 374.376L197.517 374.386C197.436 374.75 197.529 375.13 197.767 375.415ZM205.413 364.328C208.259 362.594 220.323 360.621 229.35 360.621C233.864 360.621 237.627 361.111 239.104 362.379C241.733 364.807 243.487 368.041 244.093 371.576L200.232 373.382C201.054 370.523 202.84 365.895 205.413 364.328Z" fill="#093F68"/>
<path d="M266.149 441.646L253.764 374.135C253.132 373.382 252.775 372.939 252.775 372.939C250.493 370.737 247.45 369.507 244.284 369.507H196.743C195.445 369.507 190.657 368.885 182.988 375.343C171.912 384.683 156.192 396.416 147.916 404.381L154.99 440.259C156.383 440.594 179.07 430.177 179.07 430.177L181.309 441.598L266.149 441.646Z" fill="#080C20"/>
<path fill-rule="evenodd" clip-rule="evenodd" d="M181.309 442.842H266.113C266.47 442.848 266.811 442.693 267.041 442.42C267.272 442.146 267.369 441.783 267.304 441.431L254.931 373.884C254.892 373.681 254.802 373.491 254.669 373.334C254.449 373.089 254.262 372.878 254.107 372.705C253.817 372.379 253.644 372.185 253.597 372.138C251.096 369.717 247.757 368.367 244.284 368.371H196.433L196.419 368.37C194.562 368.322 189.674 368.195 182.202 374.482C178.058 377.986 173.187 381.897 168.423 385.676C167.994 386.021 167.564 386.366 167.133 386.712C159.611 392.755 151.993 398.875 147.07 403.615C146.779 403.896 146.649 404.305 146.725 404.704L153.799 440.582C153.889 441.042 154.238 441.406 154.692 441.515C154.707 441.515 154.723 441.515 154.74 441.516C155.269 441.528 157.129 441.571 178.165 431.947L180.118 441.885C180.233 442.451 180.734 442.854 181.309 442.842ZM264.72 440.45H182.285L180.201 430.034C180.131 429.676 179.903 429.37 179.58 429.202C179.258 429.034 178.877 429.024 178.546 429.173C169.435 433.37 159.17 437.855 155.919 438.92L149.214 404.835C154.358 399.968 162.266 393.641 169.924 387.53L170.206 387.304C174.869 383.584 179.664 379.758 183.75 376.312C190.37 370.735 194.575 370.746 196.265 370.75C196.311 370.75 196.355 370.751 196.398 370.751H244.308C247.133 370.742 249.854 371.826 251.906 373.776L252.668 374.673L264.72 440.45Z" fill="#093F68"/>
<path d="M223.8 376.156H266.387C270.228 376.067 273.914 377.675 276.47 380.555C279.026 383.435 280.194 387.296 279.666 391.118L274.2 441.646H201.816L207.318 391.118C208.37 382.723 215.377 376.362 223.8 376.156Z" fill="#093F68"/>
<path fill-rule="evenodd" clip-rule="evenodd" d="M201.816 442.842H274.2C274.805 442.84 275.312 442.382 275.379 441.778L280.845 391.237C281.406 387.081 280.129 382.886 277.348 379.756C274.568 376.625 270.563 374.873 266.387 374.96H223.824C214.79 375.172 207.268 381.984 206.127 390.986L200.637 441.527C200.603 441.862 200.711 442.196 200.935 442.448C201.16 442.698 201.48 442.841 201.816 442.842ZM273.128 440.45H203.15L208.509 391.237C209.489 383.45 215.987 377.55 223.8 377.352H266.387C269.888 377.265 273.25 378.729 275.578 381.355C277.907 383.982 278.966 387.504 278.475 390.986L273.128 440.45Z" fill="#093F68"/>
<path d="M230.315 376.156H272.913C276.752 376.071 280.435 377.68 282.988 380.56C285.541 383.439 286.708 387.299 286.18 391.118L280.714 441.646H208.342L213.809 391.118C214.862 382.714 221.882 376.351 230.315 376.156Z" fill="#080C20"/>
<path fill-rule="evenodd" clip-rule="evenodd" d="M208.342 442.842H280.714C281.321 442.86 281.844 442.417 281.929 441.814L287.395 391.273C287.911 387.093 286.609 382.892 283.822 379.744C281.042 376.645 277.066 374.902 272.913 374.96H230.315C221.283 375.173 213.765 381.986 212.63 390.986L207.163 441.527C207.129 441.862 207.237 442.196 207.461 442.448C207.686 442.698 208.006 442.841 208.342 442.842ZM279.654 440.45H209.664L214.988 391.237C215.975 383.44 222.49 377.538 230.315 377.352H272.913C276.384 377.291 279.712 378.733 282.048 381.311C284.371 383.96 285.447 387.485 285.001 390.986L279.654 440.45Z" fill="#093F68"/>
<path d="M147.916 404.393L98.2071 410.277C98.2071 410.277 86.4171 398.724 83.9162 399.166C81.4153 399.609 84.0829 408.255 84.0829 408.255C84.0829 408.255 75.2583 402.276 73.6982 407.418C72.1381 412.561 72.5073 422.176 74.6985 425.094C76.8898 428.012 86.0003 429.161 100.899 428.3L153.596 432.509L147.916 404.393Z" fill="#080C20"/>
<path fill-rule="evenodd" clip-rule="evenodd" d="M153.489 433.705H153.584C153.922 433.701 154.243 433.554 154.466 433.299C154.712 433.018 154.814 432.637 154.74 432.27L149.071 404.153C148.951 403.545 148.387 403.129 147.773 403.197L98.5882 409.033C93.9555 404.536 86.2861 397.528 83.6899 398.006C83.0646 398.122 82.5208 398.507 82.2013 399.059C81.32 400.518 81.6892 403.472 82.2013 405.792C80.1053 404.739 77.1518 403.627 74.9844 404.405C73.8038 404.855 72.9153 405.855 72.6025 407.083C70.9591 412.465 71.2449 422.511 73.7935 425.836C76.342 429.161 85.3929 430.392 100.875 429.507L153.489 433.705ZM100.982 427.104H100.887H100.851C80.9389 428.252 76.6397 425.561 75.7108 424.365C73.8411 421.913 73.3885 412.764 74.901 407.765C75.0015 407.249 75.3626 406.823 75.8537 406.641C77.6758 406.007 81.4986 407.897 83.4875 409.248C83.9054 409.535 84.4584 409.525 84.866 409.224C85.2736 408.922 85.4467 408.395 85.2976 407.909C84.2734 404.692 83.8566 401.211 84.2735 400.374C85.9526 400.745 92.2883 406.151 97.3735 411.138C97.6314 411.393 97.9907 411.516 98.35 411.473L146.975 405.708L152.108 431.182L100.982 427.104Z" fill="#093F68"/>
<path d="M179.07 431.421C178.523 431.412 178.053 431.031 177.929 430.496C177.805 429.962 178.059 429.411 178.546 429.161L195.552 420.777C195.935 420.571 196.399 420.59 196.763 420.828C197.127 421.065 197.334 421.483 197.303 421.918C197.271 422.352 197.007 422.736 196.612 422.918L179.606 431.361C179.434 431.422 179.251 431.442 179.07 431.421Z" fill="#093F68"/>
<path d="M97.302 398.401C96.7683 398.429 96.2814 398.096 96.1111 397.588L84.0472 361.853C83.8764 361.44 83.9486 360.967 84.2345 360.625C84.5203 360.283 84.9722 360.129 85.4063 360.226C85.8403 360.324 86.1842 360.656 86.298 361.087L98.088 395.973L122.418 395.064C123.076 395.064 123.609 395.6 123.609 396.26C123.609 396.921 123.076 397.456 122.418 397.456L97.2067 398.401H97.302Z" fill="#093F68"/>
<path d="M106.424 394.203C105.929 394.207 105.483 393.902 105.305 393.438L99.7791 378.763C99.5456 378.146 99.8548 377.455 100.47 377.221C101.085 376.986 101.773 377.297 102.006 377.914L107.532 392.589C107.644 392.885 107.634 393.214 107.505 393.504C107.375 393.793 107.137 394.019 106.841 394.131C106.707 394.178 106.566 394.203 106.424 394.203Z" fill="#093F68"/>
<path fill-rule="evenodd" clip-rule="evenodd" d="M98.2071 429.041H106.424C107.082 429.041 107.615 428.506 107.615 427.845V408.937C107.615 408.277 107.082 407.741 106.424 407.741H98.2071C97.5494 407.741 97.0162 408.277 97.0162 408.937V427.845C97.0162 428.506 97.5494 429.041 98.2071 429.041ZM105.233 426.649H99.398V410.133H105.233V426.649Z" fill="#093F68"/>
<path fill-rule="evenodd" clip-rule="evenodd" d="M96.5994 418.134C96.5994 421.304 99.1587 423.875 102.316 423.875C105.473 423.875 108.032 421.304 108.032 418.134C108.032 414.964 105.473 412.393 102.316 412.393C99.1587 412.393 96.5994 414.964 96.5994 418.134ZM98.9812 418.134C98.9812 416.285 100.474 414.785 102.316 414.785V414.797C104.153 414.797 105.644 416.289 105.65 418.134C105.65 419.983 104.157 421.483 102.316 421.483C100.474 421.483 98.9812 419.983 98.9812 418.134Z" fill="#093F68"/>
<path d="M164.636 401.642C163.927 401.645 163.22 401.568 162.528 401.415C159.9 400.79 157.601 399.198 156.085 396.954C155.737 396.392 155.907 395.653 156.466 395.303C157.025 394.953 157.761 395.125 158.11 395.686C159.292 397.389 161.054 398.598 163.064 399.083C165.446 399.609 168.161 398.891 171.043 396.978C173.151 395.748 174.65 393.688 175.176 391.297C175.89 387.35 173.234 383.631 173.199 383.595C172.945 383.249 172.895 382.794 173.067 382.4C173.239 382.007 173.607 381.736 174.032 381.689C174.457 381.642 174.875 381.826 175.128 382.172C175.259 382.363 178.403 386.728 177.51 391.739C176.886 394.794 175.004 397.44 172.329 399.023C170.079 400.64 167.402 401.551 164.636 401.642Z" fill="#093F68"/>
<path d="M163.755 436.994C163.24 436.994 162.783 436.661 162.623 436.169L151.107 400.829C150.904 400.201 151.245 399.527 151.869 399.322C152.494 399.118 153.166 399.46 153.37 400.087L164.886 435.427C165.091 436.051 164.756 436.724 164.136 436.934C164.012 436.972 163.884 436.992 163.755 436.994Z" fill="#093F68"/>
<path fill-rule="evenodd" clip-rule="evenodd" d="M73.1265 323.642H136.602C137.26 323.642 137.793 323.107 137.793 322.446V270.267C137.793 269.607 137.26 269.071 136.602 269.071H73.1265C72.4688 269.071 71.9356 269.607 71.9356 270.267V322.446C71.9356 323.107 72.4688 323.642 73.1265 323.642ZM135.411 321.25H74.3175V271.463H135.411V321.25Z" fill="#093F68"/>
<path fill-rule="evenodd" clip-rule="evenodd" d="M87.0364 307.975H113.236C113.894 307.975 114.427 307.44 114.427 306.779V280.469C114.427 279.808 113.894 279.273 113.236 279.273H87.0364C86.3786 279.273 85.8455 279.808 85.8455 280.469V306.779C85.8455 307.44 86.3786 307.975 87.0364 307.975ZM112.045 305.584H88.2273V281.665H112.045V305.584Z" fill="#093F68"/>
<path fill-rule="evenodd" clip-rule="evenodd" d="M97.1949 300.042C97.2058 308.712 104.211 315.732 112.843 315.725C116.995 315.722 120.974 314.061 123.905 311.109C126.836 308.157 128.478 304.155 128.468 299.986C128.448 291.317 121.436 284.304 112.804 284.32C104.171 284.335 97.1839 291.373 97.1949 300.042ZM100.585 294.943C102.637 289.964 107.477 286.719 112.843 286.723C120.138 286.737 126.054 292.661 126.086 299.986C126.106 305.376 122.887 310.245 117.934 312.319C112.981 314.394 107.271 313.265 103.472 309.459C99.6718 305.654 98.532 299.923 100.585 294.943Z" fill="#093F68"/>
<path fill-rule="evenodd" clip-rule="evenodd" d="M271.913 358.839H312.821C313.137 358.839 313.44 358.713 313.663 358.489C313.886 358.264 314.012 357.96 314.012 357.643V303.969C314.012 303.309 313.479 302.773 312.821 302.773H271.913C271.255 302.773 270.722 303.309 270.722 303.969V357.643C270.722 358.304 271.255 358.839 271.913 358.839ZM311.63 356.447H273.104V305.165H311.63V356.447Z" fill="#093F68"/>
<path fill-rule="evenodd" clip-rule="evenodd" d="M279.749 352.046H304.699C305.097 352.044 305.468 351.842 305.687 351.508C305.908 351.18 305.952 350.763 305.806 350.396L293.326 319.767C293.143 319.321 292.711 319.028 292.23 319.026C291.745 319.024 291.307 319.317 291.122 319.767L278.654 350.396C278.504 350.761 278.544 351.178 278.761 351.508C278.98 351.842 279.351 352.044 279.749 352.046ZM302.96 349.654H281.524L292.242 323.343L302.96 349.654Z" fill="#093F68"/>
<path fill-rule="evenodd" clip-rule="evenodd" d="M279.749 329.251H301.4C302.058 329.251 302.591 328.716 302.591 328.055V310.212C302.591 309.551 302.058 309.016 301.4 309.016H279.749C279.092 309.016 278.558 309.551 278.558 310.212V328.055C278.558 328.716 279.092 329.251 279.749 329.251ZM300.209 326.859H280.988L280.94 311.408H300.209V326.859Z" fill="#093F68"/>
<path fill-rule="evenodd" clip-rule="evenodd" d="M258.658 289.079H284.477C285.135 289.079 285.668 288.544 285.668 287.884V268.354C285.668 267.693 285.135 267.158 284.477 267.158H258.658C258.001 267.158 257.467 267.693 257.467 268.354V287.884C257.467 288.544 258.001 289.079 258.658 289.079ZM283.286 286.688H259.849V269.55H283.286V286.688Z" fill="#093F68"/>
<path d="M266.149 281.665C265.678 281.661 265.254 281.38 265.065 280.947C264.937 280.657 264.929 280.327 265.043 280.031C265.157 279.735 265.384 279.497 265.673 279.368L271.091 276.976C271.462 276.818 271.888 276.858 272.223 277.084L274.771 278.794L278.773 273.054C279.005 272.678 279.424 272.462 279.864 272.491C280.303 272.521 280.69 272.791 280.871 273.194C281.051 273.597 280.996 274.068 280.726 274.417L276.057 281.15C275.687 281.68 274.964 281.818 274.426 281.461L271.437 279.464L266.673 281.569C266.509 281.644 266.329 281.676 266.149 281.665Z" fill="#093F68"/>
<path d="M129.809 171.761C134.739 177.924 121.25 190.59 114.888 183.618C107.4 175.422 125.054 165.816 129.809 171.761Z" fill="#080C20"/>
<path fill-rule="evenodd" clip-rule="evenodd" d="M114.068 184.35C115.425 185.902 117.395 186.78 119.457 186.754C122.346 186.598 125.092 185.448 127.229 183.497C131.175 180.132 133.624 174.788 130.662 171.083C129.142 169.182 126.551 168.439 123.272 169.007C119.074 169.728 113.816 172.832 112.341 177.137C111.461 179.673 112.135 182.488 114.068 184.35ZM123.633 171.127C124.181 171.031 124.737 170.979 125.294 170.974C126.665 170.874 128.008 171.4 128.945 172.406C131.011 175.007 128.902 179.159 125.797 181.804C122.693 184.448 118.375 185.792 115.686 182.842C114.316 181.558 113.82 179.594 114.417 177.815C115.456 174.777 119.501 171.848 123.633 171.127Z" fill="#093F68"/>
<path fill-rule="evenodd" clip-rule="evenodd" d="M56.5358 14.9357C56.6519 14.9514 56.7696 14.9514 56.8856 14.9357C57.1384 14.9424 57.3856 14.8613 57.5852 14.7062L59.8699 12.7501C60.2677 12.4178 60.3773 11.8518 60.1322 11.3951C59.5529 10.3351 54.3933 1.0464 49.5288 2.07362C46.9381 2.62001 46.1729 3.88764 45.987 4.87114C45.7656 6.26186 46.3497 7.65819 47.4956 8.47733C47.9846 8.74536 48.5117 8.93699 49.0588 9.04558C51.1248 9.61382 54.9726 10.6738 55.8143 14.1598C55.905 14.5255 56.1776 14.8187 56.5358 14.9357ZM49.9988 4.19362H50.3159C52.5131 4.19362 55.7816 8.25877 57.782 11.6573L57.3885 11.9852C55.6723 8.54301 51.7327 7.44222 49.688 6.87089C49.6749 6.86724 49.6619 6.86361 49.649 6.86001C49.4738 6.81365 49.2792 6.75029 49.1132 6.69626C48.9271 6.63567 48.777 6.58681 48.7308 6.58681C48.3415 6.26941 48.1231 5.78828 48.1405 5.2864C48.228 4.8165 48.9057 4.4231 49.9988 4.19362Z" fill="#093F68"/>
<path d="M57.6071 129.744H81.7108C89.1008 129.744 96.1882 132.678 101.414 137.902C106.639 143.126 109.575 150.211 109.575 157.599V207.397H29.743V157.588C29.749 142.208 42.2225 129.744 57.6071 129.744V129.744Z" fill="#080C20"/>
<path fill-rule="evenodd" clip-rule="evenodd" d="M29.743 208.489H109.619C110.205 208.466 110.669 207.984 110.668 207.397V157.588C110.65 141.609 97.6942 128.663 81.7108 128.651H57.6618C49.976 128.642 42.6016 131.686 37.1608 137.113C31.72 142.539 28.6586 149.904 28.6499 157.588V207.397C28.6499 208 29.1393 208.489 29.743 208.489ZM108.525 206.304H30.8361L30.8908 157.588C30.9089 142.817 42.8858 130.848 57.6618 130.836H81.7108C96.5038 130.824 108.507 142.799 108.525 157.588V206.304Z" fill="#093F68"/>
<path d="M95.0689 185.825C94.4652 185.825 93.9758 185.336 93.9758 184.732V145.84C93.9758 145.237 94.4652 144.747 95.0689 144.747C95.6727 144.747 96.1621 145.237 96.1621 145.84V184.7C96.1709 184.995 96.0597 185.282 95.8537 185.494C95.6478 185.706 95.3646 185.825 95.0689 185.825Z" fill="#093F68"/>
<path d="M46.5992 208.489C45.9955 208.489 45.5061 208 45.5061 207.397V145.84C45.5061 145.237 45.9955 144.747 46.5992 144.747C47.2029 144.747 47.6923 145.237 47.6923 145.84V207.364C47.7012 207.659 47.59 207.946 47.384 208.158C47.178 208.37 46.8949 208.49 46.5992 208.489Z" fill="#093F68"/>
<path d="M85.2416 159.303H54.12L46.5992 166.57V207.397H92.7624V166.57L85.2416 159.303Z" fill="#093F68"/>
<path fill-rule="evenodd" clip-rule="evenodd" d="M46.5992 208.489H92.7624C93.3536 208.49 93.8378 208.02 93.8556 207.429V166.603C93.8573 166.307 93.739 166.023 93.5276 165.816L85.9959 158.549C85.7932 158.354 85.5231 158.244 85.2416 158.243H54.12C53.8385 158.244 53.5684 158.354 53.3657 158.549L45.834 165.816C45.6226 166.023 45.5043 166.307 45.506 166.603V207.397C45.506 208 45.9955 208.489 46.5992 208.489ZM91.6693 206.304H47.6923V167.04L54.5682 160.396H84.7934L91.6693 167.04V206.304Z" fill="#093F68"/>
<path d="M54.12 162.319C53.5163 162.319 53.0269 161.83 53.0269 161.227V129.744C53.0269 129.14 53.5163 128.651 54.12 128.651C54.7237 128.651 55.2131 129.14 55.2131 129.744V161.227C55.2131 161.83 54.7237 162.319 54.12 162.319Z" fill="#093F68"/>
<path d="M85.4165 162.319C84.8128 162.319 84.3234 161.83 84.3234 161.227V129.744C84.3234 129.14 84.8128 128.651 85.4165 128.651C86.0203 128.651 86.5097 129.14 86.5097 129.744V161.227C86.5097 161.83 86.0203 162.319 85.4165 162.319Z" fill="#093F68"/>
<path d="M23.7745 120.837C24.9551 123.449 27.4802 124.312 31.8746 124.116C41.3193 123.679 50.8734 124.116 60.2962 124.116H112.45C115.554 124.116 117.15 122.597 117.325 119.46C118.101 105.943 117.325 92.6217 116.44 79.1477C115.696 67.0178 114.046 54.5819 107.935 43.8398C96.1402 23.0769 64.5485 13.6134 50.8734 31.3712C50.8734 31.3712 41.1116 28.0928 31.8528 39.5233C24.2664 48.8666 23.5449 61.2806 23.4137 72.7658L22.9218 115.461C22.8296 117.293 23.12 119.124 23.7745 120.837Z" fill="#080C20"/>
<path fill-rule="evenodd" clip-rule="evenodd" d="M22.736 121.285C24.2226 124.575 27.3927 125.241 30.5628 125.241C31.011 125.241 31.4264 125.219 31.8746 125.187C38.2367 124.892 44.7518 124.979 51.0592 125.066C54.1416 125.154 57.213 125.154 60.2845 125.154H60.2853H112.439C116.134 125.143 118.189 123.187 118.407 119.471C119.184 105.91 118.342 92.2611 117.522 79.0384C116.822 67.6188 115.237 54.4398 108.875 43.2606C101.846 30.9122 87.6684 21.9732 73.5888 20.9897C63.9801 20.334 55.7925 23.5359 50.447 30.0926C47.8672 29.579 39.2205 28.6829 30.9892 38.8349C23.2279 48.3639 22.4408 60.7998 22.3097 72.7112L21.8177 115.417C21.6997 117.416 22.0129 119.418 22.736 121.285ZM32.6835 40.179C38.3241 33.2289 44.0412 31.9831 47.4409 31.9831C48.4822 31.9631 49.5207 32.0957 50.5236 32.3765C50.9659 32.5241 51.4531 32.3749 51.7369 32.005C56.6014 25.6887 64.308 22.5633 73.4357 23.1862C86.8157 24.1151 100.294 32.6169 106.973 44.3534C113.095 55.1611 114.614 67.4549 115.347 79.2023C116.221 92.9495 116.997 105.921 116.221 119.362C116.079 121.897 114.975 122.99 112.439 122.99H60.2853C58.7562 122.99 57.2272 122.968 55.6968 122.946C54.1637 122.925 52.6292 122.903 51.092 122.903C44.7518 122.815 38.2039 122.728 31.7762 123.023C26.7369 123.252 25.4142 121.897 24.7364 120.389C24.1476 118.809 23.8981 117.122 24.004 115.439L24.4959 72.7439C24.6271 61.2151 25.3595 49.1945 32.6835 40.179Z" fill="#093F68"/>
<path d="M63.0619 129.743H75.9062V137.098C75.9062 140.116 73.4592 142.562 70.4406 142.562H68.5057C65.4871 142.562 63.04 140.116 63.04 137.098V129.711L63.0619 129.743Z" fill="#080C20"/>
<path fill-rule="evenodd" clip-rule="evenodd" d="M68.5166 143.655H70.4515C74.0653 143.643 76.9885 140.711 76.9884 137.098V129.711C76.9884 129.107 76.499 128.618 75.8953 128.618H63.0509C62.4472 128.618 61.9578 129.107 61.9578 129.711V137.098C61.9578 140.719 64.8943 143.655 68.5166 143.655ZM64.155 137.098V130.814L74.835 130.803V137.098C74.835 139.512 72.8773 141.469 70.4624 141.469H68.5276C66.1127 141.469 64.155 139.512 64.155 137.098Z" fill="#093F68"/>
<ellipse cx="32.771" cy="96.3808" rx="12.4836" ry="10.753" fill="#080C20"/>
<path fill-rule="evenodd" clip-rule="evenodd" d="M19.1942 96.3808C19.1942 102.916 25.283 108.227 32.771 108.227C40.2481 108.227 46.3478 102.916 46.3478 96.3808C46.3478 89.846 40.259 84.535 32.771 84.535C25.283 84.535 19.1942 89.846 19.1942 96.3808ZM21.3805 96.3808C21.3805 91.0917 26.4854 86.7206 32.771 86.7206C39.0784 86.7206 44.1615 91.0917 44.1615 96.3808C44.1615 101.67 39.0565 106.041 32.771 106.041C26.4854 106.041 21.3805 101.67 21.3805 96.3808Z" fill="#093F68"/>
<ellipse cx="105.53" cy="96.3808" rx="12.4836" ry="10.753" fill="#080C20"/>
<path fill-rule="evenodd" clip-rule="evenodd" d="M91.9644 96.3808C91.9644 102.916 98.0532 108.227 105.53 108.227C113.018 108.227 119.107 102.916 119.107 96.3808C119.107 89.846 112.953 84.535 105.53 84.535C98.1079 84.535 91.9644 89.846 91.9644 96.3808ZM94.1507 96.3808C94.1507 91.0917 99.2556 86.7206 105.53 86.7206C111.816 86.7206 116.921 91.0917 116.921 96.3808C116.921 101.67 111.805 106.041 105.53 106.041C99.2556 106.041 94.1507 101.67 94.1507 96.3808Z" fill="#093F68"/>
<path d="M92.3798 64.4825L80.2023 48.8338C80.2023 48.8338 77.4585 58.4722 75.7751 64.4387L56.5686 64.3841L52.043 50.4074L46.7304 64.3513H31.8418V93.8565C31.8389 103.837 35.8029 113.41 42.8615 120.468C49.9201 127.526 59.4948 131.492 69.4786 131.492C90.2708 131.492 107.126 114.642 107.126 93.8565V64.5262L92.3798 64.4825Z" fill="#080C20"/>
<path fill-rule="evenodd" clip-rule="evenodd" d="M30.7487 93.7909C30.7668 115.168 48.0944 132.495 69.4786 132.519C90.8603 132.495 108.189 115.177 108.219 93.8018V64.5371C108.219 63.9336 107.73 63.4443 107.126 63.4443H92.9155L81.0658 48.2109C80.8142 47.8802 80.3966 47.7208 79.9885 47.7996C79.5804 47.8784 79.2523 48.1818 79.1419 48.5825C79.1419 48.5825 76.6386 57.3247 74.988 63.2804L57.4213 63.2258L53.1362 50.0031C52.9935 49.5649 52.5912 49.2633 52.1305 49.2491C51.6521 49.2173 51.2089 49.5009 51.0373 49.9484L45.9761 63.193H31.8418C31.2381 63.193 30.7487 63.6822 30.7487 64.2858V93.7909ZM32.935 93.8128V65.4004L46.7304 65.4441C47.1811 65.4428 47.5847 65.1651 47.747 64.7447L51.9665 53.6967L55.5411 64.7229C55.6864 65.1685 56.0998 65.4718 56.5686 65.4769L75.6876 65.5315C76.1926 65.5502 76.6446 65.2203 76.7807 64.7338C77.4234 62.4617 78.2192 59.6588 78.9576 57.0578C79.6007 54.7925 80.2004 52.6803 80.6176 51.2051L91.5162 65.2037C91.7225 65.4646 92.0363 65.6174 92.3689 65.6189H106.033V93.8128C106.262 107.017 99.3457 119.317 87.9435 125.986C76.5412 132.655 62.4268 132.655 51.0246 125.986C39.6223 119.317 32.7065 107.017 32.935 93.8128Z" fill="#093F68"/>
<path fill-rule="evenodd" clip-rule="evenodd" d="M39.9487 96.2045C42.0265 101.21 46.9166 104.472 52.3382 104.467C59.7331 104.455 65.7231 98.4624 65.7291 91.0699C65.7291 85.6501 62.4627 80.7642 57.4534 78.6912C52.4441 76.6181 46.6789 77.7664 42.8468 81.6003C39.0148 85.4342 37.8709 91.1985 39.9487 96.2045ZM41.9675 86.7852C43.7063 82.5945 47.7999 79.8645 52.3382 79.8689C58.5214 79.8809 63.5308 84.8887 63.5429 91.0699C63.5473 95.6067 60.8163 99.699 56.6243 101.437C52.4324 103.175 47.6057 102.217 44.3966 99.0089C41.1876 95.8009 40.2287 90.9758 41.9675 86.7852Z" fill="#093F68"/>
<path fill-rule="evenodd" clip-rule="evenodd" d="M74.2404 96.2045C76.3182 101.21 81.2084 104.472 86.6299 104.467C94.0248 104.455 100.015 98.4624 100.021 91.0699C100.021 85.6501 96.7544 80.7642 91.7451 78.6912C86.7359 76.6181 80.9706 77.7664 77.1386 81.6003C73.3065 85.4342 72.1626 91.1985 74.2404 96.2045ZM76.2592 86.7852C77.998 82.5945 82.0917 79.8645 86.6299 79.8689C92.8156 79.8749 97.8286 84.8863 97.8346 91.0699C97.839 95.6067 95.108 99.699 90.9161 101.437C86.7241 103.175 81.8974 102.217 78.6884 99.0089C75.4793 95.8009 74.5205 90.9758 76.2592 86.7852Z" fill="#093F68"/>
<ellipse cx="53.4969" cy="91.8021" rx="3.48711" ry="3.48598" fill="#093F68"/>
<ellipse cx="84.5202" cy="91.0699" rx="3.48711" ry="3.48598" fill="#093F68"/>
<path d="M68.8555 103.713C67.7167 103.705 66.5802 103.61 65.4558 103.429C65.0653 103.361 64.7409 103.09 64.6048 102.717C64.4687 102.345 64.5416 101.928 64.7961 101.624C65.0505 101.321 65.4479 101.175 65.8384 101.244C67.5446 101.534 69.2861 101.552 70.998 101.298C71.2057 100.293 69.9049 96.5666 68.0575 93.0697C67.7768 92.5325 67.9848 91.8696 68.5221 91.589C69.0594 91.3083 69.7225 91.5163 70.0033 92.0534C71.2167 94.3919 73.9495 100.074 72.9547 102.304C72.7266 102.846 72.2572 103.251 71.6867 103.396C70.7594 103.617 69.8086 103.723 68.8555 103.713Z" fill="#093F68"/>
<path d="M42.6202 78.7324C41.4127 78.8078 40.3727 77.8904 40.2972 76.6834C40.2218 75.4763 41.1394 74.4367 42.3469 74.3612L58.8423 72.3068C60.0498 72.1559 61.151 73.0121 61.3019 74.2192C61.4528 75.4262 60.5964 76.527 59.3889 76.6779L42.8935 78.7324H42.6202Z" fill="#093F68"/>
<path d="M94.26 79.1804C94.1291 79.1912 93.9975 79.1912 93.8665 79.1804L77.4694 76.1971C76.2801 75.9799 75.4921 74.8399 75.7095 73.6509C75.9268 72.462 77.0672 71.6743 78.2565 71.8916L94.6536 74.8858C95.861 74.9914 96.7542 76.0555 96.6485 77.2626C96.5429 78.4696 95.4784 79.3625 94.271 79.2569L94.26 79.1804Z" fill="#093F68"/>
<path d="M71.5665 117.428C65.0999 117.384 58.9197 114.756 54.4042 110.128C54.0403 109.675 54.0951 109.016 54.5288 108.629C54.9626 108.242 55.6236 108.262 56.033 108.675C56.4484 109.134 66.3741 119.941 81.7327 112.893C82.088 112.729 82.504 112.767 82.8237 112.993C83.1434 113.218 83.3185 113.597 83.2828 113.987C83.2472 114.377 83.0063 114.718 82.6509 114.882C79.1851 116.526 75.4025 117.395 71.5665 117.428Z" fill="#093F68"/>
<path d="M74.3212 90.5235C74.0983 90.523 73.8809 90.4543 73.6981 90.3268C71.1703 88.4738 67.7323 88.4738 65.2044 90.3268C64.9745 90.5065 64.6822 90.5868 64.3927 90.5499C64.1032 90.5129 63.8405 90.3618 63.6631 90.1301C63.2935 89.6558 63.3766 88.9722 63.8489 88.6002C67.1576 86.1874 71.6465 86.1874 74.9552 88.6002C75.4495 88.9447 75.5718 89.6241 75.2285 90.1192C75.0083 90.3915 74.671 90.5418 74.3212 90.5235Z" fill="#093F68"/>
<path d="M39.9529 88.6876C39.8548 88.6982 39.7559 88.6982 39.6578 88.6876L32.4759 86.7206C32.0682 86.647 31.7373 86.3493 31.621 85.9519C31.5048 85.5545 31.6233 85.1255 31.927 84.8439C32.2307 84.5624 32.6675 84.4766 33.0552 84.6225L40.2371 86.5785C40.8409 86.657 41.2666 87.2099 41.1882 87.8134C41.1097 88.4169 40.5566 88.8426 39.9529 88.7641V88.6876Z" fill="#093F68"/>
<path d="M99.4743 88.6876C98.8706 88.7661 98.3175 88.3404 98.2391 87.7369C98.1606 87.1334 98.5864 86.5805 99.1901 86.502L106.372 84.546C106.762 84.3955 107.203 84.4802 107.509 84.7643C107.816 85.0483 107.933 85.4821 107.812 85.8818C107.691 86.2816 107.353 86.5774 106.94 86.6441L99.7585 88.6111C99.6673 88.6483 99.5718 88.6739 99.4743 88.6876Z" fill="#093F68"/>
<path d="M35.799 43.5994C41.6473 42.0695 54.3823 34.1905 63.7833 33.1633C73.1843 32.1361 95.3313 34.6932 101.945 31.1307C108.558 27.5683 110.591 14.8592 100.928 5.70166C91.2648 -3.45587 63.7615 6.21527 45.9761 16.6295C28.1907 27.0437 21.5554 29.0872 21.8068 36.2122C22.0582 43.3371 29.9179 45.1184 35.799 43.5994Z" fill="#080C20"/>
<path fill-rule="evenodd" clip-rule="evenodd" d="M24.0806 42.9328C26.3557 44.4782 29.0594 45.2695 31.809 45.1948C33.2355 45.207 34.6574 45.0343 36.0395 44.6812C39.1551 43.6695 42.1884 42.42 45.1125 40.9439C50.9171 38.2557 58.1427 34.9117 63.8708 34.2888C68.4668 33.9887 73.0756 33.9376 77.6771 34.1359L78.1166 34.1436C87.9484 34.3166 98.0313 34.494 102.426 32.1251C105.618 30.4095 107.87 26.7705 108.449 22.3994C109.291 16.1596 106.798 9.78864 101.639 4.91483C91.0353 -5.13878 62.1874 5.86555 45.3858 15.7006C42.3509 17.4696 39.6557 18.9973 37.2436 20.3645C36.9885 20.5091 36.7365 20.6519 36.4877 20.793C25.1409 27.1748 20.4513 29.8194 20.6809 36.2559C20.7024 38.8917 21.9613 41.3643 24.0806 42.9328ZM76.737 4.87112C80.7957 3.79624 84.9682 3.20927 89.166 3.12266C93.4948 3.12266 97.5066 4.00782 100.185 6.49936C104.82 10.8924 107.061 16.6185 106.328 22.0825C105.804 25.7979 104.011 28.7812 101.431 30.1691C97.459 32.2904 87.0954 32.0942 77.8893 31.9199L77.7646 31.9175C73.0683 31.712 68.3642 31.7667 63.674 32.0814C57.6256 32.7339 50.2673 36.1353 44.3247 38.8822L44.238 38.9223C41.4169 40.3435 38.4938 41.5526 35.4929 42.5394C31.7653 43.5119 27.7972 42.9765 25.3923 41.1843C23.8034 40.0114 22.8662 38.1539 22.8672 36.1794C22.6813 31.0979 26.7369 28.7921 37.5589 22.6726C38.0075 22.4182 38.4668 22.1584 38.937 21.8923C41.1941 20.6151 43.7035 19.1953 46.4899 17.5583C55.9583 11.994 66.1317 7.72674 76.737 4.87112Z" fill="#093F68"/>
<path d="M44.8064 207.473C40.9586 210.992 32.3884 213.571 28.1252 206.38C23.8619 199.19 15.3464 168.33 15.3464 168.33L25.3267 159.347L45.2437 192.032C47.9875 196.666 48.6543 203.965 44.8064 207.473Z" fill="#080C20"/>
<path fill-rule="evenodd" clip-rule="evenodd" d="M34.367 211.932C34.9101 212.01 35.458 212.05 36.0067 212.052C39.5323 211.967 42.9136 210.635 45.5498 208.293C49.7802 204.424 49.179 196.545 46.1838 191.431L26.2559 158.746C26.086 158.47 25.8023 158.283 25.4814 158.237C25.1605 158.191 24.8356 158.289 24.5943 158.506L14.614 167.488C14.312 167.764 14.1897 168.186 14.297 168.581C14.3022 168.6 14.3092 168.625 14.3179 168.656C14.8919 170.721 22.953 199.725 27.1741 206.894C28.6603 209.598 31.3175 211.459 34.367 211.932ZM29.0653 205.801C25.2612 199.321 17.8387 173.127 16.5816 168.647L25.0862 160.997L44.3145 192.546C46.8834 196.917 47.3644 203.637 44.085 206.675C41.5248 208.965 38.1264 210.086 34.7059 209.768C32.3024 209.416 30.209 207.944 29.0653 205.801Z" fill="#093F68"/>
<path d="M7.53091 142.763L16.0961 139.609L19.9989 150.202L11.4338 153.355L7.53091 142.763Z" fill="#080C20"/>
<path fill-rule="evenodd" clip-rule="evenodd" d="M10.4163 153.73C10.5764 154.158 10.9864 154.442 11.4439 154.44C11.5763 154.431 11.706 154.398 11.8265 154.342L20.3857 151.184C20.9487 150.974 21.2368 150.349 21.0307 149.785L17.1282 139.185C17.0272 138.914 16.8228 138.694 16.5598 138.573C16.2936 138.464 15.9951 138.464 15.729 138.573L7.16969 141.731C6.60237 141.937 6.30881 142.563 6.51381 143.13L10.4163 153.73ZM12.0888 151.949L8.95151 143.403L15.4994 140.999L18.6476 149.545L12.0888 151.949Z" fill="#093F68"/>
<path d="M15.5431 139.808C16.1482 137.416 15.8035 134.882 14.5812 132.738C11.3018 126.913 8.18633 134.366 4.86319 122.903C4.86319 122.903 0.315731 129.689 2.185 135.229C4.21823 141.316 8.50334 142.442 8.50334 142.442L15.5431 139.808Z" fill="#080C20"/>
<path fill-rule="evenodd" clip-rule="evenodd" d="M8.19727 143.491C8.288 143.502 8.37982 143.502 8.47055 143.491C8.61501 143.518 8.76335 143.518 8.90781 143.491L15.9476 140.901C16.2623 140.781 16.5043 140.523 16.6035 140.201C17.2933 137.516 16.9007 134.667 15.5104 132.268C14.6878 130.332 12.814 129.052 10.7115 128.989L10.7048 128.989C9.1658 128.814 7.64817 128.642 5.89075 122.586C5.77372 122.18 5.43323 121.878 5.01624 121.81C4.59103 121.737 4.16281 121.921 3.9231 122.28C3.72633 122.575 -0.897642 129.58 1.11373 135.568C3.31094 142.136 7.98957 143.491 8.19727 143.491ZM3.17976 134.847C2.10849 131.645 3.48584 127.875 4.57898 125.569H4.61177C6.37173 130.268 8.26286 130.88 10.4601 131.077C11.8665 131.057 13.1287 131.937 13.5974 133.262C14.5765 134.996 14.9241 137.016 14.5812 138.978L8.45962 141.24C7.55232 140.868 4.71016 139.404 3.17976 134.847Z" fill="#093F68"/>
<path d="M12.3075 153.031C13.8488 158.418 15.9039 164.691 18.3525 171.324C23.217 184.547 28.3329 195.671 31.7216 200.829L35.4055 199.474C34.6184 193.333 31.2953 181.552 26.4199 168.33C23.9712 161.697 21.468 155.588 19.1505 150.485L12.3075 153.031Z" fill="#080C20"/>
<path fill-rule="evenodd" clip-rule="evenodd" d="M30.8034 201.452C31.0066 201.761 31.352 201.946 31.7216 201.944C31.854 201.934 31.9837 201.901 32.1042 201.845L35.799 200.479C36.2548 200.301 36.5362 199.841 36.4877 199.354C35.6678 192.895 32.2026 180.875 27.4474 167.98C25.0862 161.554 22.5611 155.358 20.1453 150.058C19.9104 149.533 19.308 149.279 18.7679 149.479L11.9249 152.004C11.3869 152.204 11.0956 152.786 11.2581 153.337C12.854 158.921 14.9529 165.281 17.325 171.706C22.0583 184.601 27.2397 195.988 30.8034 201.452ZM19.3801 170.952C17.161 164.942 15.1824 159.008 13.6411 153.708L18.5711 151.883C20.8339 156.932 23.2061 162.724 25.3923 168.734C29.8961 180.929 33.2192 192.284 34.203 198.775L32.1698 199.518C28.7155 193.901 23.8729 183.148 19.3801 170.952Z" fill="#093F68"/>
<path d="M10.183 161.676C9.85263 160.78 10.3118 159.785 11.2086 159.455L19.2144 156.507C20.1108 156.177 21.1052 156.636 21.4355 157.532L21.7165 158.295C22.0469 159.192 21.5877 160.187 20.691 160.517L12.6851 163.465C11.7887 163.795 10.7943 163.336 10.4641 162.439L10.183 161.676Z" fill="#080C20"/>
<path fill-rule="evenodd" clip-rule="evenodd" d="M10.941 164.33C11.3353 164.511 11.7643 164.604 12.1981 164.603C12.5493 164.606 12.8979 164.543 13.2257 164.418L20.8886 161.587C21.6297 161.312 22.2312 160.754 22.5611 160.035C22.901 159.318 22.9326 158.493 22.6485 157.752L22.4846 157.293C21.9063 155.752 20.1958 154.963 18.6477 155.522L10.9957 158.364C9.45143 158.932 8.65918 160.643 9.22481 162.188L9.39971 162.658C9.66836 163.4 10.2237 164.002 10.941 164.33ZM19.4457 157.577C19.5367 157.543 19.6328 157.524 19.7299 157.522C19.8306 157.524 19.9304 157.542 20.025 157.577C20.2175 157.665 20.3669 157.826 20.4404 158.025L20.6153 158.495C20.6973 158.687 20.6973 158.904 20.6153 159.096C20.5336 159.293 20.3699 159.444 20.1671 159.511L12.5152 162.352C12.3192 162.434 12.0989 162.434 11.903 162.352C11.7151 162.258 11.5677 162.099 11.4876 161.904L11.3236 161.434C11.2494 161.236 11.2573 161.016 11.3455 160.823C11.4337 160.63 11.5949 160.481 11.7937 160.407L19.4457 157.577Z" fill="#093F68"/>
<path d="M22.8501 155.103C23.7906 154.756 24.8338 155.238 25.1803 156.178L28.3835 164.872C28.7301 165.813 28.2484 166.857 27.3076 167.203L26.9905 167.32C26.0499 167.666 25.0068 167.185 24.6602 166.244L21.457 157.55C21.1104 156.609 21.5921 155.566 22.5329 155.219L22.8501 155.103Z" fill="#080C20"/>
<path fill-rule="evenodd" clip-rule="evenodd" d="M23.5777 166.483C24.0304 167.686 25.1779 168.485 26.4636 168.494C26.8285 168.492 27.1906 168.429 27.5349 168.308C29.1313 167.719 29.9484 165.948 29.3604 164.352L26.2778 155.981C25.9969 155.21 25.4179 154.584 24.6708 154.244C23.9301 153.906 23.0869 153.871 22.3206 154.145C21.5521 154.426 20.9273 155.001 20.5846 155.744C20.2419 156.486 20.2097 157.335 20.4951 158.101L23.5777 166.483ZM23.0749 156.145C23.1763 156.13 23.2795 156.13 23.3809 156.145C23.5125 156.156 23.6399 156.197 23.7526 156.265C23.9707 156.363 24.1402 156.544 24.2227 156.768L27.3272 165.073C27.4449 165.41 27.3491 165.784 27.084 166.023C26.8189 166.262 26.4365 166.318 26.1138 166.166C25.8983 166.068 25.7324 165.887 25.6547 165.663L22.572 157.293C22.4797 157.076 22.4797 156.831 22.572 156.615C22.6723 156.399 22.8526 156.231 23.0749 156.145Z" fill="#093F68"/>
<path d="M11.6645 165.695C11.3341 164.798 11.7933 163.803 12.69 163.473L20.6959 160.525C21.5923 160.195 22.5867 160.654 22.9169 161.551L23.198 162.314C23.5284 163.21 23.0692 164.205 22.1724 164.535L14.1666 167.483C13.2701 167.813 12.2758 167.354 11.9455 166.458L11.6645 165.695Z" fill="#080C20"/>
<path fill-rule="evenodd" clip-rule="evenodd" d="M10.8755 166.669C11.3097 167.838 12.426 168.614 13.6739 168.614C14.0104 168.612 14.3439 168.55 14.6577 168.428L22.3643 165.598C23.91 165.024 24.7015 163.31 24.1352 161.762L23.9603 161.303C23.382 159.762 21.6715 158.973 20.1234 159.533L12.4714 162.374C10.9316 162.947 10.1414 164.654 10.7006 166.199L10.8755 166.669ZM20.9323 161.533C21.0227 161.516 21.1153 161.516 21.2056 161.533C21.3263 161.533 21.4455 161.559 21.5554 161.609C21.7501 161.694 21.9006 161.857 21.9708 162.057L22.1457 162.527C22.2931 162.937 22.0838 163.39 21.6757 163.543L13.969 166.385C13.7707 166.461 13.5497 166.453 13.3576 166.362C13.1654 166.271 13.019 166.105 12.9524 165.904L12.7775 165.445C12.6961 165.249 12.6961 165.029 12.7775 164.833C12.8687 164.642 13.029 164.494 13.2257 164.418L20.9323 161.533Z" fill="#093F68"/>
<path d="M13.135 169.702C12.8047 168.806 13.2639 167.811 14.1606 167.481L22.1664 164.533C23.0629 164.203 24.0572 164.662 24.3875 165.558L24.6685 166.321C24.9989 167.218 24.5397 168.212 23.643 168.543L15.6372 171.49C14.7407 171.82 13.7464 171.361 13.4161 170.465L13.135 169.702Z" fill="#080C20"/>
<path fill-rule="evenodd" clip-rule="evenodd" d="M13.9035 172.351C14.2935 172.533 14.7191 172.627 15.1496 172.624C15.519 172.633 15.8865 172.57 16.2318 172.439L23.8838 169.608C25.4237 169.035 26.2139 167.328 25.6547 165.784L25.4798 165.314C24.9062 163.774 23.199 162.984 21.6538 163.543L13.9472 166.385C12.4073 166.958 11.6171 168.665 12.1763 170.209L12.3512 170.679C12.6235 171.422 13.1827 172.024 13.9035 172.351ZM22.4081 165.565C22.4953 165.531 22.5878 165.513 22.6814 165.51C22.9978 165.52 23.2777 165.718 23.3919 166.013L23.5668 166.483C23.6406 166.68 23.6325 166.898 23.5442 167.089C23.4559 167.28 23.2947 167.428 23.0967 167.499L15.4448 170.34C15.2528 170.422 15.0356 170.422 14.8436 170.34C14.6532 170.249 14.5047 170.089 14.4282 169.892L14.2533 169.422C14.1719 169.227 14.1719 169.006 14.2533 168.811C14.3478 168.623 14.507 168.475 14.7014 168.395L22.4081 165.565Z" fill="#093F68"/>
<path d="M14.6268 173.706C14.2964 172.809 14.7556 171.815 15.6523 171.484L23.6581 168.537C24.5546 168.207 25.5489 168.666 25.8792 169.562L26.1603 170.325C26.4906 171.221 26.0315 172.216 25.1347 172.546L17.1289 175.494C16.2324 175.824 15.2381 175.365 14.9078 174.469L14.6268 173.706Z" fill="#080C20"/>
<path fill-rule="evenodd" clip-rule="evenodd" d="M13.8269 174.69C14.2612 175.859 15.3775 176.635 16.6253 176.635C16.9764 176.637 17.3247 176.574 17.6529 176.449L25.3049 173.619C26.0484 173.348 26.6533 172.792 26.9856 172.074C27.318 171.357 27.3504 170.536 27.0757 169.794L26.9008 169.324C26.332 167.78 24.6203 166.988 23.0749 167.554L15.4229 170.395C13.883 170.968 13.0962 172.678 13.6629 174.22L13.8269 174.69ZM23.8838 169.565C23.9742 169.549 24.0666 169.549 24.1571 169.565C24.4747 169.553 24.7698 169.728 24.9113 170.013L25.0753 170.482C25.1492 170.679 25.141 170.898 25.0527 171.089C24.9644 171.28 24.8032 171.427 24.6053 171.499L16.9533 174.34C16.7576 174.423 16.5368 174.423 16.3411 174.34C16.1508 174.249 16.0022 174.089 15.9257 173.892L15.7508 173.422C15.6772 173.222 15.6865 173.001 15.7769 172.808C15.8672 172.615 16.0311 172.466 16.2318 172.395L23.8838 169.565Z" fill="#093F68"/>
<path d="M123.25 155.282C114.877 152.124 97.9767 150.058 83.4052 164.898C68.8336 179.738 73.7855 197.682 89.1769 204.763C104.568 211.844 117.73 208.435 120.78 198.818C123.829 189.202 113.619 188.459 117.784 183.388C121.949 178.318 127.153 184.011 131.558 175.968C135.963 167.925 131.645 158.44 123.25 155.282Z" fill="#080C20"/>
<path fill-rule="evenodd" clip-rule="evenodd" d="M88.7287 205.758C93.7376 208.186 99.2105 209.509 104.776 209.637C107.835 209.713 110.877 209.151 113.707 207.987C117.568 206.41 120.536 203.211 121.818 199.245C123.622 193.486 121.151 190.502 119.337 188.317C117.73 186.382 117.282 185.705 118.571 184.12C120.08 182.263 121.687 182.142 123.72 182L123.723 182C126.412 181.804 129.722 181.561 132.465 176.536C134.615 172.686 134.959 168.085 133.405 163.959C131.706 159.48 128.15 155.957 123.654 154.298C112.603 150.091 96.02 150.495 82.64 164.133C75.5783 171.324 72.4956 179.76 73.9823 187.88C75.3924 195.562 80.7707 202.086 88.7287 205.758ZM84.2031 165.663C92.511 157.194 102.109 154.123 110.668 154.123C114.835 154.109 118.97 154.842 122.878 156.287C126.784 157.725 129.877 160.781 131.361 164.669C132.682 168.202 132.386 172.137 130.552 175.433C128.381 179.457 126.166 179.618 123.604 179.803L123.589 179.804L123.563 179.806C121.416 179.969 119 180.153 116.899 182.733C114.4 185.776 116.138 187.861 117.667 189.695L117.675 189.705L117.675 189.705C119.413 191.792 121.206 193.945 119.752 198.523C118.656 201.887 116.132 204.598 112.854 205.932C106.809 208.599 98.3921 207.823 89.647 203.812C82.3448 200.436 77.4148 194.502 76.1358 187.519C74.7803 180.088 77.6443 172.34 84.2031 165.663Z" fill="#093F68"/>
<path d="M98.7965 161.369C98.884 161.795 99.1026 162.188 99.1901 162.614C99.2242 163.792 98.6232 164.898 97.616 165.51C96.6123 166.096 95.7294 166.868 95.0143 167.783C94.2123 169.41 94.7185 171.378 96.2058 172.417C97.7074 173.38 99.593 173.524 101.223 172.799C102.929 172.1 104.743 170.69 106.383 171.51C106.959 171.894 107.487 172.345 107.957 172.854C110.158 174.586 113.33 174.298 115.183 172.198C116.905 170.012 116.905 166.931 115.183 164.745C112.865 161.882 114.811 157.096 109.794 156.637C107.214 156.386 98.1079 157.555 98.7965 161.369Z" fill="#080C20"/>
<path fill-rule="evenodd" clip-rule="evenodd" d="M107.236 173.673C108.315 174.605 109.701 175.107 111.127 175.083L111.63 175.094C113.319 174.971 114.891 174.185 116.003 172.908C118.052 170.318 118.052 166.658 116.003 164.068C115.362 163.109 114.957 162.011 114.822 160.866L114.821 160.861C114.373 158.677 113.813 155.948 109.87 155.555C108.012 155.369 101.092 155.938 98.6107 158.648C97.8501 159.418 97.5187 160.514 97.7253 161.576C97.7837 161.848 97.8642 162.115 97.9658 162.374C98.0294 162.514 98.0771 162.661 98.1079 162.811C98.2281 163.434 97.5941 164.166 96.9601 164.647L96.3151 165.106C95.4192 165.637 94.6535 166.361 94.0742 167.226C92.9699 169.343 93.6114 171.95 95.5718 173.313C97.3794 174.496 99.6641 174.681 101.639 173.805C102.065 173.63 102.491 173.422 102.929 173.203C104.251 172.493 105.18 172.133 105.902 172.493C106.204 172.678 106.476 172.906 106.711 173.171C106.875 173.349 107.05 173.517 107.236 173.673ZM106.875 170.537C106.395 170.291 105.862 170.164 105.323 170.166C104.11 170.277 102.939 170.666 101.901 171.302C101.562 171.499 101.191 171.685 100.808 171.838C99.5251 172.415 98.0395 172.321 96.8398 171.586C95.8105 170.877 95.4413 169.53 95.9653 168.395C96.3903 167.808 96.934 167.316 97.5613 166.953L98.2828 166.439C99.6539 165.605 100.424 164.058 100.261 162.461C100.199 162.189 100.115 161.922 100.01 161.664C99.9527 161.518 99.9052 161.368 99.8678 161.216C99.7709 160.812 99.9107 160.389 100.229 160.123C101.912 158.276 107.749 157.533 109.651 157.73C111.903 157.948 112.22 159.052 112.679 161.303C112.87 162.792 113.426 164.211 114.297 165.434C115.697 167.206 115.72 169.701 114.352 171.499C113.613 172.327 112.575 172.827 111.466 172.887C110.46 172.987 109.456 172.68 108.679 172.034C108.532 171.908 108.393 171.773 108.263 171.63C107.864 171.191 107.395 170.822 106.875 170.537Z" fill="#093F68"/>
<path d="M121.064 168.406C120.206 169.3 119.672 170.453 119.544 171.685C119.45 172.53 119.758 173.371 120.375 173.958C120.912 174.341 121.563 174.534 122.222 174.504C123.925 174.441 125.562 173.832 126.89 172.766C128.639 171.422 131.558 167.619 128.847 165.794C126.376 164.21 122.627 166.658 121.064 168.406Z" fill="#093F68"/>
<path fill-rule="evenodd" clip-rule="evenodd" d="M119.686 174.843C120.414 175.385 121.305 175.663 122.212 175.629C124.157 175.574 126.031 174.883 127.546 173.662C128.934 172.602 131.11 170.056 131.044 167.707C131.014 166.569 130.415 165.522 129.448 164.92C126.431 162.899 122.212 165.488 120.255 167.674C119.223 168.759 118.588 170.161 118.451 171.652C118.327 172.852 118.786 174.039 119.686 174.843ZM120.594 171.794C120.69 170.797 121.126 169.863 121.829 169.149L121.873 169.16C123.414 167.466 126.573 165.663 128.235 166.756C128.613 166.961 128.851 167.354 128.858 167.783C128.902 169.138 127.317 171.094 126.223 171.936C125.097 172.875 123.689 173.41 122.222 173.455C121.815 173.478 121.411 173.375 121.064 173.16C120.71 172.798 120.537 172.297 120.594 171.794Z" fill="#093F68"/>
<path d="M128.158 163.838C127.721 162.822 126.879 161.653 125.797 161.904C124.715 162.155 124.343 163.325 124.168 164.418C123.665 167.259 123.578 170.155 123.075 172.996C122.991 173.254 123.031 173.537 123.184 173.761C123.325 173.879 123.504 173.941 123.687 173.936C125.921 173.994 127.996 172.783 129.044 170.81C130.006 168.789 128.989 165.784 128.158 163.838Z" fill="#080C20"/>
<path fill-rule="evenodd" clip-rule="evenodd" d="M123.567 175.007H124.004C126.527 174.915 128.811 173.492 130.006 171.269C130.913 169.444 130.629 166.876 129.164 163.434C128.355 161.543 126.901 160.593 125.589 160.844C124.278 161.095 123.447 162.221 123.097 164.199C122.867 165.511 122.728 166.804 122.589 168.105C122.576 168.223 122.563 168.342 122.55 168.461C122.543 168.53 122.536 168.599 122.528 168.668C122.382 170.024 122.232 171.426 121.982 172.777C121.82 173.388 121.971 174.039 122.386 174.515C122.707 174.817 123.127 174.992 123.567 175.007ZM125.294 164.57C125.48 163.467 125.819 162.986 126.038 162.986V162.964C126.355 162.964 126.836 163.521 127.196 164.275C128.672 167.75 128.497 169.466 128.093 170.297C127.301 171.722 125.857 172.666 124.234 172.821C124.474 171.433 124.627 170.023 124.769 168.668C124.775 168.611 124.781 168.554 124.787 168.497C124.924 167.196 125.064 165.858 125.294 164.57Z" fill="#093F68"/>
<path d="M85.0995 173.214C83.0881 173.936 81.1096 175.509 81.1642 177.52C81.2972 178.487 81.4834 179.447 81.7217 180.394C82.0278 182.722 80.7379 185.344 82.0387 187.289C83.0035 188.439 84.4296 189.099 85.9303 189.093C88.1166 189.278 90.6964 188.71 91.7786 186.776C91.9375 186.356 92.1964 185.981 92.5329 185.683C92.8921 185.501 93.2886 185.403 93.6916 185.399C95.0991 185.177 96.2886 184.236 96.8289 182.918C97.6925 180.733 96.173 178.394 94.6426 176.853C92.828 174.974 90.0077 172.755 87.2639 172.777C86.524 172.809 85.7937 172.957 85.0995 173.214Z" fill="#080C20"/>
<path fill-rule="evenodd" clip-rule="evenodd" d="M85.8428 190.218H86.7611C89.4939 190.218 91.6911 189.169 92.6859 187.268C92.7027 187.237 92.7237 187.207 92.7446 187.177C92.7918 187.109 92.8389 187.041 92.8389 186.973C92.9084 186.826 92.9927 186.687 93.0903 186.557C93.2361 186.514 93.3866 186.488 93.5385 186.481H93.8118C95.6048 186.203 97.1198 185.003 97.8018 183.323C98.6544 181.126 97.8127 178.569 95.4297 176.088C93.8555 174.471 90.6636 171.717 87.2967 171.717C86.4229 171.74 85.5588 171.907 84.7388 172.209C82.5416 172.996 80.0055 174.865 80.0711 177.564C80.1036 178.212 80.2137 178.854 80.399 179.476C80.4974 179.869 80.5848 180.23 80.6395 180.569C80.7001 181.394 80.6597 182.223 80.5193 183.039L80.5165 183.061C80.3205 184.661 80.1087 186.39 81.1314 187.923C82.265 189.372 84.0028 190.219 85.8428 190.218ZM85.504 174.187C86.0937 173.972 86.7133 173.851 87.3404 173.826V173.881C89.9968 173.881 92.8171 176.493 93.9321 177.618C94.7519 178.471 96.5775 180.645 95.8451 182.525C95.4537 183.481 94.592 184.165 93.5713 184.328H93.3636C92.8698 184.356 92.3899 184.502 91.9644 184.754C91.5267 185.072 91.183 185.503 90.9697 186L90.8603 186.219C90.0077 187.737 87.8105 188.131 86.0505 187.978C84.8881 187.995 83.774 187.514 82.9897 186.656C82.4104 185.792 82.5525 184.612 82.7274 183.246C82.8904 182.249 82.9272 181.236 82.8367 180.23C82.7703 179.776 82.6716 179.326 82.5416 178.886C82.4043 178.423 82.32 177.947 82.2901 177.465C82.2246 176.001 83.8752 174.777 85.504 174.187Z" fill="#093F68"/>
<path d="M95.1236 195.649C95.2557 197.054 95.984 198.336 97.124 199.168C98.2558 199.983 99.5493 200.546 100.917 200.818C104.481 201.666 108.208 201.522 111.696 200.403C112.34 200.234 112.935 199.915 113.434 199.474C114.363 198.327 114.363 196.687 113.434 195.54C112.501 194.448 111.288 193.632 109.925 193.18C107.443 192.152 107.159 188.131 103.738 188.022C102.262 188.022 101.431 188.972 100.458 189.912C98.884 191.442 98.8184 191.224 96.6977 191.234C94.8285 191.245 95.058 194.436 95.1236 195.649Z" fill="#080C20"/>
<path fill-rule="evenodd" clip-rule="evenodd" d="M100.666 201.889C102.272 202.261 103.915 202.448 105.563 202.446C107.761 202.448 109.945 202.102 112.034 201.419C112.853 201.209 113.605 200.796 114.221 200.217C115.512 198.677 115.549 196.444 114.308 194.862C113.255 193.61 111.879 192.669 110.329 192.141C109.531 191.669 108.88 190.984 108.449 190.163C107.487 188.721 106.295 186.962 103.759 186.885C102.288 186.929 100.912 187.621 99.999 188.776L99.6929 189.082C98.6217 190.098 98.6217 190.098 97.3755 190.098H96.6759C96.0256 190.087 95.4014 190.353 94.9596 190.83C93.8414 192.013 93.9632 194.263 94.0291 195.482L94.0305 195.507V195.66C94.1661 197.4 95.0518 198.996 96.4572 200.031C97.7067 200.952 99.1435 201.586 100.666 201.889ZM96.5338 192.327C96.579 192.307 96.6306 192.307 96.6759 192.327L97.288 192.283C99.0917 192.294 99.5727 192.174 101.147 190.655L101.475 190.338C102.349 189.508 102.885 189.071 103.661 189.071C105.017 189.114 105.672 189.967 106.612 191.366C107.268 192.553 108.261 193.519 109.466 194.141C110.642 194.53 111.697 195.22 112.526 196.141C113.122 196.863 113.171 197.89 112.647 198.665C112.268 198.979 111.823 199.203 111.346 199.321C108.048 200.374 104.527 200.51 101.158 199.714C99.9401 199.479 98.7877 198.983 97.7799 198.261C96.8932 197.623 96.3206 196.637 96.2058 195.551V195.387C96.1074 193.693 96.2277 192.666 96.5338 192.327Z" fill="#093F68"/>
<path d="M262.078 211.877V184.129C262.078 178.722 259.928 173.537 256.101 169.715C252.274 165.893 247.084 163.747 241.673 163.75H210.253C204.843 163.747 199.653 165.893 195.826 169.715C191.999 173.537 189.848 178.722 189.848 184.129V211.877H262.078Z" fill="#080C20"/>
<path fill-rule="evenodd" clip-rule="evenodd" d="M189.848 213.028H262.078C262.715 213.028 263.23 212.512 263.23 211.877V184.129C263.218 172.243 253.579 162.611 241.685 162.599H210.253C198.355 162.605 188.709 172.239 188.696 184.129V211.877C188.696 212.512 189.212 213.028 189.848 213.028ZM260.926 210.725H191.001V184.129C191.013 173.511 199.628 164.908 210.253 164.901H241.685C252.306 164.914 260.913 173.515 260.926 184.129V210.725Z" fill="#093F68"/>
<path d="M207.062 213.028C206.426 213.028 205.91 212.512 205.91 211.877V185.395C205.91 184.76 206.426 184.244 207.062 184.244C207.698 184.244 208.214 184.76 208.214 185.395V211.877C208.214 212.512 207.698 213.028 207.062 213.028Z" fill="#093F68"/>
<path d="M256.559 213.028C255.923 213.028 255.407 212.512 255.407 211.877V185.395C255.407 184.76 255.923 184.244 256.559 184.244C257.196 184.244 257.712 184.76 257.712 185.395V211.877C257.712 212.512 257.196 213.028 256.559 213.028Z" fill="#093F68"/>
<path d="M232.813 172.731C233.078 185.729 233.078 198.671 232.813 211.105V172.731Z" fill="#5DD0E5"/>
<path d="M232.813 212.257C232.177 212.257 231.661 211.741 231.661 211.105C231.937 198.671 231.937 185.775 231.661 172.777C231.661 172.141 232.177 171.625 232.813 171.625C233.449 171.625 233.965 172.141 233.965 172.777C234.242 185.81 234.242 198.74 233.965 211.209C233.911 211.804 233.411 212.259 232.813 212.257Z" fill="#093F68"/>
<path d="M225.854 159.145H238.585V167.135C238.585 170.232 236.073 172.742 232.974 172.742H231.453C228.355 172.742 225.842 170.232 225.842 167.135V159.145H225.854Z" fill="#080C20"/>
<path fill-rule="evenodd" clip-rule="evenodd" d="M231.453 173.882H232.974C236.705 173.882 239.731 170.863 239.738 167.135V159.145C239.738 158.509 239.222 157.993 238.585 157.993H225.854C225.218 157.993 224.702 158.509 224.702 159.145V167.135C224.708 170.859 227.727 173.876 231.453 173.882ZM227.006 167.135V160.296H237.433V167.135C237.427 169.591 235.432 171.579 232.974 171.579H231.453C228.997 171.579 227.006 169.59 227.006 167.135Z" fill="#093F68"/>
<path d="M221.902 75.7984C224.381 76.2065 226.785 76.9827 229.034 78.1011C227.57 75.4529 225.521 73.173 223.043 71.4348C232.548 71.5038 242.422 73.4151 249.957 79.2179C262.827 89.1195 259.175 102.728 257.135 116.395C256.064 123.395 254.52 130.315 253.23 137.269L193.639 138.662C193.639 138.662 191.623 124.224 191.335 112.112C191.391 109.417 191.588 106.727 191.922 104.053C192.176 100.679 192.015 101.048 188.708 99.5738C188.189 99.355 187.556 99.0557 187.463 98.5145C186.991 96.8911 190.229 96.9832 191.047 95.498C188.98 95.4615 186.943 94.9949 185.067 94.1279C189.504 87.6224 196.834 83.6833 204.712 83.57L200.034 80.588C199.628 80.3904 199.314 80.0439 199.158 79.6209C199.008 78.8379 199.942 78.3198 200.702 78.0781C207.523 75.925 214.989 74.5895 221.902 75.7984Z" fill="#093F68"/>
<path fill-rule="evenodd" clip-rule="evenodd" d="M192.487 138.823C192.568 139.396 193.061 139.819 193.639 139.813H193.662L253.287 138.547C253.851 138.556 254.338 138.157 254.439 137.603C254.852 135.406 255.283 133.219 255.716 131.023C255.755 130.826 255.794 130.628 255.834 130.43L255.913 130.028C256.787 125.633 257.674 121.164 258.345 116.694C258.53 115.485 258.737 114.219 258.933 113.068L258.933 113.067C260.938 100.679 263.011 87.8644 250.741 78.435C243.897 73.1618 234.61 70.4676 223.089 70.3755C222.573 70.374 222.112 70.6966 221.937 71.1814C221.785 71.6607 221.962 72.1827 222.374 72.471C223.656 73.3764 224.817 74.4403 225.831 75.6372C224.594 75.2413 223.331 74.9297 222.052 74.7046C215.899 73.6223 208.594 74.3937 200.333 77.0073C198.686 77.5599 197.787 78.6307 198.029 79.8626C198.231 80.6019 198.732 81.2236 199.412 81.5781L201.197 82.7295C194.249 83.8056 188.061 87.717 184.111 93.5292C183.926 93.8073 183.872 94.1518 183.961 94.4733C184.041 94.8027 184.272 95.0755 184.583 95.2101C185.563 95.6618 186.586 96.0128 187.636 96.2579C186.6 96.6702 186.047 97.8012 186.357 98.8714C186.682 99.7217 187.371 100.381 188.235 100.668L189.238 101.094C189.787 101.278 190.304 101.546 190.77 101.888C190.878 102.59 190.878 103.304 190.77 104.006C190.701 104.847 190.62 105.676 190.528 106.505C190.289 108.372 190.174 110.253 190.183 112.135C190.42 122.912 192.078 135.661 192.424 138.323C192.464 138.635 192.487 138.809 192.487 138.823ZM189.192 98.5606C189.021 98.4866 188.856 98.402 188.696 98.3073V98.2612C188.792 98.2058 188.912 98.146 189.031 98.0866C189.185 98.0102 189.337 97.9345 189.434 97.8698C190.457 97.5609 191.346 96.9158 191.957 96.0391C192.163 95.6829 192.163 95.244 191.957 94.8878C191.754 94.5372 191.383 94.3186 190.978 94.3121C189.546 94.2855 188.127 94.037 186.772 93.5752C191.06 88.0493 197.634 84.7773 204.631 84.6868C205.16 84.7078 205.635 84.3659 205.783 83.8578C205.923 83.3657 205.721 82.8404 205.288 82.5683L200.679 79.5863L200.449 79.4251C200.644 79.3075 200.853 79.2147 201.071 79.1488C209.032 76.6504 215.945 75.8905 221.706 76.9152C224.075 77.3353 226.367 78.1117 228.504 79.2179C228.955 79.4548 229.508 79.3678 229.864 79.0039C230.22 78.64 230.295 78.0857 230.048 77.6405C229.049 75.853 227.796 74.2201 226.326 72.7933C235.797 73.323 243.471 75.8214 249.232 80.2311C260.402 88.8275 258.531 100.403 256.551 112.658L256.548 112.676C256.352 113.885 256.156 115.105 255.972 116.326C255.288 120.834 254.379 125.399 253.501 129.809L253.472 129.958L253.471 129.96C253.057 132.055 252.642 134.149 252.25 136.244L194.642 137.499C194.181 133.965 192.729 122.163 192.51 112.089C192.502 110.303 192.614 108.518 192.844 106.747C192.936 105.895 193.017 105.043 193.086 104.179C193.363 100.748 193.052 100.207 190.171 98.9866L189.192 98.5606Z" fill="#093F68"/>
<ellipse cx="259.157" cy="134.045" rx="8.28413" ry="9.24535" transform="rotate(-1.25 259.157 134.045)" fill="#080C20"/>
<path fill-rule="evenodd" clip-rule="evenodd" d="M252.596 141.471C254.281 143.335 256.673 144.405 259.186 144.419H259.382C261.956 144.342 264.373 143.164 266.019 141.184C267.754 139.127 268.668 136.503 268.588 133.815C268.461 128.081 264.095 123.522 258.921 123.626C256.344 123.702 253.923 124.88 252.273 126.861C248.74 131.137 248.877 137.355 252.596 141.471ZM258.979 125.997H259.117C263 125.997 266.18 129.451 266.284 133.965C266.336 136.063 265.623 138.109 264.279 139.721C263.049 141.199 261.247 142.083 259.325 142.151C257.4 142.186 255.556 141.378 254.278 139.94C251.381 136.683 251.273 131.808 254.025 128.427C255.246 126.938 257.053 126.052 258.979 125.997Z" fill="#093F68"/>
<path d="M230.854 164.821C212.673 165.212 195.92 143.164 195.54 125.283L199.895 126.838L199.469 114.173C199.469 114.173 222.109 107.679 218.883 97.1675C218.883 97.1675 225.727 104.951 235.325 104.72C252.965 104.283 259.774 99.4702 259.774 99.4702L260.477 131.789C260.857 149.669 249.024 164.429 230.854 164.821Z" fill="#080C20"/>
<path fill-rule="evenodd" clip-rule="evenodd" d="M194.388 125.318C194.78 143.417 211.74 165.972 230.37 165.972L230.923 165.984C239.598 165.92 247.831 162.148 253.541 155.622C259.117 148.956 262.016 140.458 261.675 131.777L260.972 99.4586C260.966 99.0307 260.723 98.6415 260.341 98.4482C259.958 98.2549 259.501 98.2893 259.152 98.5376L259.15 98.5385C259.018 98.6271 252.239 103.168 235.348 103.58H234.91C226.176 103.58 219.747 96.4881 219.747 96.4191C219.39 96.0093 218.795 95.9051 218.319 96.1691C217.844 96.433 217.618 96.9932 217.777 97.5129C218.254 99.0544 218.062 100.725 217.247 102.118C213.606 108.831 199.296 113.045 199.146 113.045C198.638 113.192 198.296 113.667 198.317 114.196L198.686 125.145L195.92 124.167C195.557 124.039 195.154 124.101 194.846 124.333C194.538 124.564 194.366 124.934 194.388 125.318ZM230.44 163.67C216.222 163.67 198.156 146.756 196.761 126.941L199.504 127.932C199.865 128.059 200.267 127.999 200.575 127.77C200.883 127.546 201.06 127.184 201.048 126.803L200.644 115.048C203.963 113.989 215.692 109.867 219.275 103.258C219.81 102.283 220.158 101.217 220.3 100.115C223.181 102.51 228.538 106.067 235.348 105.872C248.344 105.561 255.591 102.901 258.656 101.416L259.325 131.823C259.657 139.934 256.959 147.879 251.755 154.113C246.463 160.134 238.85 163.611 230.831 163.67H230.44Z" fill="#093F68"/>
<ellipse cx="221.889" cy="128.573" rx="2.99565" ry="2.99351" transform="rotate(-1.25 221.889 128.573)" fill="#093F68"/>
<ellipse cx="250.729" cy="127.955" rx="2.99565" ry="2.99351" fill="#093F68"/>
<path d="M237.652 136.693C236.781 136.693 235.911 136.631 235.048 136.509C234.637 136.447 234.289 136.171 234.137 135.784C233.985 135.397 234.05 134.958 234.31 134.633C234.569 134.307 234.982 134.145 235.394 134.206C236.789 134.407 238.205 134.407 239.599 134.206C239.599 133.193 238.447 130.2 236.938 127.46C236.79 127.191 236.756 126.875 236.843 126.581C236.929 126.287 237.129 126.04 237.399 125.894C237.953 125.593 238.646 125.793 238.954 126.343C240.106 128.358 242.56 133.251 241.696 135.289C241.499 135.805 241.073 136.2 240.544 136.359C239.599 136.597 238.627 136.709 237.652 136.693Z" fill="#093F68"/>
<path d="M202.096 127.425C202.096 127.425 194.031 122.129 189.964 129.267C185.897 136.405 190.229 148.322 203.225 144.546" fill="#080C20"/>
<path d="M198.478 146.422C195.1 146.545 191.863 145.058 189.756 142.416C186.78 138.409 186.459 133.023 188.938 128.691C189.998 126.657 191.876 125.171 194.1 124.604C198.305 123.614 202.534 126.354 202.707 126.469C203.232 126.821 203.376 127.53 203.029 128.058C202.681 128.588 201.971 128.737 201.439 128.392C201.439 128.392 197.856 126.089 194.618 126.849C193.02 127.274 191.681 128.364 190.943 129.843C188.969 133.356 189.212 137.694 191.565 140.965C193.939 143.981 197.96 144.845 202.88 143.417C203.49 143.239 204.13 143.59 204.308 144.2C204.486 144.811 204.136 145.45 203.525 145.628C201.888 146.125 200.189 146.393 198.478 146.422Z" fill="#093F68"/>
<path d="M228.008 120.068H214.609C213.336 120.068 212.304 119.037 212.304 117.765C212.304 116.493 213.336 115.462 214.609 115.462H227.997C229.27 115.462 230.301 116.493 230.301 117.765C230.301 119.037 229.27 120.068 227.997 120.068H228.008Z" fill="#093F68"/>
<path d="M254.428 120.068H241.04C239.767 120.068 238.735 119.037 238.735 117.765C238.735 116.493 239.767 115.462 241.04 115.462H254.428C255.7 115.462 256.732 116.493 256.732 117.765C256.732 119.037 255.7 120.068 254.428 120.068Z" fill="#093F68"/>
<path d="M241.04 145.259H232.974C232.974 145.259 232.514 153.319 237.341 153.607C240.533 153.802 241.04 145.259 241.04 145.259Z" fill="#093F68"/>
<path fill-rule="evenodd" clip-rule="evenodd" d="M237.306 154.781H237.479C238.224 154.773 238.937 154.48 239.473 153.964C241.777 151.926 242.238 145.985 242.238 145.305C242.255 144.991 242.143 144.683 241.927 144.453C241.71 144.219 241.405 144.086 241.086 144.085H233.02C232.384 144.085 231.868 144.6 231.868 145.236C231.661 148.644 232.594 154.493 237.306 154.781ZM237.468 152.455C234.783 152.283 234.276 148.368 234.196 146.411H239.807C239.542 148.587 238.92 151.385 237.929 152.26C237.809 152.386 237.642 152.457 237.468 152.455Z" fill="#093F68"/>
<path d="M347.189 77.6406C339.677 76.777 331.381 79.736 325.459 83.8924C316.392 90.2479 311.633 100.011 310.619 110.799L307.935 139.814C306.61 154.067 303.015 170.083 316.403 179.892C323.316 184.97 332.107 186.8 340.668 187.549C351.333 188.609 362.102 187.564 372.364 184.474C380.591 181.849 392.677 176.76 393.852 166.87C394.498 161.413 391.26 156.347 389.624 151.085C386.167 140.021 389.923 128.058 389.151 116.487C388.356 104.548 378.148 78.8149 362.052 83.0059C361.264 83.3099 360.419 83.4433 359.575 83.3973C358.691 83.1355 357.894 82.638 357.271 81.9581C354.436 79.5149 350.915 78.0069 347.189 77.6406Z" fill="#080C20"/>
<path fill-rule="evenodd" clip-rule="evenodd" d="M340.553 188.642C343.41 188.884 346.198 189.011 348.941 189.011C356.99 189.095 365.004 187.934 372.698 185.568C386.536 181.147 394.037 174.907 394.97 167.008C395.465 162.855 393.901 158.99 392.393 155.262L392.389 155.253C392.353 155.163 392.316 155.072 392.279 154.982C391.715 153.583 391.139 152.157 390.695 150.751C388.679 144.177 389.221 137.338 389.831 130.108C390.322 125.562 390.472 120.986 390.281 116.418C389.635 107.334 383.875 91.215 374.657 84.5486C371.015 81.7004 366.253 80.7088 361.776 81.866L361.269 82.0041C360.795 82.1857 360.289 82.268 359.783 82.2459C359.177 82.0555 358.627 81.7195 358.181 81.2673L357.985 81.0946C354.989 78.4966 351.263 76.8879 347.316 76.4892C338.894 75.5336 330.16 79.1949 324.803 82.9483C315.873 89.2001 310.619 98.8024 309.467 110.696L306.771 139.664C306.662 140.829 306.535 142.012 306.407 143.201C306.359 143.645 306.311 144.089 306.264 144.534C304.858 157.256 303.28 171.683 315.7 180.779C321.784 185.188 329.688 187.733 340.553 188.642ZM326.082 84.8365C330.587 81.7048 337.534 78.6422 344.516 78.6422C345.383 78.6448 346.248 78.6947 347.109 78.7919C350.592 79.1171 353.888 80.5129 356.545 82.7871L356.729 82.9483C357.463 83.7101 358.398 84.2489 359.425 84.5026C360.275 84.6032 361.136 84.5006 361.937 84.2032L362.387 84.0766C366.209 83.0915 370.273 83.9429 373.378 86.3793C382.054 92.6196 387.481 107.898 388.057 116.522C388.231 120.979 388.077 125.443 387.596 129.877L387.587 129.983C387.002 137.077 386.397 144.419 388.564 151.385C389.025 152.864 389.617 154.334 390.189 155.756C390.231 155.861 390.273 155.966 390.315 156.071C391.79 159.697 393.173 163.128 392.758 166.698C391.882 173.606 384.923 179.213 372.019 183.335C361.903 186.382 351.285 187.407 340.772 186.351C330.345 185.476 322.844 183.116 317.083 178.913C305.746 170.612 307.186 157.441 308.58 144.776C308.629 144.308 308.679 143.84 308.729 143.374C308.855 142.201 308.98 141.036 309.087 139.883L311.714 110.903C312.762 99.7004 317.728 90.6853 326.082 84.8365Z" fill="#093F68"/>
<path d="M381.282 211.877V185.603C381.282 180.482 379.246 175.571 375.623 171.95C371.999 168.329 367.085 166.295 361.96 166.295H332.188C329.118 166.304 326.094 167.038 323.362 168.436C316.922 171.74 312.874 178.368 312.878 185.603V211.877H381.282Z" fill="#080C20"/>
<path fill-rule="evenodd" clip-rule="evenodd" d="M312.878 213.028H381.282C381.918 213.028 382.434 212.512 382.434 211.877V185.603C382.422 174.309 373.262 165.156 361.96 165.143H332.188C330.481 165.141 328.781 165.358 327.13 165.788C318.062 168.091 311.717 176.253 311.725 185.603V211.877C311.725 212.512 312.241 213.028 312.878 213.028ZM380.13 210.725H314.03V185.58C314.02 178.783 317.826 172.556 323.881 169.461C325.096 168.84 326.374 168.354 327.695 168.01C329.163 167.636 330.673 167.447 332.188 167.446H361.96C371.99 167.459 380.117 175.58 380.13 185.603V210.725Z" fill="#093F68"/>
<path d="M358.711 166.295C357.282 174.884 350.784 181.389 343.007 181.389C335.414 181.389 329.043 175.195 327.406 166.905C328.968 166.497 330.575 166.292 332.188 166.295H358.711Z" fill="#080C20"/>
<path fill-rule="evenodd" clip-rule="evenodd" d="M326.277 167.124C328.029 176.196 334.942 182.54 343.007 182.54C351.21 182.54 358.296 175.782 359.829 166.49C359.882 166.156 359.785 165.814 359.564 165.558C359.347 165.298 359.027 165.146 358.688 165.143H332.188C330.478 165.142 328.774 165.359 327.118 165.788C326.529 165.941 326.16 166.526 326.277 167.124ZM343.007 180.237C336.382 180.237 330.667 175.16 328.789 167.768C329.91 167.556 331.048 167.448 332.188 167.446H357.305C355.531 174.93 349.632 180.237 343.007 180.237Z" fill="#093F68"/>
<path d="M349.09 170.658C348.454 170.658 347.938 170.143 347.938 169.507V163.082H338.179V169.507C338.179 170.143 337.664 170.658 337.027 170.658C336.391 170.658 335.875 170.143 335.875 169.507V161.931C335.875 161.295 336.391 160.78 337.027 160.78H349.09C349.727 160.78 350.243 161.295 350.243 161.931V169.507C350.243 170.143 349.727 170.658 349.09 170.658Z" fill="#093F68"/>
<path d="M307.37 135.473C307.151 140.17 311.253 146.653 316.691 146.906C322.13 147.159 326.715 143.578 326.946 138.846C327.176 134.114 322.948 130.131 317.509 129.877C312.071 129.624 307.601 130.775 307.37 135.473Z" fill="#080C20"/>
<path fill-rule="evenodd" clip-rule="evenodd" d="M316.634 148.08H317.244C323.04 148.08 327.844 144.085 328.098 138.962C328.201 136.297 327.122 133.722 325.148 131.927C323.081 130.003 320.39 128.888 317.567 128.784C315.002 128.527 312.413 128.878 310.009 129.808C307.74 130.766 306.256 132.977 306.23 135.438C306.21 138.38 307.18 141.242 308.983 143.567C310.727 146.142 313.535 147.799 316.634 148.08ZM310.953 131.881C312.589 131.246 314.339 130.956 316.092 131.029L317.44 131.086C319.713 131.157 321.882 132.048 323.547 133.596C325.03 134.936 325.848 136.861 325.782 138.858C325.586 142.888 321.565 146.008 316.737 145.766C314.334 145.48 312.172 144.165 310.815 142.162C309.341 140.264 308.531 137.934 308.511 135.531C308.495 133.927 309.465 132.478 310.953 131.881Z" fill="#093F68"/>
<path d="M342.362 165.892C350.244 166.261 357.951 163.485 363.785 158.175C369.619 152.865 373.103 145.457 373.47 137.58L374.139 123.764C374.484 116.614 364.242 102.728 357.11 102.395C357.11 102.395 355.623 109.095 344.113 114.472C336.048 118.226 324.987 117.926 315.309 110.466L314.157 134.644C313.746 142.526 316.487 150.249 321.778 156.11C327.068 161.971 334.473 165.49 342.362 165.892Z" fill="#080C20"/>
<path fill-rule="evenodd" clip-rule="evenodd" d="M342.304 167.077H343.802C360.218 166.989 373.711 154.112 374.553 137.73L375.222 123.913C375.429 119.538 372.284 113.804 369.265 109.913C365.244 104.709 360.693 101.508 357.087 101.335C356.541 101.321 356.06 101.691 355.934 102.222C355.923 102.291 354.333 108.497 343.583 113.517C336.774 116.706 325.932 117.362 315.931 109.648C315.598 109.402 315.158 109.353 314.779 109.521C314.389 109.701 314.131 110.083 314.11 110.512L312.958 134.69C312.129 151.725 325.258 166.215 342.304 167.077ZM315.263 134.759L316.323 112.688C324.615 118.533 335.373 119.587 344.643 115.462C354.01 111.087 357.029 105.791 357.928 103.604C360.727 104.202 364.322 107.012 367.548 111.179C371.028 115.67 373.171 120.574 373.021 123.66L372.364 137.476C371.606 153.255 358.199 165.437 342.408 164.694C326.651 163.894 314.512 150.507 315.263 134.759Z" fill="#093F68"/>
<path d="M330.978 124.731L317.855 124.178C316.582 124.124 315.595 123.049 315.649 121.778C315.703 120.506 316.778 119.519 318.051 119.573L331.163 120.114C332.435 120.139 333.446 121.191 333.421 122.463C333.395 123.734 332.343 124.745 331.07 124.719L330.978 124.731Z" fill="#093F68"/>
<path d="M374.761 130.349C374.761 130.349 379.266 115.278 370.786 101.738C362.306 88.1985 339.09 86.0915 329.734 91.4913C315.101 99.9192 315.251 110.5 315.251 110.5C315.251 110.5 313.212 81.1061 347.512 82.8677C378.402 84.4681 384.9 110.281 374.761 130.349Z" fill="#093F68"/>
<path fill-rule="evenodd" clip-rule="evenodd" d="M374.335 131.42C374.471 131.47 374.615 131.497 374.761 131.501C375.195 131.499 375.591 131.255 375.786 130.867C381.605 119.319 381.812 106.298 376.328 96.8566C372.583 90.4435 364.564 82.6028 347.524 81.7278C336.175 81.1752 327.43 83.8808 321.669 89.7873C313.685 97.9092 314.051 109.141 314.096 110.496C314.098 110.554 314.099 110.595 314.099 110.615C314.124 111.251 314.661 111.746 315.297 111.721C315.934 111.695 316.429 111.159 316.403 110.523C316.403 110.12 316.484 100.472 330.31 92.516C339.539 87.1967 361.741 89.4994 369.818 102.383C377.457 114.569 374.078 128.29 373.689 129.867C373.667 129.957 373.655 130.007 373.655 130.015C373.481 130.589 373.777 131.2 374.335 131.42ZM371.765 101.128C365.889 91.7331 353.365 87.5191 342.661 87.5191H342.684C337.396 87.5191 332.545 88.5438 329.158 90.4896C324.754 92.8895 320.931 96.2264 317.959 100.265C319.053 96.925 320.893 93.8778 323.339 91.3531C328.662 85.9418 336.774 83.4779 347.42 84.019C360.094 84.6753 369.392 89.5109 374.335 98.0194C377.987 104.283 378.897 112.273 377.123 120.333C377.159 113.558 375.304 106.907 371.765 101.128Z" fill="#093F68"/>
<path d="M340.484 144.638C339.457 144.662 338.433 144.538 337.442 144.269C336.914 144.114 336.489 143.722 336.29 143.21C335.564 141.356 337.695 137.246 339.02 134.966C339.352 134.446 340.035 134.278 340.569 134.587C341.104 134.896 341.3 135.571 341.014 136.118C339.838 137.976 338.963 140.008 338.421 142.139C339.662 142.353 340.928 142.384 342.177 142.231C342.814 142.152 343.394 142.603 343.474 143.239C343.553 143.875 343.102 144.455 342.465 144.534C342.408 144.534 341.567 144.638 340.484 144.638Z" fill="#093F68"/>
<ellipse cx="324.104" cy="132.94" rx="2.62509" ry="2.62695" transform="rotate(-87.23 324.104 132.94)" fill="#093F68"/>
<path fill-rule="evenodd" clip-rule="evenodd" d="M316.64 132.353C316.575 137.915 321.001 142.494 326.565 142.623H327.038C332.603 142.494 337.028 137.915 336.963 132.353C336.898 126.791 332.368 122.316 326.802 122.316C321.235 122.316 316.705 126.791 316.64 132.353ZM319.889 133.211C319.84 129.202 323.027 125.899 327.038 125.802H327.395C331.406 125.899 334.593 129.202 334.544 133.211C334.495 137.22 331.229 140.445 327.216 140.445C323.204 140.445 319.938 137.22 319.889 133.211Z" fill="#093F68"/>
<path d="M343.652 135.012L335.46 134.621C334.824 134.605 334.321 134.077 334.337 133.441C334.353 132.805 334.882 132.302 335.518 132.318L343.71 132.71C344.324 132.74 344.805 133.247 344.804 133.861C344.804 134.497 344.289 135.012 343.652 135.012Z" fill="#093F68"/>
<path d="M318.788 132.514C318.508 132.514 318.238 132.411 318.028 132.226L313.592 128.3C313.26 128.034 313.102 127.606 313.181 127.187C313.261 126.769 313.565 126.429 313.972 126.302C314.378 126.176 314.822 126.285 315.124 126.585L319.56 130.511C319.921 130.829 320.046 131.337 319.874 131.786C319.702 132.235 319.269 132.53 318.788 132.525V132.514Z" fill="#093F68"/>
<path fill-rule="evenodd" clip-rule="evenodd" d="M340.196 158.569C340.6 158.796 341.057 158.915 341.521 158.914C342.144 158.892 342.747 158.692 343.26 158.339C345.231 157.072 347.005 153.515 346.521 148.414C346.467 147.819 345.967 147.364 345.369 147.366L336.912 147.781C336.595 147.797 336.3 147.943 336.094 148.184C335.887 148.422 335.788 148.734 335.817 149.047C335.887 149.807 336.624 156.543 340.196 158.569ZM341.336 156.566C339.573 155.564 338.64 152.167 338.272 150.026L344.367 149.727C344.367 153.469 343.076 155.748 342.062 156.404C341.889 156.566 341.567 156.692 341.336 156.566Z" fill="#093F68"/>
<rect x="312.901" y="203.057" width="10.4617" height="8.81935" fill="#080C20"/>
<path fill-rule="evenodd" clip-rule="evenodd" d="M312.901 213.028H323.362C323.999 213.028 324.515 212.512 324.515 211.877V203.057C324.515 202.421 323.999 201.906 323.362 201.906H312.901C312.264 201.906 311.748 202.421 311.748 203.057V211.877C311.748 212.512 312.264 213.028 312.901 213.028ZM322.21 210.725H314.053V204.209H322.21V210.725Z" fill="#093F68"/>
<path d="M323.362 204.209C322.726 204.209 322.21 203.693 322.21 203.057V183.945C322.21 183.309 322.726 182.793 323.362 182.793C323.999 182.793 324.515 183.309 324.515 183.945V203.057C324.515 203.693 323.999 204.209 323.362 204.209Z" fill="#093F68"/>
<path d="M282.069 9.90656H363.712C369.372 9.9129 373.96 14.4969 373.966 20.1536V44.9997C373.966 50.659 369.375 55.2468 363.712 55.2468H352.547V69.7077L339.792 55.2468H282.069C279.348 55.2498 276.738 54.1712 274.814 52.2489C272.89 50.3265 271.811 47.7184 271.814 44.9997V20.1536C271.814 14.4943 276.405 9.90656 282.069 9.90656Z" fill="#080C20"/>
<path fill-rule="evenodd" clip-rule="evenodd" d="M351.683 70.4676C351.901 70.7161 352.216 70.8587 352.547 70.8591C352.684 70.8576 352.82 70.8343 352.95 70.79C353.402 70.6214 353.701 70.1895 353.699 69.7077V56.3981H363.712C370.009 56.3918 375.112 51.2922 375.118 44.9997V20.1536C375.112 13.861 370.009 8.76153 363.712 8.75519H282.069C275.771 8.76153 270.668 13.861 270.662 20.1536V44.9997C270.668 51.2922 275.771 56.3918 282.069 56.3981H339.274L351.683 70.4676ZM272.966 20.1536C272.973 15.1328 277.044 11.0642 282.069 11.0579H363.712C368.736 11.0642 372.807 15.1328 372.814 20.1536V44.9997C372.814 50.0231 368.739 54.0954 363.712 54.0954H352.547C351.911 54.0954 351.395 54.6109 351.395 55.2468V66.6682L340.657 54.4869C340.438 54.2384 340.123 54.0958 339.792 54.0954H282.069C277.042 54.0954 272.966 50.0231 272.966 44.9997V20.1536Z" fill="#093F68"/>
<path d="M359.679 26.0139H294.374C293.737 26.0139 293.221 25.4985 293.221 24.8626C293.221 24.2267 293.737 23.7112 294.374 23.7112H359.679C360.315 23.7112 360.831 24.2267 360.831 24.8626C360.831 25.4985 360.315 26.0139 359.679 26.0139Z" fill="#093F68"/>
<path d="M340.322 39.8417H326.957C326.321 39.8417 325.805 39.3262 325.805 38.6904C325.805 38.0545 326.321 37.539 326.957 37.539H340.322C340.959 37.539 341.475 38.0545 341.475 38.6904C341.475 39.3262 340.959 39.8417 340.322 39.8417Z" fill="#093F68"/>
<path d="M316.576 39.8417H294.374C293.737 39.8417 293.221 39.3262 293.221 38.6904C293.221 38.0545 293.737 37.539 294.374 37.539H316.576C317.212 37.539 317.728 38.0545 317.728 38.6904C317.728 39.3262 317.212 39.8417 316.576 39.8417Z" fill="#093F68"/>
<path d="M294.558 1.87012H212.915C207.245 1.87012 202.649 6.46302 202.649 12.1287V36.9748C202.655 42.636 207.25 47.2219 212.915 47.2218H224.08V61.6828L236.823 47.2218H294.558C300.219 47.2155 304.806 42.6315 304.812 36.9748V12.1287C304.812 6.46751 300.223 1.87647 294.558 1.87012Z" fill="#080C20"/>
<path fill-rule="evenodd" clip-rule="evenodd" d="M223.676 62.7536C223.803 62.809 223.941 62.8365 224.08 62.8342C224.423 62.8439 224.752 62.7004 224.978 62.4427L237.353 48.3732H294.558C300.855 48.3668 305.958 43.2673 305.965 36.9748V12.1286C305.958 5.83425 300.857 0.731437 294.558 0.71875H212.915C206.614 0.731419 201.51 5.83239 201.497 12.1286V36.9748C201.51 43.2692 206.616 48.3669 212.915 48.3732H222.927V61.6828C222.931 62.1604 223.229 62.5864 223.676 62.7536ZM203.801 12.1286C203.808 7.10151 207.884 3.0278 212.915 3.02145H294.558C299.584 3.03413 303.654 7.106 303.66 12.1286V36.9748C303.648 41.993 299.58 46.0578 294.558 46.0705H236.823C236.492 46.0709 236.177 46.2135 235.958 46.4619L225.232 58.6317V47.2218C225.232 46.586 224.716 46.0705 224.08 46.0705H212.915C207.889 46.0642 203.814 41.9974 203.801 36.9748V12.1286Z" fill="#093F68"/>
<path d="M286.389 16.8952H221.072C220.436 16.8952 219.92 16.3798 219.92 15.7439C219.92 15.108 220.436 14.5925 221.072 14.5925H286.389C287.025 14.5925 287.541 15.108 287.541 15.7439C287.541 16.3798 287.025 16.8952 286.389 16.8952Z" fill="#093F68"/>
<path d="M267.033 30.723H221.072C220.436 30.723 219.92 30.2075 219.92 29.5716C219.92 28.9358 220.436 28.4203 221.072 28.4203H267.033C267.669 28.4203 268.185 28.9358 268.185 29.5716C268.185 30.2075 267.669 30.723 267.033 30.723Z" fill="#093F68"/>
</svg>
